<?xml version="1.0" encoding="UTF-8"?>
<!DOCTYPE svg PUBLIC "-//W3C//DTD SVG 1.1//EN" "http://www.w3.org/Graphics/SVG/1.1/DTD/svg11.dtd">
<!-- Creator: CorelDRAW 2020 (64-Bit) -->
<svg xmlns="http://www.w3.org/2000/svg" xml:space="preserve" width="61.2983mm" height="67.7353mm" version="1.1" style="shape-rendering:geometricPrecision; text-rendering:geometricPrecision; image-rendering:optimizeQuality; fill-rule:evenodd; clip-rule:evenodd"
viewBox="0 0 6078.34 6716.63"
 xmlns:xlink="http://www.w3.org/1999/xlink"
 xmlns:xodm="http://www.corel.com/coreldraw/odm/2003">
 <defs>
  <style type="text/css">
   <![CDATA[
    .fil0 {fill:#007CC1}
   ]]>
  </style>
 </defs>
 <g id="Слой_x0020_1">
  <metadata id="CorelCorpID_0Corel-Layer"/>
  <path class="fil0" d="M3300.21 6449.01c-5.53,-23.83 -12.91,-28.41 -21.46,-50.13 -48.51,-123.05 23.3,-248.34 96.12,-232.63 88.66,19.17 77.32,270.1 -74.66,282.75zm-501.08 -201.76c-40.26,-26.96 -45.15,-87.25 -45.79,-142.88 -0.92,-78.63 -20.37,-475.33 91.37,-475.33 123.38,0 53.48,372.98 41.74,419.2 -15.53,61.1 -39.81,167.25 -87.31,199.01zm-221.24 -292.81c0,159.59 6.56,273.76 59.52,428.74 9.84,28.79 17.43,36.89 -3.07,63.37 -134.25,173.29 -368.82,101.93 -368.82,-69.12 0,-68.99 0.03,-41.07 11.29,-99.36 57.02,-295.53 -166.47,-365.82 -211.18,-28.94 -13.36,100.7 4.3,73.23 -36.38,145.82 -167.75,299.29 -257.72,-236.46 -322.12,-357.16 -5.67,-10.62 -10.62,-18.19 -19.5,-26.07 -85.53,-76.06 -195.78,126.66 -263.06,208.05 -12.35,14.97 -22.57,27.47 -34.7,43.39 -49.85,65.41 -72.43,39.25 -95.33,-60.07 -9.53,-41.16 -21.93,-85.37 -31.19,-125.01 -93.99,0 -94.19,42.07 -116.37,111.37 -28.27,88.38 -40.57,168.54 -69.99,268.4 -17.63,59.85 -94.38,244.95 4.16,244.95 23.35,0 58.4,-23.8 74.52,-36.09 94.07,-71.81 197.48,-181.87 291.92,-261.25 121.32,-101.96 179.52,-157.6 282.45,103.97 38.5,97.76 117.83,271.39 231.41,156.11 67.73,-68.8 110.78,-191.34 157.42,-180.75 50.2,11.4 85.02,218.01 237.78,218.01 189.07,0 208.4,-58.34 318.94,-123.88 81.64,-48.45 119.56,123.88 266.72,123.88 109.3,0 163.59,-40.68 234.28,-78.09 70.24,47.02 55.02,78.09 195.23,78.09 97.18,0 222.57,-50.88 281.55,-108.91 41.61,-40.96 36.66,-24.12 72.61,-70.55 139.6,-180.29 140.74,-144.28 172.12,-40.96 59.84,197.04 145.43,304.28 349.53,146.13 61.76,-47.83 118.66,-156.88 152.5,-224.94 15.88,-31.97 20.79,-59.9 34.34,-95.81 23.08,-61.14 72.15,-257.64 26.68,-329.84 -53.51,-84.94 -191.28,20.14 -191.28,158.73 0,174.4 57.2,180.41 -2.57,329.33 -37.08,92.46 -99.77,125.49 -160.27,9.19 -71.55,-137.57 -105.5,-475.17 -182.09,-475.17 -73.65,0 -103.6,173.2 -134.36,236.54 -27.05,55.75 -54.57,121.32 -86.89,166.92 -64.4,90.81 -123.34,156.2 -253.79,156.2 -22.85,0 -37.26,-5.73 -52.44,-12.63 -20.84,-9.5 -26.05,-10.05 -32.17,-32.91 27.05,-7.24 78.16,-51.41 100.39,-68.83 15.8,-12.35 17.52,-13.13 31.52,-27.04 39.81,-39.56 80.78,-86.06 89.29,-145.07 10.4,-71.97 -2.43,-130.2 -32.66,-181.89 -101.16,-172.97 -252.63,-91.73 -343.58,46.5 -75.75,115.11 -85.72,213.35 -85.72,343.78 0,25.42 4.98,48.36 13.02,65.07 -142.35,95.34 -286.33,-88.6 -286.33,-123.63l89.03 -184.3c43.19,-85.83 93.18,-265.74 93.18,-381.86 0,-116.88 15.5,-257.76 -48.31,-355.16 -76.39,-116.56 -197.15,-113.63 -270.75,-9.44 -83.37,117.96 -136.46,318.15 -136.46,462.22z"/>
  <path class="fil0" d="M560.53 45.57c34.76,51.88 162.67,53.87 253.81,97.59 -5.14,19.17 -9.64,21.83 -24.84,33.75 -73.76,57.95 -229.69,124.53 -235.48,194.02 30.82,20.66 35.37,16.99 80.69,23.44 32.33,4.61 67.92,2.6 101.54,2.6 58.9,-0.02 136.51,-4.58 182.2,26.02 -10.42,19.69 -16.15,35.06 -29.67,54.92 -15.51,22.78 -27.1,28.65 -42.92,48.17 -14.34,17.69 -23.87,34.65 -39.56,51.55 -59.41,63.81 -178.26,177.28 -201.84,254.53 -35.57,116.43 188.4,-6.34 218.63,-23 22.8,-12.54 35.07,-21.04 58.43,-32.69 67.14,-33.53 135.17,-84.57 186.62,-73.68 26.07,111.93 -55.66,299.35 39.03,299.35 82.34,0 117.21,-111.18 188.74,-117.13 35.57,67.2 22.91,181.87 52.61,279.26 12.62,41.36 15.36,46.5 51.49,65.63 56.38,-29.84 71.49,-117.76 88.93,-177.89 12.71,-43.98 31.52,-193.04 73.77,-193.04 25.99,0 54.8,55.55 92.18,90.03 21.01,19.37 14.05,14.11 50.99,14.11 6.9,-29.62 12.49,-25.01 26.57,-97.1 4.44,-22.74 7.01,-54.54 19.92,-71.19 8.41,-10.84 14.42,-17.11 28.92,-15.17 38.81,5.11 142.64,102.73 170.94,125.78 38.36,31.24 96.2,82.48 142.69,92.35 119,25.29 -19.58,-253.04 -20,-254.04 -12.49,-28.92 -80.31,-179.77 -63.17,-197.15 36.15,-17.32 157.94,26.96 193.32,40.96 37.38,14.8 204.02,76.84 250.77,38.72 50.79,-41.43 -20.99,-111.98 -43.48,-141.91l-48.53 -55.6c-280.22,-265.07 -239.42,-248.67 15.17,-347.86 83.04,-32.36 88.49,-74.43 -2.86,-74.43 -98.65,0 -429.47,43.67 -429.47,123.63 0,65.3 238.5,230.87 225.71,298.49 -9.7,51.3 -135.04,-6.99 -156.94,-15.85 -33.14,-13.41 -101.23,-41.86 -140.35,-41.86 -34.51,0 -39.06,40.52 -39.06,65.08 0,82.25 104.14,237.13 104.14,305.86 -39.49,-3.29 -117.88,-89.94 -150.65,-116.18 -26.55,-21.26 -108.1,-111.87 -126.18,-37.02 -14.98,62.02 21.68,194.55 -32.91,164.06 -16.24,-9.07 -33.81,-40.76 -41.78,-56.32 -62.45,-122.38 -83.21,-78.46 -115.7,40.29 -6.87,25.07 -10.65,41.38 -16.88,67.7 -5.64,23.81 -6.46,54.6 -30.01,54.6 -80.08,0 54.03,-491.16 -182.12,-123.55 -13.66,21.29 -18.89,36.18 -52.17,38.95 -18.63,-80.02 73.63,-260.29 -6.5,-260.29 -72.54,0 -159.89,91.12 -240.77,91.12 0.95,-43.14 24.36,-47.7 47.05,-70.11l140.91 -152.39c7.99,-13.19 3.24,2.46 8.55,-17.51 9.08,-34.31 -15.93,-37.98 -20.26,-40.38 -25.42,-14.08 -88.79,-17.6 -117.48,-19.17 -33.53,-1.81 -136.85,-9.61 -136.85,-38.86 0,-27.13 17.07,-43.73 35.2,-55.89 51.44,-34.51 160.01,-86.42 160.01,-132.82 0,-68.48 -322.58,-92.21 -446.43,-69.02 -40.01,7.49 -39.21,7.32 -54.66,36.49z"/>
  <path class="fil0" d="M3215.64 4490.21c0,-19.48 4.35,-35.65 15.59,-49.45 24.03,-29.57 121.06,-49.12 121.06,55.96 0,77.79 -136.65,82.74 -136.65,-6.5zm-696.33 -6.49c-3.98,47.73 -21.32,74.07 -50.29,99.36 -75.92,66.33 -217.07,27.3 -232.58,1.29 -3.75,-6.29 -14.48,-46.63 -19.17,-58.9 -26.79,-69.74 -105,-197.71 -186.03,-204.44 0,62.56 4.73,137.83 -43.67,190.58 -65.13,71 -214.55,83.4 -301.22,63.2 30.06,56.83 139,129.81 200.81,150.62 151.04,50.88 140.03,-40.15 331.96,104.03 18.77,14.11 33.59,25.53 52.8,38.31 169.16,112.41 435.99,140.4 637.24,77.36 67.71,-21.21 136.6,-68.2 169.79,-70.97 46.16,172.82 474.38,77.62 417.6,-13.3 -29.02,-46.53 -199.44,52.89 -378.7,-84.16 -107.91,-82.51 -91.95,-169.35 -149.51,-169.35 -25.9,0 -107.04,82.84 -190.77,128.07 -99.56,53.81 -398.3,87.68 -459.98,-4.44 127.32,0 136.71,23.13 299.46,-19.39 320.28,-83.69 349.42,-358.12 448.92,-156.34 82.76,167.84 258.28,260.19 353.09,164.38 22.77,-23.02 39.09,-63.42 52.33,-97.32 48.76,-124.75 20.01,-138.08 75.61,-145.66 50.71,-6.9 46.08,-17.66 46.08,-58.06 0,-28 -45.21,-37.52 -57.87,-65.74 -22.1,-49.32 5.61,-83.91 -59.26,-83.91 -39.43,0 -33.42,20.23 -45.57,45.54 -29.08,-2.43 -60.13,-14.31 -89.58,-21.04 -122.8,-28.02 -169.51,1.51 -229.28,1.51 -12.43,-46.52 -149.04,-120.9 -188.71,-130.14 -26.65,114.38 -87.51,204.07 -193.04,255.99 -137.57,67.7 -100.67,37.29 -210.44,62.89z"/>
  <path class="fil0" d="M4608.25 1568.33c38.66,3.21 28.55,29.39 67.64,95.02 31.1,52.14 52.72,67.67 101.54,67.67l19.52 -97.62c71.75,5.98 -5.69,73.38 102.26,151.56 20.82,15.05 34.09,18.1 40.9,43.67 -56.05,26.9 -94.86,-39.04 -174.12,40.63 -13.24,13.33 -15.22,15.62 -30.9,27.66 -18.11,13.88 -13.47,15.68 -42.27,16.32 0,-77.9 58.59,-75.3 58.59,-117.13 0,-20.01 -19.09,-26.04 -39.07,-26.04 -72.34,0 -133.98,84.6 -201.73,84.6 -24.86,0 -2.37,1.98 -19.52,-6.51 11.31,-42.33 65.07,-49.03 65.07,-91.11 0,-70.11 -165.72,25.67 -214.72,-26.02 31.32,-46.79 48.31,-1.62 123.64,-52.08 -2.83,-33.97 -71.06,-113.47 -17.02,-101.45 0.75,0.17 23.78,14.5 24.78,15.34 31.24,25.76 66.22,107.32 113.78,97.1 33.05,-7.13 21.63,-63.57 21.63,-121.6zm52.05 442.52c90.78,0 142.14,-4.89 222.18,-31.63 45.57,-15.22 123.09,-53.37 163.99,-48.2 104.49,13.22 206.03,115.23 206.03,229.51 0,75.1 -3.13,85.56 -36.77,151.94 -90.14,177.81 -138.95,18.97 -138.95,-8.8 0,-77.37 66.61,-273.31 13.02,-273.31 -60.38,0 -195.22,122.93 -195.22,214.75 0,125.98 126.03,170.88 221.26,221.26 -32.52,48.56 -116.1,186.42 -117.16,234.29 -18.66,-13.66 -12.71,-20.98 -18.27,-46.8 -11.48,-53.37 -137.22,-373.03 -165.85,-419.83 -92.85,-151.61 -208.33,-114.56 -258.4,-138.59 3.95,47.14 100.62,148.36 138.62,193.29 98.65,116.62 117.51,123.17 201.93,273.12 32.6,57.92 49.93,134.65 49.93,223.42l-27.94 -56.69c-8.93,-20.7 -15.11,-42.16 -24.47,-60.1 -18.63,-35.66 -42.89,-70.05 -64.93,-104.28 -64.05,-99.39 -178.38,-163.5 -258.65,-248.92 -47.3,-50.32 -68.12,-173.51 -110.92,-227.49 -24.68,-31.13 -61.19,-53.65 -105.29,-63.93 71.03,134.25 -166.18,316.65 148.22,404.92 38.9,10.92 90.73,20.37 125.26,37.43 75.92,37.55 128.25,90.41 172.87,159.04 58.76,90.32 99.94,175.6 127.61,282.39 14.36,55.55 9.84,47.62 31.27,53.32 7.27,-31.22 41.49,-85.89 59.4,-109.78 25.91,-34.57 42.64,-65.91 103.28,-65.91 68.96,0 78.09,78.09 78.09,149.65 34.43,-23.02 75.08,-78.51 93.44,-114.82 115.39,-228.22 -11.74,-343.13 -136.24,-181.78 -43.01,55.75 -55.44,61.16 -106.87,88.35 14.28,-61.16 59.9,-145.71 97.59,-195.25l86.06 -115.68c72.25,-108.46 89.69,-135.59 89.69,-261.71 0,-59.88 -15.85,-91.17 -36.77,-132.44 -17.55,-34.57 -47.89,-76.61 -75.75,-99.97 -78.88,-66.11 -104.45,-67.65 -153.42,-100.36 -46.77,-31.24 -200.79,-357.06 -430.4,-357.06l-84.57 0c-90.44,0 -187.84,31.35 -284.24,-2.09 -32.79,-11.37 -38.78,-27.53 -73.68,-30.43 0,143 49.54,294.33 126.38,400.73 78.37,108.55 211.68,178.46 348.67,178.46z"/>
  <path class="fil0" d="M3788.28 396.98c30.73,7.16 62.62,24.37 97.62,32.52l0 13.02c-32.42,2.69 -68.74,12.8 -97.62,19.53 0.98,42.95 17.52,26.59 32.55,91.09 -31.27,-2.6 -60.47,-18.89 -91.12,-26.02 -30.34,20.32 -41.24,57.76 -71.58,78.1 0,-137.28 -21.9,-101.26 -79.18,-103.69 -70.72,-3.01 3.68,-30.59 40.15,-85.05 -10.51,-39.37 -54.57,-45.21 -65.08,-84.6 32.91,0 55.49,6.51 97.59,6.51 4.95,-21.15 9.65,-31.32 15.54,-56.06 6.84,-28.84 3.89,-33.66 23.53,-48.05 9.92,42.58 30.79,62.22 39.03,97.59 61.22,0 53.68,-21.83 104.14,-26.01 -30.8,58.15 -44.74,53.48 -45.57,91.11zm39.06 -182.23c-49.14,0 -68.34,-85.77 109.47,-111.87 112.21,-16.48 246.32,39.29 288.32,143.58 56.97,141.55 57.39,336.55 -60.72,448.53 -24.06,22.83 -111.46,66.39 -154.88,66.39 -82.56,0 -100.41,2.8 -177.75,-30.45 -45.48,-19.56 -66.44,-44.01 -56.49,-86.68 95.89,0 94.24,58.56 188.71,58.56 0,-119.67 -103.46,-159.51 61.49,-133.05 248.46,39.81 2.15,-85.53 -15.95,-153.28 45.97,-24.3 122.44,-43.89 149.68,-84.6 -24.53,-36.63 -37.92,-21.26 -89.27,-27.82 -26.7,-3.44 -83.68,-8.81 -112.46,-11.21 1.29,-57.53 37.78,-53.09 39.03,-110.62 -69.43,-18.43 -95.07,32.52 -169.18,32.52zm-240.79 -84.6c-26.13,-0.59 -41.99,-6.84 -60.75,-17.32 -38.69,-21.63 -127.12,-72.89 -167.03,-73.77 0,40.46 27.21,81.11 49.31,113.39 102.96,150.29 69.4,104.89 -26.41,169.79 -19.02,12.91 -17.02,7.18 -22.91,29.17 28.94,43.19 117.16,46.41 117.16,91.11 0,71.31 -118,75.05 -123.64,143.17 25.12,5.87 27.22,9.39 58.12,13.45 24.31,3.21 43.28,7.4 65.52,12.59 0,95.81 -84.6,132.61 -84.6,227.75 65.68,-1.46 114.75,-100.87 175.71,-117.13 45.88,30.73 21.85,87.26 45.54,136.65 49.65,-4.13 39.65,-50.13 91.12,-84.6 73.2,17.08 199.35,168.76 480.8,57.84 36.21,-14.28 95.05,-58.06 122.94,-85.31 148.87,-145.43 156.19,-415.36 35.99,-579.74 -107.32,-146.74 -343.38,-192.06 -505.67,-137.24 -113.02,38.17 -120.85,60.38 -174.82,4.3 -20.49,-21.26 -21.74,-33.48 -56.86,-34.26 -9.11,39.15 -2.44,56.81 -19.53,130.15z"/>
  <path class="fil0" d="M879.42 2511.94c0,-159.29 39.03,-153.37 39.03,-331.91 0,-12.85 -60.21,-124.2 -119.73,134.06l-32.38 162.83c-6.32,25.09 -12.52,34.87 -17.08,54.52 -62.36,-1.38 -45.57,-56.16 -45.57,-169.19 0,-28.22 17.35,-104.13 -13.02,-104.13 -60.1,0 -76.11,103.68 -88.37,158.89 -16.8,75.49 -18.72,147.44 -27.83,226.02 -3.83,33.19 10.65,198.43 17.86,234.06 32.88,162.58 75.27,232.38 180.3,94.21 104.83,-137.86 2.65,-174.32 2.65,-244.65 0,-35.12 18.38,-84.57 52.06,-84.57 40.65,0 53.8,36.91 76.33,60.32 48.5,50.38 60.35,39.46 60.35,108.86 0,55.52 -80.08,156.63 -115.36,203.52 -17.78,23.61 -26.57,42.22 -43.39,67.23 -90.53,134.56 -114.59,227.8 -114.59,393.04 0,101.31 55.12,228.16 105.65,278.28 58.9,58.45 9.19,28.25 98.71,90.03 19.92,13.74 95.67,75.66 114.53,80.69 48.11,-90.91 55.32,-162.75 -3.64,-250.15 -23.63,-35 -26.43,-21.31 -61.58,-62.05 -48.59,-56.24 -149.53,-95.86 -149.53,-247.43 0,-50.08 22.83,-94.92 32.52,-136.66l34.05 44.07c66.14,71.74 95.87,46.79 180.7,66.58 -6.24,-23.38 -8.39,-16.79 -23.95,-34.62 -70.58,-80.81 -65.33,-153.22 -26.3,-249.9 14.73,-36.46 27.64,-73.54 43.65,-106.03 7.67,-15.62 14.73,-30.93 24.06,-47.56 72.89,-129.84 236.35,-467.19 236.35,-596.61 0,-56.24 7.73,-80.19 -39.06,-91.09 -60.91,40.79 -67.29,132.85 -101.85,203.99 -24.78,51.08 -74.72,166.27 -125.9,179.94 -19.95,-23.86 15.23,-115.62 23.5,-139.17 16.46,-46.82 90.55,-261.13 85.97,-302.04 -4.89,-43.64 -55.8,-95.81 -108.6,45.13l-84.63 247.25c-6.26,17.43 -15.57,44.37 -24.31,60.55 -11.84,22.04 -41.6,40.38 -41.6,3.72z"/>
  <path class="fil0" d="M2929.3 3644.23c0,101.87 35.28,239.62 93.74,316.23 39.2,51.38 77.21,98.19 131.27,135.57 141.4,97.81 353.06,126.43 510.34,55.8 172.36,-77.4 292.84,-239.4 292.84,-436.02 -23.83,6.37 -100.62,65.1 -240.79,65.1 -146.64,0 -235.18,9.22 -364.45,-84.54 -25.4,-18.44 -34.01,-29.2 -65.02,-45.62l-23.81 21.76c-9.08,13.75 -8.44,22.72 -8.61,43.51 -0.59,67.16 -5.75,38.86 -52.19,38.86 -51.47,0 -14.81,162.7 182.2,162.7 143.47,0 211.85,-67.98 234.29,-45.57 16.28,33.95 -13.02,43.84 -13.02,71.58 0,45.13 58.56,0.92 58.56,52.06 0,75.94 -363.43,148.24 -525.98,-98.72 -67.14,-101.98 -56.38,-261.97 64.13,-324.07 64.79,-33.39 188.54,-30.07 188.54,-104.31 0,-34.06 -20.04,-49.4 -52.06,-52.05 12.02,-17.97 30.57,-34.17 56,-41.67 6.7,-1.98 38.11,-7.2 43.78,-7.57 42.7,-2.88 167.03,31.43 167.03,-48.39 0,-43.84 -35.88,-52.17 -68.12,-62.03 -31.19,-9.55 -12.99,6.46 -29.5,-16.06 30.65,-41.8 123.66,-16.6 123.66,-58.56 0,-32.22 -24.81,-43.67 -49.85,-54.29 -101.09,-42.86 -249.63,-0.31 -335.15,33.72 -40.51,16.09 -48.05,26.52 -80.91,49.26 -36.71,25.39 -44.67,29.73 -75.89,60.75 -90.46,89.94 -161.02,239.08 -161.02,372.58z"/>
  <path class="fil0" d="M4686.34 6331.85c0,-37.57 7.71,-92.34 19.64,-117.01 61.07,-126.24 237.3,-35.12 143,116.99 -15,24.17 -34.48,34.5 -60.52,50.1 -90.95,54.4 -102.12,48.7 -102.12,-50.08zm754.87 91.12c-31.6,-8.44 -43.04,-38.17 -49.49,-74.15 -17.1,-95.45 -22.26,-316.29 -80.67,-316.29 -78.98,0 -92.17,146.07 -131.9,239.03 -174.43,408.09 -440.76,302.95 -440.76,242.53 0,-27.25 53.45,-32.33 97.56,-52.11 63.01,-28.25 136.77,-61.42 175.66,-123.69 97.12,-155.63 -44.23,-325.28 -149.59,-325.28 -117.85,0 -174.29,33.83 -247.32,130.12 -94.27,124.31 -124.03,380.38 -17.38,485.99l75.8 54.35c40.79,19.19 93.69,19.33 143.37,19.33 156.14,0 268.73,-100.44 348.73,-210.92 16.32,-22.57 61.92,-95.92 67.76,-120.95 18.02,13.19 12.6,15.34 18.44,40.09 15.08,63.87 51.38,291.78 118.22,291.78 87.84,0 90.41,-64.53 132.29,-147.52 16.24,-32.19 23.73,-58.45 39.04,-91.12l84.4 -175.88c37.69,-63.76 108.97,-197.18 199.78,-197.18 39.9,0 40.51,97.59 143.17,97.59 145.23,0 174.43,-253.78 -84.57,-253.78 -139.46,0 -226.46,92.18 -283.83,178.23 -35.51,53.29 -52.58,96.65 -80.72,153.57 -11.57,23.41 -25.26,54.65 -34.9,82.22 -11.12,31.85 -19.19,58.03 -43.08,74.04z"/>
  <path class="fil0" d="M736.25 5700.62c0,63.31 14.33,120.88 37.16,177.6 77.65,193.23 17.97,559.39 -117.04,673.12 -77.62,65.35 -221.88,74.77 -302.32,6.53 -157.75,-133.73 -123.58,-510.08 -97.51,-705.72 11.82,-88.74 117.41,-399.47 -96.95,-279.16 -53.51,30.01 -75.81,80.67 -92.35,141.94 -51.71,191.82 -98.99,454.93 -39.64,661.8 26.24,91.45 44.59,137.54 101.93,203.93 6.04,6.96 9.44,10.39 15.48,17.08l15.98 16.54c19.75,17.71 49.87,36.35 72.78,50.88 99.91,63.37 291.25,63.7 405.8,25.56 36.3,-12.1 68.97,-35.82 99.42,-56.75 85.77,-58.95 159.26,-186.08 191.76,-283.31 13.83,-41.33 21.77,-77.12 30.51,-125.66 28.5,-157.69 33.48,-392.42 1.17,-555.35 -12.54,-63.16 -27.58,-138.22 -96.03,-138.22 -77.99,0 -130.15,89.58 -130.15,169.18z"/>
  <path class="fil0" d="M4816.49 663.79c1.37,-0.87 3.69,-3.44 4.41,-2.1l106.2 -36.93c42.44,-18.89 58.79,-34.46 94.08,-62.11 67.22,-52.72 94.66,-128.92 94.66,-217.75 93.55,21.8 131.18,188.04 -47.58,277.85 -66.51,33.42 -154.97,41.04 -251.78,41.04zm292.85 -540.14c0,-54.07 84.57,-86.17 84.57,6.5 0,39.79 -53.62,31.27 -78.07,19.53 -4.18,-17.46 -6.5,-12.27 -6.5,-26.04zm-78.1 136.68c0,30.1 -7.9,81.22 -29.48,100.67 -29.08,26.18 -107.17,32.52 -107.17,-61.64 0,-89.83 70.83,-162.41 8.32,-229.59 -69.54,-74.77 -298.4,-53.42 -383.06,-34.51 -42.44,9.47 -80.81,13.66 -100.33,42.84 66.53,44.53 125.34,14.76 261.27,116.21 37.53,27.99 38.15,27.21 64.13,66.02l-138.03 24.64c-25.06,5.95 -41.99,9.81 -67.73,16.88 -28.58,7.85 -41.01,10.22 -48.05,36.55 22.49,15.05 31.6,13.88 61.07,23.52 83.85,27.41 262.81,73.52 249.15,175.66 -13.8,103.02 -123.83,97.85 -200.73,36.21 -27.93,-22.41 -45.65,-56.1 -83.45,-66.19 -27.47,40.98 0,31.65 0,136.65 0,46.86 -20.84,72.23 -49.99,93.18 -15.59,11.18 -26.71,17.63 -44.04,27.56 -23.35,13.33 -29.19,9.5 -36.12,35.45 40.9,19.61 236.18,32.52 305.84,32.52 217.9,0 491.89,-43.67 585.69,-253.78 103.85,-232.58 -79.66,-385.31 2.57,-505.03 16.03,-23.35 29.82,-23.61 43.01,-41.6 -19.12,-9.16 -156.64,-26.04 -188.74,-26.04 -53.68,0 -94.3,38.03 -107.8,80.94 -18.05,57.44 3.69,109.38 3.69,172.87z"/>
  <path class="fil0" d="M1875.07 1913.23l-23.81 -41.27c-28.3,-57.09 -91.94,-143.75 -147.97,-177.43 -71.41,-42.92 -162.26,-51.82 -192.09,24.04 -18.86,47.99 -13.57,85.3 -13.57,149.12 34.19,-12.38 8.04,-39.06 84.6,-39.06 87.09,0 192.51,84.02 227.74,136.65 -28.56,-0.61 -64.82,-9.86 -95.64,-14.97 -95.53,-15.82 -198.86,-24.33 -262.42,60.38 -34.31,45.71 -82.99,133.84 -60.44,210.42 8.58,29.17 -7.04,7.82 15.03,24.01 4.75,-20.35 10.31,-28.48 20.63,-44.45 67.7,-104.78 212.74,-163.79 343.81,-163.79 36.01,0 5.53,22.78 -3.44,35.15 -7.96,10.98 -21.29,38.38 -26.62,51.94 -10.79,27.5 -21.24,106.37 -21.99,140.68 -17.26,8.3 -6.95,5.95 -32.54,6.51 0,82.36 45.56,103.29 45.56,214.75 0,21.6 -13.02,13.57 -13.02,26.04 0,92.43 78.1,117.07 78.1,195.22 0,29.73 -25.9,31.32 55.83,93.83 44.12,33.75 61.21,88.38 80.83,88.38 43.67,0 109.58,-52.4 79.88,-92.21 -18.08,-24.28 -69.02,-76.44 -73.37,-129.06 -68.23,-5.67 -34.79,-120.48 -63.37,-170.91 -27.33,-48.22 -43.08,16.82 -27.16,-160.43 1.81,-20.23 9.11,-32.28 5.59,-51.86 -3.52,-19.58 -1.95,-8.91 -11.62,-21.21l-6.21 -6.92c-10.53,-13.45 -7.87,2.77 -7.87,-11.65 0,-62.54 66.58,-115.71 71.58,-175.69 64.96,34.36 130.14,121.43 130.14,221.26 0,42.56 -12.18,67.09 -12.99,104.11 71.72,-16.71 189.86,-96.33 198.99,-203.88 5.33,-62.98 -25.7,-103.4 -65.91,-130.93 -26.93,-18.43 -116.51,-49.11 -159.12,-49.11l17.05 -9c6.29,-2.62 18.08,-6.2 24.53,-8.01 20.57,-5.76 26.9,-6.51 48.48,-10.08 75.63,-12.6 167.36,-20.76 235.15,14.25 31.85,16.45 64.18,43.13 65.24,90.94 59.38,-15.87 113.52,-266.83 -123.63,-266.83 -151.88,0 -264.43,106.09 -305.87,117.16 60.96,-115.2 59.79,-136.66 156.19,-136.66 -1.28,-58.06 -137.74,-241.91 -207.54,-135.99 -34.14,51.78 -26.71,178.07 -26.71,246.61z"/>
  <path class="fil0" d="M1308.92 3911.06c0,138.81 56.27,236.02 169.1,292.93 157.14,79.24 338,14.31 306.31,-162.98 -21.23,-118.71 -163.37,-205.64 -225.53,-153.39 -61.53,51.77 17.82,140.57 127.55,140.57 15.65,0 39.06,-13.94 39.06,6.51 0,73.65 -138.37,102.28 -229.51,21.26 -119.59,-106.32 -53.43,-308.44 186.59,-219.13 140.62,52.36 214.35,326.59 93.29,423.97 -85.36,68.68 -222.99,49.7 -318.18,15.67 -46.88,-16.76 -85.31,-51.35 -117.88,-83.85 -60.47,-60.32 -108.89,-174.9 -108.89,-294.57 0,-51.33 12.07,-81.76 13.02,-123.63 -46.44,10.81 -72.98,39.03 -97.79,71.41 -27.58,35.99 -41.35,61.81 -53.42,115.76 -32.89,147.02 30.07,231.6 81.56,318.46 14.47,24.39 19.61,26.99 38.72,45.88 59.07,58.44 114.08,108.49 199.16,139.23 108.12,39.06 273.62,52.6 378.29,-7.58 12.99,-7.46 43.3,-26.96 53.14,-37.97 8.13,-9.08 9.47,-13.75 20.21,-25.35 91.34,-98.82 88.11,-276.02 48.25,-396.48 -50.46,-152.41 -179.86,-288.49 -355.77,-288.49 -81.42,0 -122.05,8.19 -177.37,56.92 -34.29,30.2 -69.91,82.59 -69.91,144.84z"/>
  <path class="fil0" d="M4627.75 3657.25c0,-36.04 -7.04,-91.09 52.09,-91.09 112.68,0 249.78,182.21 65.07,182.21 -50.74,0 -117.16,-42.16 -117.16,-91.12zm-546.63 312.37c57.09,0 134.31,-53.14 173.88,-86.42l88.09 -81.14c30.6,-30.93 161.03,-183.82 161.03,-86.25 0,40.15 -18.75,59.43 -44.73,85.45 -49.51,49.56 -49.71,41.15 -96.39,79.29 -31.71,25.87 -158.23,106.32 -158.23,154.15 0,48.39 124.37,143.17 208.24,143.17 157.7,0 282.54,-305.87 325.4,-305.87 62.44,0 1.95,144.51 -63.54,209.77 -53.78,53.6 11.21,4.03 -88.94,80.28 -72.34,55.12 -117.74,49.54 -138.59,83.28 -25.67,41.61 39.46,121.23 82.82,121.23 25.39,0 53.75,-24.95 72.98,-37.63 53.78,-35.6 134.34,-119.25 177.14,-174.26 18.55,-23.84 34.68,-41.18 50.55,-66.62 16.56,-26.56 29.44,-44.87 45.53,-71.55 63.88,-105.92 73.38,-226.31 33.17,-341.66 -22.52,-64.59 -84.22,-124.66 -142.86,-156.52 -72.81,-39.51 -219.33,-42.86 -292.59,-1.73 -77.09,43.27 -126.35,156.3 -210.34,206.14 -54.57,32.39 -73.03,49.79 -142.14,66.1 -59.03,13.94 -111.26,14.06 -99.33,95.84 4.3,29.45 29.45,84.94 58.84,84.94z"/>
  <path class="fil0" d="M2109.33 1483.73c-20.6,-15.09 -26.01,-49.57 -26.01,-84.6 0,-12.8 19.61,-35.15 26.65,-44.91 12.94,-17.96 13.97,-25.98 44.93,-26.67 3.69,44.64 7.43,37.49 -2.63,88.48 -6.49,32.92 -13.58,59.85 -42.95,67.71zm97.62 117.13c-36.23,-75.53 10.53,-212.13 43.76,-281.61 18.41,-38.5 24.14,-50.57 47.36,-56.78 19.89,85.42 -9.53,295.22 -91.12,338.39zm-305.86 -169.19c-13.56,-58.23 -6.21,-89.54 13.71,-148.98 12.16,-36.21 16.49,-62.64 57.87,-72.28 42.61,28.53 32.54,67.47 32.54,136.65 0,13.36 -56.75,83.54 -104.13,84.6zm-149.68 65.08c-29.17,-55.13 19.23,-174.11 30.85,-229.45 9.72,-46.28 20.51,-67.59 36.04,-107.15 23.86,-60.78 33.8,-79.08 69.77,-79.88 0,99.61 -35.55,250.84 -75.84,340.64 -16.9,37.67 -17.63,65.77 -60.82,75.84zm-175.69 -305.87c179.63,-120.28 121.54,117.41 97.71,169.33 -34.4,74.96 -113.41,85.33 -133.08,-3.81l-23.19 -87.42c-71.14,1.59 -65.07,78.59 -65.07,143.17 0,85.97 90.58,188.71 195.22,188.71 181.03,0 215.64,-30.94 342.94,-138.59 15.11,-12.8 18.35,-19.78 34.48,-30.6 2.01,89.72 91.45,292.85 227.77,292.85 63.4,0 82.25,-6.68 128.75,-53.48 26.38,-26.57 43.08,-62.67 46.97,-109.22 -93.07,49.23 -84.6,-12.6 -84.6,-104.14 0,-41.43 12.38,-100.24 58.56,-104.1 34.19,64.62 2.95,98.96 32.54,143.17 65.63,-5.47 51.83,-172.2 39.37,-221.6 -12.82,-50.76 -22.01,-57.05 -53.95,-89.21 -103.79,-104.57 -229.86,-23.75 -312.37,68.46 -8.91,9.95 -14.64,18.19 -22.66,29.39 -6.12,8.61 -4.5,6.65 -10.53,15.51 -8.55,12.51 -1.34,4.38 -10.79,15.25 2.24,-26.73 6.51,-14.56 6.51,-39.06 0,-76.11 -17.89,-152.67 -50.97,-196.34 -8.83,-11.62 -17.4,-19.58 -26.99,-31.57 -70.91,-88.74 -243.75,-70.89 -330.19,1.95 -35.49,29.93 -81.71,84.49 -86.43,141.35z"/>
  <path class="fil0" d="M3378.3 2407.8c0,90.58 45.8,140.77 121.55,177.81 46.99,23.02 145.26,78.49 145.26,134.56 0,35.12 -0.51,41.24 -45.54,65.08 -22.18,-11.77 -15.7,-7.49 -34.28,-24.31 -14.08,-12.73 -18.86,-14.25 -32.36,-26.18 -43.17,-38.2 -25.54,-47.13 -96.07,-47.13 -75.52,0 -32.21,185.07 -45.79,247.05 -14.11,64.34 -37.11,62.98 -64.82,104.36 120.68,0 202.32,-62.75 263.92,-146.04 25.42,-34.37 32.49,-49.17 87.49,-49.17 15.17,65.13 -55.72,90.75 -47.83,160.01 11.79,103.32 210.53,143.31 210.53,35.2 0,-37.94 -133.22,-182.2 -52.08,-182.2 41.1,0 94.58,-4.09 130.18,12.99 -4.61,55.21 -121.83,149.29 119.83,87.31 113.04,-28.96 174.8,-40.32 132.52,-98.88 -24.03,-33.27 -54.57,-57.97 -85.1,-84.13 -12.22,-10.44 -160.78,-124.11 -160.78,-73.48 0,90.49 32.34,91.11 -71.58,91.11 -58.28,0 -165.49,-111.15 47.97,-186.33 48.14,-16.96 135.46,-42.72 140.77,-106.51 -37.83,-0.84 -84.6,-16.6 -112.82,-30.34 -61.36,-29.85 -197.37,-97.65 -193.57,49.76 1.62,62.39 31.27,123.75 -31.99,123.75 -47.64,0 -27.64,-98.74 -25.85,-136.77 10.17,-214.78 -101.22,-144.67 -200.64,-241.96 -16.43,-16.09 -24.95,-35.43 -27.33,-63.79 -33.08,24.22 -71.58,145.09 -71.58,208.24z"/>
  <path class="fil0" d="M2330.6 2869.83c0,62.87 -90.44,22.24 -121.07,3.94 -26.56,-15.9 -33.53,-28.83 -54.62,-42.97 -43.95,41.69 -78.82,92.87 -93.96,166.35 -49.4,239.23 193.34,406.32 373.78,406.32 41.55,0 57.06,-10.2 91.09,-13.02l0 -13.02c-112.1,0 -237.02,-134.54 -100.31,-341.1 59.99,-90.67 123.58,-188.13 12.11,-273.51 -208.61,-159.77 49.17,-184.3 49.17,-374.54 0,-106.23 -125.87,-211.15 -169.21,-214.75 12.45,53.51 65.29,122.07 -51.03,215.78 -58.26,46.94 -136.4,93.21 -178.48,140.4 -140.83,157.89 242.53,279.91 242.53,340.12z"/>
  <path class="fil0" d="M2753.58 3507.57c0,150.16 -187.14,273.88 -195.92,182.42 -0.22,-2.6 7.21,-89.49 8.55,-96.47 10.09,-52.11 44.93,-26.49 124.93,-89.86 16.62,-13.13 62.44,-40.52 62.44,3.91zm-286.33 -325.36c0,118.3 169.21,142.69 169.21,195.23 0,41.69 6.59,53.65 -62.61,87.06 -61.9,29.92 -128.64,23.58 -197.72,23.58 -81.84,0 -193.79,-48.93 -238.92,-99.47 -24.95,-27.94 -21.12,-39.54 -66.91,-50.21 -13.61,11.82 -23.56,16.18 -32.86,38.72 -29.9,72.46 0.92,166.36 28.47,225.97 68.37,147.97 214.75,242.91 381.82,242.91 59.26,0 127.4,-9.02 169.15,-26.1 170.8,-69.83 276.39,-237.5 237.3,-425.9 -39.23,-188.99 -245.37,-140.82 -300.75,-284.94 -11.71,-30.42 -5.23,-53.62 -27.61,-70.02 -4.38,16.49 -58.56,106.03 -58.56,143.17z"/>
  <path class="fil0" d="M4042.09 2629.07c2.49,29.81 21.07,31.18 63.76,59.87 51.75,34.84 183.52,96.09 183.52,193.91 0,143.42 -219.22,183.52 -325.36,208.25 1.53,18.57 -10.82,23.46 53.62,37.46 34.31,7.46 43.58,7.13 70.02,21.09 -15.54,29.4 -100.7,157.34 -22.47,115.34 6.32,-3.38 21.85,-13.91 28.62,-18.08 19.95,-12.35 32.44,-24.92 65.44,-25.68 4.78,20.46 8.99,23.64 15.65,49.43 6.49,25.09 12.4,35.37 16.91,54.71 26.59,-2.21 26.26,-6.12 31.34,-27.21 12.74,-52.78 5.29,-112.16 16.88,-165.36 6.35,-29.16 52.66,-139.31 107.94,-139.31 54.77,0 65.07,68.68 65.07,130.15 0,108.13 -124.55,284.44 -40.65,240.65 17.17,-8.93 37.18,-32.88 73.2,-51.94 71.67,48 58.32,91.92 110.61,104.14 13.53,-58.01 -6.48,-86.48 -6.48,-149.68 36.63,-8.55 80.47,-10.98 117.13,-19.52 -6.38,-23.87 -10.65,-18.25 -33.64,-31.43 -16.06,-9.25 -30.54,-18.14 -44.9,-26.68 -32.74,-19.56 -52.97,-36.35 -79.44,-63.76 -32.63,-33.81 -120.85,-177.48 -24.22,-177.48 132.36,0 172.06,199.89 227.74,214.75 23.11,-48.12 -5.47,-117.13 32.55,-117.13 33.22,0 86.31,5.67 110.61,0 -2.68,-32.39 -19.52,-28.25 -46.82,-44.27 -27.69,-16.23 -38.17,-28.72 -57.27,-33.83 0,-43.27 16.9,-60.49 37.35,-86.39 7.85,-9.95 21.68,-24.9 19.17,-37.11 -10.39,-50.69 -54.93,51.91 -271.27,51.91 -89.11,0 -83.19,-93.9 44.59,-131.1 49.2,-14.33 118.38,-12.68 144.12,-51.1 -64.33,-34.03 -119.57,-9.81 -101.96,-61.97 12.18,-36.12 45.18,-80.86 30.53,-95.47 -21.18,-21.18 -62.19,53.31 -110.78,53.31 -31.74,0 -43.87,-59.65 -71.31,-71.25 -68.93,-29.08 32.8,197.87 -45.01,280.33 -38.09,40.38 -91.92,12.43 -91.92,-59.4 0,-126.99 61.47,-253.79 12.99,-253.79 -30.71,0 -49.54,67.03 -104.11,71.58 -2.8,-10.47 -47.22,-88.01 -84.6,-91.11 0,28.92 11.1,107.6 -5.78,124.34 -7.04,6.98 -86.81,7.06 -111.35,18.83z"/>
  <path class="fil0" d="M1191.76 2960.95c-50.17,0 -35.71,-29 -78.09,-32.52 -74.04,154.31 242.13,276.44 240.81,-78.1 -0.3,-78.35 -9.5,-237.55 19.34,-306.03 0.7,-1.68 6.93,-14.23 8.75,-17.27 7.61,-12.45 4,-7.09 10.93,-15.08 0,263.39 110.92,367.19 85.22,507.9 -12.54,68.71 -83.18,77.32 -98.21,12.69 -58.26,39 -13.05,156.19 71.58,156.19 39.84,0 69.6,-5.53 98.74,-37.89 108.88,-120.76 -92.26,-441.86 -92.26,-593.34 0,-50.32 -2.94,-72.48 9.27,-120.91 5.98,-23.72 10.64,-40.29 23.27,-54.82 0,210.54 94.24,343.13 171.42,485.85l73.78 121.43c36.92,66.48 60.67,88.1 60.67,167.11 0,62.78 -117.16,87.6 -117.16,-19.5 -93.18,7.74 -83.79,221.24 91.12,221.24 96.84,0 156.19,-71.95 156.19,-175.69 0,-89.55 -63.68,-175.43 -109.33,-242.08l-88.57 -126.17c-71.78,-103.17 -173.03,-272.31 -173.03,-399.63 0,-178.15 12.88,-122.02 39.06,-234.29 -36.97,9.87 -131.76,101.96 -161.21,131.65 -31.8,32.11 -100.62,139.89 -115.71,183.65 -86.36,250.21 8.58,465.61 -126.57,465.61z"/>
  <path class="fil0" d="M3892.41 4691.97l22.57 -101.17c11.13,-68.29 -24.75,-75.53 41.99,-74.89 128.53,1.26 152.79,-50.48 208.74,-51.71 1.32,58.92 9.56,112.46 -75.83,164.93 -63.59,39.06 -116.87,61.02 -197.48,62.84zm45.54 -279.83c-195.26,0 -186.56,-87.65 -273.62,58.26 -40.74,68.26 -96.68,173.74 -58.51,267.36 25.39,62.25 83.23,90.86 162.95,90.86 165.38,0 284.86,-43.73 390.24,-104.33 23.53,-13.5 50.1,-35.26 71.92,-51.75 28.7,-21.68 37.08,-35.73 60.38,-63.25 41.75,-49.28 76.14,-90.22 76.14,-177.65 0,-93.83 -68.7,-150.68 -106.22,-137.42 -9.28,3.3 -37.89,28.39 -52.56,37.22 -68.56,41.26 -164.09,80.69 -270.71,80.69z"/>
  <path class="fil0" d="M1178.74 39.06c10.19,38.09 43.5,17.29 70.6,46.86 48.31,52.69 -41.85,83.21 -61.86,92.03 -15.03,6.62 -27.36,11.82 -41.27,17.27 -30.79,12.07 -62.59,18.4 -71.58,52.08 53.84,36.04 105.37,-6.51 188.71,-6.51 60.61,0 53.31,41.41 25.29,77.34 -33.36,42.8 -76.36,86.53 -77.33,130.9 25.53,5.95 23.24,6.73 45.4,-6.21 46.72,-27.27 137.89,-142.27 180.81,-50.82 22.52,48 -5.36,174.15 40.6,174.15 63.17,0 36.8,-349.93 196.26,-131.16 25.7,35.29 31.46,66.08 90.08,66.08 23.38,-88.15 -71.19,-111.15 -45.54,-221.26 85.31,-40.93 132.7,36.54 201.73,0 -18.22,-78.16 -162.7,-79.24 -162.7,-169.19 0,-21.43 24.73,-32.44 39.82,-38.31 24.75,-9.64 38.11,-8.3 44.79,-33.28 -19.7,-26.9 -136.63,-25.34 -152.65,-22.8 -85.71,13.56 -77.36,47.94 -112.79,76.22 -36.52,29.17 -94.89,27.16 -128.8,-4.08 -38.39,-35.35 -25.73,-95.03 -212.24,-70.17 -31.01,4.13 -42.92,1.2 -57.3,20.81z"/>
  <path class="fil0" d="M4185.25 1106.28c47.05,0 81.28,16.77 122.24,27.44 78.76,20.57 122.49,20.67 192.31,29.03 28.58,3.43 57.61,-4.44 42.84,19.78 -28.5,46.68 -230.54,74.06 -330.03,-25.51 -30.26,-30.26 -12.39,-17.18 -27.36,-50.74zm-188.74 -110.61c-22.29,95.72 54.07,199.91 115.48,261.97 120.34,121.54 313.13,142.26 468.34,81.05 71.63,-28.22 118.99,-49.54 118.99,-134.79 0,-44.84 -26.29,-115.28 -44.23,-144.48 -19.4,-31.52 -48.2,-102.8 -92.43,-102.8 -44.62,0 -69.63,39.04 -149.68,39.04 -50.28,0 -17.48,-71.58 -110.61,-71.58 -18.44,0 -47.67,16.51 -66.86,24.22 -130.23,52.25 -144.23,25.29 -239.01,47.36z"/>
  <path class="fil0" d="M2714.55 4008.66c-25.9,-6.9 -24.18,-21.01 -56.36,-34.77 -167.44,-71.49 -208.99,141.49 -249.26,197.72 -85.77,119.7 -237.27,28.52 -267.05,58.31 -26.07,26.07 39.95,182.23 253.78,182.23 168.09,0 377.45,-101.11 377.45,-260.31 0,-38.7 -12.24,-48.99 -13.02,-84.6 71.91,-34.49 65.88,26.04 110.61,26.04 54.12,0 77.67,-88.6 19.53,-104.14 58.89,-87.93 -5.31,-117.13 -32.52,-117.13 -22.44,0 -25.21,4.81 -45.57,6.51 -6.4,-76.98 -129.81,-70.66 -103.24,24.55 21.37,76.56 21.68,36.66 5.64,105.6z"/>
  <path class="fil0" d="M4966.17 3195.22l0 0zm0 0c-196.56,-94.3 -295.11,108.3 -193.55,200.03 85.22,76.98 254.82,60.02 271.61,262 56.24,-37.66 125.49,-144.06 150.68,-207.23 34.23,-85.66 65.5,-177.87 40.85,-296.62 -52.92,-254.84 -299.89,-229.72 -289.44,-29.65 2.01,38.47 12.99,42.14 19.84,71.47z"/>
  <path class="fil0" d="M1198.28 3442.5c0,-86.11 130.14,-86.42 130.14,-6.5 0,114.24 -130.14,79.18 -130.14,6.5zm-97.6 -130.15l6.49 58.56c-112.46,0 -177.62,154.28 -58.64,227.86 58.92,36.43 99.77,8.52 136.74,-0.09 6.12,73.29 123.97,123.92 202.87,53.2 39.31,-35.23 50.54,-95.84 24.9,-144.32 101.08,-2.23 167.25,-120.31 89.43,-206.56 -47.91,-53.09 -106.59,-43.47 -161.02,-14.7 -31.32,-134.39 -240.77,-111.73 -240.77,26.04z"/>
  <path class="fil0" d="M742.76 1548.8c0,-39.75 1.04,-79.21 45.54,-91.12 14.08,29.34 16.2,109.28 89.69,157.61 18.08,11.88 32.25,25.45 53.48,31.13 -56.1,83.77 -188.71,-6.32 -188.71,-97.62zm182.21 -136.65c0,-34.95 18.49,-32.52 45.53,-32.52 42.73,0 38.53,31.8 54.01,63.12 15.03,30.4 38.78,40.38 56.64,67.03 -29.71,127.49 -156.19,3.15 -156.19,-97.62zm-331.88 286.33c0,58.12 44.95,40.81 96.87,46.3 81.42,8.61 124.17,56.07 269.57,-5.23 104.58,-44.1 206.23,-173.06 206.23,-288.35 0,-21.74 -34.87,-32.6 -50.46,-53.71 -15.37,-20.81 -16.85,-53.95 -27.64,-76.47 -192.4,-44.81 -399.21,30.79 -458.08,218.72 -13.02,41.61 -14,86.59 -23.3,119.86 -4.36,15.57 -13.19,28.02 -13.19,38.87z"/>
  <path class="fil0" d="M4894.58 1366.6c0,95.1 80.5,186.89 138.22,252.21l97.93 97.3c22.3,19.03 93.32,66.97 128.24,66.97 68.51,0 83.16,-518.33 52.48,-579.6 -9.36,-18.72 -17.55,-26.27 -39.46,-32.11 -36.91,69.77 -75.41,105.09 -147.52,145.3 -49.54,27.63 -165.78,63.5 -229.89,49.93z"/>
  <path class="fil0" d="M2096.31 3943.58c0,-88.09 169.21,-10.19 169.21,58.56 0,67.37 -169.21,-6.73 -169.21,-58.56zm-514.07 -409.97c0,85.08 138.25,80.83 206.17,112.69 65.71,30.81 136.65,79.82 154.51,157.83 19.05,83.23 29.3,182.42 78.98,233.41 129.34,132.78 334.73,113.3 334.73,23.19 0,-132.94 -133.03,-240.54 -233.33,-233.33 -50.4,3.63 -85.14,12.21 -106.12,-38.95 -39.09,-95.39 -33.42,-212.06 -151.3,-297.71 -108.21,-78.62 -283.65,-40.87 -283.65,42.87z"/>
  <path class="fil0" d="M3684.17 1379.62l-64.91 -7.71c8.56,-31.37 32.36,-28.5 32.36,-76.89 0,-40.01 -71.97,-8.69 -134.25,-21.93 -51.35,-10.93 -58.12,-46.41 -99.99,-56.16 -50.66,95.7 -59.24,183.24 -23.78,290.59 12.93,39.25 29.22,79.32 75.83,80.35 34.06,-146.18 93.43,17.8 311.73,-59.2 117.74,-41.55 185.97,-174.94 155.35,-316.8 -4.83,-22.29 -13.41,-40.01 -18.05,-60.01l-13.02 0c-1.35,60.32 -21.85,122.37 -60.02,161.24 -38.14,38.89 -115.98,72.72 -161.24,66.53z"/>
  <path class="fil0" d="M3846.87 3442.5c-18.52,0 -45.57,-13.02 -45.57,-26.01 0,-24.76 12.63,-102.74 19.53,-117.16 79.52,18.55 85.6,143.17 26.04,143.17zm-110.64 -195.22c0,83.28 -71.87,171.27 -63.68,251.97 19.22,189.49 211.12,183.37 280.08,114.1 100.39,-100.84 58.58,-319.02 -133.9,-422.54 -31.71,-17.05 -69.31,-34.65 -115.03,-34.65 12.59,23.84 32.52,56.35 32.52,91.12z"/>
  <path class="fil0" d="M1126.69 1815.61c0,107.51 61.78,195.25 162.69,195.25 108.21,0 151.22,-123.08 124.03,-221.62 -20.37,-73.72 -131.6,-175.35 -195.61,-175.35 -38.38,0 -91.11,149.29 -91.11,201.73z"/>
  <path class="fil0" d="M3443.38 1080.27l3.18 42.35c7.02,30.71 -2.6,15.34 16.35,29.23 3.6,-43.31 67.19,-104.14 130.15,-104.14 53.7,0 56.55,0.87 104.13,26.04 -20.31,30.31 -65.3,64.35 -13.1,97.62 50.15,31.97 55.18,28.84 84.68,84.58 24.5,-6.54 38.81,-20.87 52.28,-38.81 82.73,-110.01 85,-267.03 51.83,-267.03 -26.04,0 -32.33,13.41 -58.56,19.5 -51.3,-34.34 -107.26,-65.08 -175.69,-65.08 -48.39,0 -108.8,22.35 -135.28,46.94 -34.65,32.13 -59.96,84.27 -59.96,128.78z"/>
  <path class="fil0" d="M3781.76 4197.39l0 52.06c0,81.78 143.4,90.75 215.04,85.3 75.35,-5.7 194.97,-23.3 194.97,-117.85l0 -32.52c0,-131.18 -410.01,-118.88 -410.01,13.02z"/>
  <path class="fil0" d="M5187.42 930.59c0,89.94 -83.04,158.26 -160.6,190.8 -118.39,49.66 -242.89,1.87 -242.89,102.05 0,57.17 77.45,80.69 133.93,75.41 75.8,-7.07 113.58,-19 169.82,-45.02 196.2,-90.63 270.04,-332.6 86.73,-375.29 2.66,31.96 13.02,23.83 13.02,52.05z"/>
  <path class="fil0" d="M749.27 995.67l0 32.54c0,128.95 139.85,188.71 273.31,188.71 21.63,-92.81 31.65,-129.17 -7.27,-233.52 -13.97,-37.47 -41.69,-67.73 -76.92,-85.78 -94.47,-48.31 -189.13,17.44 -189.13,98.05z"/>
  <path class="fil0" d="M4048.6 3566.16c0,137.02 247.28,172.23 247.28,-39.06 0,-57.14 -39.46,-101.39 -74.13,-127.6 -38.11,-28.81 -89.32,-48.09 -153.65,-48.09 48.65,91.9 -19.49,125.76 -19.49,214.75z"/>
  <path class="fil0" d="M2480.27 950.12c0,-66.69 -16.12,-63.51 -60.13,-102.57 -69.2,-61.39 -412.32,-347.94 -224.91,-48.39 36.46,58.31 143.69,213.66 189.97,246.2 61.15,43.01 95.07,-32.96 95.07,-95.24z"/>
  <path class="fil0" d="M3814.32 2238.6c0,88.52 31.1,149.68 136.66,149.68 167,0 157.6,-260.29 -6.51,-260.29 -68.96,0 -130.15,63.62 -130.15,110.61z"/>
  <path class="fil0" d="M2122.35 5596.52c0,76.64 14.03,130.15 110.64,130.15 124.81,0 164.41,-206.94 64.21,-252.95 -105.47,-48.45 -174.85,57.72 -174.85,122.8z"/>
  <path class="fil0" d="M4849.01 937.1c-55.26,0 -57.92,4.24 -104.11,-6.51 5.7,21.41 10.84,18.11 18.25,40.32 29.81,89.47 2.57,115.87 118.42,115.87 43.3,0 114.35,-28.16 144.25,-44.45 118.62,-64.65 108.72,-157.28 31.43,-157.28 -74.57,0 -123.74,52.06 -208.24,52.06z"/>
  <path class="fil0" d="M3827.34 1711.5c0,157.56 240.4,165.6 244.98,5.78 2.06,-71.25 -56.47,-122.91 -134.36,-122.91 -50.94,0 -110.62,63.7 -110.62,117.13z"/>
  <path class="fil0" d="M3625.61 1887.19c0,44.64 -0.11,68.87 33.83,102.82 58.71,58.7 193.91,46.61 193.91,-102.82 0,-48.54 -55.71,-97.6 -117.12,-97.6 -52.51,0 -110.62,47.76 -110.62,97.6z"/>
  <path class="fil0" d="M3391.33 2023.84c0,142.02 214.75,141.86 214.75,0 0,-147.55 -214.75,-141.88 -214.75,0z"/>
  <path class="fil0" d="M554.03 1138.83c0,32.38 -2.55,56.69 13.1,84.51l29.87 35.21c81.45,75.63 206.88,30.09 217.35,-9.11 -44.28,-3.66 -95.41,-48.59 -118.3,-76.95 -35.57,-44.09 -37.89,-86.03 -37.89,-163.81 -48.59,4.05 -104.13,75.13 -104.13,130.15z"/>
  <path class="fil0" d="M3475.93 3514.08c0,40.43 -17.08,83.4 -10.9,114.5 19.72,99.36 173.59,91.95 173.59,-23.38 0,-40.04 -24.86,-79.33 -55.57,-100.62 -35.63,-24.67 -68.91,-36.04 -126.66,-36.04 4.78,9 19.53,34.79 19.53,45.54z"/>
  <path class="fil0" d="M924.96 1919.74c0,104.89 127.35,136.54 195.22,91.12 -20.06,-29.99 -71.58,-73.4 -71.58,-162.7 0,-35.46 10.45,-53.72 13.02,-84.6 -64.15,5.33 -136.65,85.56 -136.65,156.19z"/>
  <path class="fil0" d="M892.44 2036.86c-84.16,7.01 -205.31,56.92 -284.66,-8.19 -26.76,-21.95 -38.92,-51.24 -66.77,-69.9 0,389.46 326.59,115.19 351.43,78.09z"/>
  <path class="fil0" d="M560.53 598.71c0,108.49 110.15,12.63 143.23,-12.96 29.14,-22.55 76.95,-61.86 78.04,-110.7 -12.49,-2.91 -37.14,-12.99 -45.54,-12.99 -69.46,0 -133,15.48 -158.43,75.86 -3.83,9.08 -17.29,53.37 -17.29,60.79z"/>
  <path class="fil0" d="M4081.12 2101.94c0,121.03 175.72,122.71 175.72,-6.51 0,-99.91 -175.72,-118.36 -175.72,6.51z"/>
  <path class="fil0" d="M2447.72 338.39c39.55,0 70.23,-149.65 -6.51,-149.65 -48.34,0 -226.77,-1.17 -141.86,76.7 26.05,23.89 102.35,72.95 148.37,72.95z"/>
  <path class="fil0" d="M859.89 1861.17c-43.7,0.98 -92.78,21.38 -173.71,-15 -63.31,-28.5 -48.33,-35.31 -80.07,-56.58 0,65.13 0.42,153.93 94.52,165.91 61.7,7.87 147.67,-50.94 159.26,-94.33z"/>
  <path class="fil0" d="M4074.61 1874.19c0,93.61 156.19,117.25 156.19,-13.02 0,-88.74 -156.19,-106.14 -156.19,13.02z"/>
  <path class="fil0" d="M3638.62 2147.51c0,106.21 156.16,96.45 156.16,0 0,-98.73 -156.16,-104.8 -156.16,0z"/>
  <path class="fil0" d="M3879.39 1991.32c0,154.02 226.35,71.67 134.48,-43.36 -47.75,-59.76 -134.48,-9.13 -134.48,43.36z"/>
  <path class="fil0" d="M1295.9 1503.25c95,0 102.12,-156.19 6.5,-156.19 -119.47,0 -95.69,156.19 -6.5,156.19z"/>
  <path class="fil0" d="M1204.78 1334.05c62.84,0 95.25,-84.19 54.01,-125.6 -26.68,-26.79 -41.52,-24.08 -67.03,-24.08 -83.04,0 -101.73,149.67 13.02,149.67z"/>
  <path class="fil0" d="M3456.4 1757.04c0,113.6 149.68,104.97 149.68,0 0,-91.96 -149.68,-95.39 -149.68,0z"/>
  <path class="fil0" d="M4100.65 2329.71c0,101.56 149.68,101.84 149.68,0 0,-94.02 -149.68,-89 -149.68,0z"/>
  <path class="fil0" d="M4042.09 1561.82c89.38,0 101.93,-149.67 -6.5,-149.67 -89,0 -92.07,149.67 6.5,149.67z"/>
  <path class="fil0" d="M3632.12 1665.96c0,17.29 9.72,36.83 18.22,46.82 59.32,70 176.42,-18.22 113.21,-93.68 -41.52,-49.54 -131.43,-23.39 -131.43,46.85z"/>
 </g>
</svg>
