<?xml version="1.0" encoding="UTF-8"?>
<!DOCTYPE svg PUBLIC "-//W3C//DTD SVG 1.1//EN" "http://www.w3.org/Graphics/SVG/1.1/DTD/svg11.dtd">
<!-- Creator: CorelDRAW 2020 (64-Bit) -->
<svg xmlns="http://www.w3.org/2000/svg" xml:space="preserve" width="85.7932mm" height="20.7242mm" version="1.1" style="shape-rendering:geometricPrecision; text-rendering:geometricPrecision; image-rendering:optimizeQuality; fill-rule:evenodd; clip-rule:evenodd"
viewBox="0 0 8211.07 1983.47"
 xmlns:xlink="http://www.w3.org/1999/xlink"
 xmlns:xodm="http://www.corel.com/coreldraw/odm/2003">
 <defs>
  <style type="text/css">
   <![CDATA[
    .fil0 {fill:#83B813}
   ]]>
  </style>
 </defs>
 <g id="Слой_x0020_1">
  <metadata id="CorelCorpID_0Corel-Layer"/>
  <path class="fil0" d="M1656.08 1581.4l-133.44 12.74c-21.21,2.19 -39.53,7.65 -65.41,7.68 -23.62,0.04 -48.85,-1.86 -71.53,1.59 -45.38,6.85 -96.49,-0.24 -143.89,2.32l-186.93 4.24c-20.05,-0.61 -20.29,-3.75 -40.35,-4.34 -14.57,-0.42 -30.39,0.92 -44.83,0.15 -18.19,-1 -19.39,-4.08 -40.47,-4.2 -44.2,-0.25 -95.19,-9.91 -139.38,-19.02 -72.79,-15.03 -151.94,-38.62 -196.71,-95.71 -39.41,-50.26 -28.89,-111.82 -0.31,-164.55l27.89 -45.26c4.06,-5.12 -0.61,0.31 5.58,-6.58l22.28 -22.4c0.6,-0.56 1.49,-1.38 2.13,-1.92l8.74 -7.49c9.85,-8.08 20.52,-16.43 29.97,-22.84 42.94,-29.13 96.62,-42.48 146.66,-56.41 25.32,-7.07 61.04,-7.16 88.57,-12.95 30.42,-6.4 103.81,-10.92 156.44,-22.28l745.56 -99.18 -30.51 103.54c-4.94,14.63 -7.19,19.57 -10.97,33.68l-117.95 381.59c-3.96,11.52 -10.21,26.45 -11.16,37.61zm3001.35 -641.72l29.02 -100.94c36,-92.2 70.58,-190.55 134.34,-267.72 26.21,-31.7 40.02,-51.69 74,-80.31l62.27 -47.39c31.52,-19.84 87.66,-42.19 124.63,-54.07l145.41 -33.28c26.94,-4.17 56.99,-3.78 80.53,-8.84 43.06,-9.26 317.31,-12.28 362.81,-2.1 47.21,10.51 95.21,9.87 138.31,24.14 12.47,4.12 20.21,4.27 32.65,7.95 41.97,12.38 101.86,39.11 128.53,74.52 37.25,49.47 27.25,117.56 -2.99,164.89 -43.18,67.57 -119.51,107.56 -192.59,136.39 -57.42,22.67 -193.78,59.92 -256.02,68.91 -15.24,2.19 -30.69,3.23 -46.21,6.58l-95.09 14.57c-10.28,1.28 -35.69,2.44 -47.77,5.03l-479.24 64.98c-47.12,10.15 -94.97,12.65 -142.85,19.6 -18.77,2.71 -22.09,7.1 -49.74,7.1zm-4138.52 -564.52c0,12.99 5.24,21.36 13.13,27.5 25.17,19.48 55.86,11.61 82.47,7.19l600.6 -45.14c36.76,-5.52 77.6,2.11 114.36,-3.45 67.57,-10.18 262.6,-9.29 332.52,3.93l99.3 18.5c11.86,2.71 20.57,4.66 32.45,8.16 64.65,18.96 135.18,51.9 161.84,118.38 25.85,64.4 7.32,159.28 -59.24,190.46 -32.37,15.18 -244.95,39.89 -291.26,49.89 -7.52,1.65 -13.77,4.35 -19.1,5.27 -41.34,7.01 -78.58,7.07 -118.41,15.6 -17.83,3.81 -21.12,4.34 -41.76,7.02 -25.75,3.32 -49.77,8.83 -78.02,11.3 -52.18,4.63 -105.06,18.41 -155.35,23.35 -21.33,2.07 -21.28,0.18 -39.44,5.24l-356.81 57.45c-81.41,15.49 -170.52,37.31 -247.33,65.38l-50.38 18.65c-7.49,3.01 -9.26,2.96 -18.22,6.15l-32.19 12.5c-113.23,44.83 -248.86,124.9 -323.13,221.08 -58.71,75.98 -95.98,153.79 -116.01,249.53 -22.67,108.59 -3.5,222.06 72.38,305.88l15.61 16.85c55.5,53.34 117.8,81.9 188.38,112.16l128.05 38.49c34.49,6.74 67.26,16.73 104.78,21.09 23.59,2.74 47.45,10.27 73.91,11.4 55.5,2.37 98.29,12.46 154.32,12.22 56.75,-0.28 100.02,8.11 158.4,8.11l195.02 0.09c40.14,0.18 111.43,-8.35 166.42,-8.23 80.03,0.19 153.67,-3.74 223.96,-11.58 18.16,-2.01 36.96,0.82 55.25,-1.58l102.56 -11.19c28.68,-0.82 32.94,-5.37 53.34,-7.56l204.38 -31.21c17.89,-4.2 32.28,-5.33 47.37,-9.48 43.1,-11.89 92.87,-21.67 127.86,-46.78 29.99,-21.49 52.6,-46.21 66.32,-79.89l76.96 -247.94c6.86,-22.22 52.7,-156.57 53.28,-182.29l8.14 0c0,82.9 13.71,163.74 43.43,240.84 5.67,14.73 8.81,20.33 15.36,33.41 20.91,41.84 44.59,80.73 75.9,114.99l46.87 46.54c11.16,9.99 13.9,13.49 26.09,22.62l87.08 55.07c100.23,57.02 217.28,82.11 328.28,102.23 50.81,9.2 223.83,21.95 270.46,21.95l146.24 0c69.61,0 324.77,-7.62 398.68,-15.54 23.65,-2.54 40.84,-4.82 64.34,-4.73 34.9,0.15 146.11,-18.68 177.62,-29.51 52.46,-17.98 94.64,-38.31 119.6,-87.5 6.04,-11.86 16,-34.93 19.05,-49.99 7.77,-38.44 21.64,-78.91 24.85,-117.34l63.33 74.76c2.23,2.23 4.09,3.78 6.35,5.82 14.11,12.81 22.13,23.32 38.31,34.81l13.9 10.49c101.43,85.15 262.51,130.66 387.53,156.65 106.92,22.22 283.6,30.21 392.19,30.21l430.5 -4.09c14.63,0 30.33,0.58 44.81,0.15 20.05,-0.61 20.3,-3.75 40.35,-4.33 27.25,-0.82 58.58,2.07 85.22,-0.1 26.27,-2.13 51.33,-8.22 81.38,-7.95 47.79,0.49 113.71,-11 151.81,-22.83 33.56,-10.39 61.56,-25.7 86.1,-47.91l18.1 -22.49c32.83,-46.85 62.27,-169.13 82.27,-226.43 27.57,-79.06 -18.96,-77.35 -74.22,-74.24 -20.51,1.16 -34.35,-0.61 -54.55,2.32 -47.37,6.85 -173.84,13.74 -221.79,13.77l-393.93 16.24c-24.41,0.07 -29.47,4.09 -52.51,4.39 -123.52,1.52 -249.06,-3.5 -370.01,-20.2 -83.6,-11.52 -166.41,-35.14 -229.4,-91.44l-31.1 -37.95c-7.92,-12.8 -14.26,-23.4 -19.48,-37.36 -5.57,-14.9 -9.23,-26.73 -12.18,-44.71l-8.11 -93.41 651.41 -83.7c20.82,-3.81 45.33,-3.96 66.81,-6.28 8.96,-0.98 19.96,-4.2 30.66,-5.91l131.43 -14.78c8.75,-1.25 19.9,-5.34 30.02,-6.53 21.75,-2.5 45.75,-2.37 66.83,-6.24l97.41 -16.34c11.94,-2.5 20.58,-1.68 32.4,-4.15 76.44,-16.06 161.08,-29.5 235.63,-56.8 12.98,-4.76 14.02,-4.24 28.13,-8.41 9.42,-2.8 19.11,-6.71 27.22,-9.33 15.75,-5.12 11,-4.76 26.76,-9.78 85,-27.25 174.88,-70.25 247.97,-121.61l11.73 -8.59c5.4,-3.72 6.56,-4.27 12.07,-8.23l115.94 -103.35c12.68,-12.59 24.87,-33.89 35.48,-41.69 -2.54,30.5 -44.53,151.38 -55.65,192.1 -29.69,108.9 -67.54,216.03 -97.47,324.9l-75.16 249.74c-24.26,90.76 -55.26,176.1 -78.73,266.5 -7.59,29.23 -36.02,85.09 -22.92,112.71 11.31,23.8 38.8,35.91 65.96,35.91l430.5 0c38.06,0 78.2,-23.69 93.48,-56.78 8.75,-18.96 10.97,-32.76 18.14,-54.98 3.68,-11.52 4.51,-15.67 8.22,-28.31l212.25 -738.13c6.28,-20.42 9.51,-36.64 15.73,-57.36l17.68 -59.49c2.89,-10.09 5.12,-19.11 8.16,-28.38l15.85 -57.27c3.87,-16.16 5.09,-15.51 9.32,-31.27l68.79 -235.84c11.79,-34.04 35.26,-66.2 57.45,-92.78 5.79,-6.92 11.79,-12.43 18.38,-18.19l6.56 -5.61c34.1,-27.52 75.25,-47.82 117,-61.71 53.46,-17.8 141.85,-33.44 198.05,-33.44l369.58 0c85.07,0 154.56,8.11 239.62,8.11 33.01,0 65.95,-32.61 78.42,-59.65l59.65 -179.97c0,-58.71 -34.01,-98.81 -79.33,-123.71 -67.02,-36.82 -215.82,-26.09 -271.04,-33.56 -72.58,-9.85 -325.48,-7.2 -393.93,1.83 -27.28,3.63 -61.29,3.1 -87.9,5.51l-230.63 41.48c-45.97,10.67 -97.78,26.94 -141.27,45.57l-31.97 12.71c-103.79,45.14 -203.57,102.83 -285.22,181.81l-19.02 17.55c-4.3,4.14 -5.82,5.91 -9.91,10.42l-54.62 63.12c-12.4,16.24 -48.27,73.82 -60.29,81.87 0,-56.7 1.92,-93.91 -14.78,-147.67 -6.98,-22.41 -15.72,-37.46 -26,-55.23 -74.14,-128.5 -256.47,-193.68 -392.58,-220.69l-407.34 -43.46c-88.58,0 -182.39,-6.18 -269.73,6.43 -40.36,5.82 -79.73,1.65 -117.95,7.95 -49.93,8.2 -99.15,9.67 -147.92,22.64 -37.39,9.97 -97.5,18.01 -139.62,30.97 -12.89,3.96 -23.23,5.69 -35.57,9.11 -11.89,3.29 -19.63,6.58 -33.86,10.82 -12.86,3.84 -21.4,6.18 -33.96,10.69l-210.03 90.52c-69.89,39.9 -137.57,81.77 -199.78,133.25l-157.63 155.1c-8.36,10.7 -11.83,12.95 -20.36,24.29 -7.38,9.88 -12.16,16.37 -19.11,25.6l-159.29 271.2 -74.03 206.21c-3.99,12.16 -1.24,0.46 -5.27,15.03 -3.68,13.35 -5.48,22.83 -9.04,35.6 -12.68,45.16 -23.99,97.22 -27.83,142.76 -7.62,90.64 -14.29,127.13 -1.22,220.33 6.39,45.62 11.43,99.14 33.58,141.03 -55.38,0 -187.78,-5.55 -237.94,1.67 -51.91,7.47 -336.21,18.65 -383.42,18.65l-69.06 0c-67.66,0 -123.89,-10.55 -186.86,-12.16 -29.17,-0.73 -135.69,-24.17 -167.6,-35.44 -52.75,-18.6 -94.05,-37.56 -129.92,-73.15l-31 -42.09c-13.2,-28.22 -16.67,-48.52 -24.29,-77.26 -10.39,-39.25 -4.54,-91.92 -4.54,-133.55 0,-35.48 32.33,-178.82 46.17,-221.89 66.84,-208.19 147.54,-361.37 338.89,-477.44 46.63,-28.28 96.55,-53.16 149.58,-69.73l100.16 -29.78c7.65,-1.65 17.12,-2.16 24.93,-3.5 48.55,-8.35 92.22,-21.75 144.34,-22.16 39.05,-0.33 61.72,-8.08 101.62,-8.08 116.61,0 229.01,2.44 345.44,11.98 17.06,1.4 34.32,-1.04 51.57,1.22 14.38,1.92 31.09,6.8 49.61,7.25 42.01,0.98 68.74,7.98 109.79,7.98 33.44,0 48.73,-42.24 48.73,-69.03l-15.18 -70.13c-7.28,-47.31 -7.9,-109.91 -28.83,-149.86 -32.4,-61.75 -94.88,-84.92 -163.33,-100.65l-422.19 -12.4 -309.41 31.73c-23.29,3.14 -25.94,6.28 -47.7,9.15l-265.44 75.7c-132.15,50.66 -255.07,119.9 -362.11,210.58l-28.84 23.93c-36.18,30.47 -67.84,64.85 -98.14,100.88l-110.82 145.05c0,-91.15 23.77,-136.87 -11.06,-244.8 -11.86,-36.72 -30.81,-77.5 -55.14,-107.31 -70.34,-86.19 -166.31,-140.59 -270.89,-175.86 -9.78,-3.29 -19.44,-5.94 -30.93,-9.66 -13.53,-4.42 -17.34,-4.73 -32.22,-8.41l-100 -21.82c-18.11,-2.44 -18.17,-3.08 -34.14,-6.5l-71.35 -9.88c-172.35,-17.61 -341.75,-12.77 -515.2,-12.77 -80.59,0 -147.27,8.17 -223.37,8.11 -25.67,0 -51.72,-0.45 -77.32,-0.15 -54.98,0.67 -231.15,14.84 -284.27,24.39l-61.96 15.21c-87.97,31.31 -125.54,64.64 -157.28,151.39l-28.41 85.33c-3.74,12.59 -6.21,16.18 -10.42,30.18 -4.12,13.56 -17.97,49.89 -17.97,59.19z"/>
 </g>
</svg>
