<?xml version="1.0" encoding="UTF-8"?>
<!DOCTYPE svg PUBLIC "-//W3C//DTD SVG 1.1//EN" "http://www.w3.org/Graphics/SVG/1.1/DTD/svg11.dtd">
<!-- Creator: CorelDRAW 2020 (64-Bit) -->
<svg xmlns="http://www.w3.org/2000/svg" xml:space="preserve" width="53.4817mm" height="47.9753mm" version="1.1" style="shape-rendering:geometricPrecision; text-rendering:geometricPrecision; image-rendering:optimizeQuality; fill-rule:evenodd; clip-rule:evenodd"
viewBox="0 0 4880.73 4378.22"
 xmlns:xlink="http://www.w3.org/1999/xlink"
 xmlns:xodm="http://www.corel.com/coreldraw/odm/2003">
 <defs>
  <style type="text/css">
   <![CDATA[
    .fil0 {fill:red}
   ]]>
  </style>
 </defs>
 <g id="Слой_x0020_1">
  <metadata id="CorelCorpID_0Corel-Layer"/>
  <path class="fil0" d="M2396.9 1036.93c-190.04,-153.08 -350.24,-375.84 -776.61,-368.89 -339,5.52 -635.4,210.7 -634.73,547.69 1.33,668.84 1206.13,1025.86 1390.89,928.98 -33.61,-65.41 8.63,-14.29 -51.25,-52.77l-213.59 -87.78c-904.21,-410.9 -670.6,-1096.37 -172.4,-1007.68 313.69,55.82 342.02,312.56 482.77,377.73 73.33,-49.12 65.29,-76.23 149.56,-158.62 53.77,-52.58 100.24,-114.01 170.04,-156.33 530.1,-321.2 826.5,456.19 394.72,922.42 -146.33,157.98 -477.59,465.14 -814.37,444.07 -508.79,-31.85 -1419.32,-379.22 -1707.01,-805.99 -647.1,-959.89 626.81,-1648.66 1588.46,-1064.16 390.8,237.54 71.59,131.17 625.98,-86.62 545.11,-214.11 1171.31,-129.3 1459.23,333.23 217.51,349.42 47.21,765.75 -134.1,1019.7 -127.24,178.23 -331.89,374.77 -499.11,504.39 -82.64,64.06 -151.96,91.26 -177.31,169.87 161.83,84.12 841.74,-369.77 1009.86,-590.72 1000.72,-1315.19 -366.04,-2200.11 -1510.45,-1814.48 -324.76,109.43 -454.19,246.15 -580.59,280.71 -181.41,-112.12 -295.53,-197.68 -538.34,-272.53 -649.32,-200.15 -1494.71,-119.38 -1771.43,483.83 -213.04,464.39 -1.41,872.6 269.54,1221.11 363.51,467.56 1669.68,1046.09 2295.9,822.53 440.26,-157.19 734.27,-396.72 939.27,-690.48 604.19,-865.81 -112.83,-1615.84 -942.47,-1069.55 -86.03,56.64 -169.42,146.1 -252.47,170.34z"/>
  <path class="fil0" d="M773.35 3784.24c-13.93,173.31 -75.71,509.34 95.01,593.97 57.46,-84.98 44.52,-405.62 63.44,-538.08 21.85,-152.85 106.59,-391.7 58.79,-510.04 -267.45,-32.25 -383.36,508.77 -531.27,720.09l-26.57 32.89c-7.77,-278.58 107.18,-657.54 82.52,-855.78 -136.95,13.67 -163.87,155.18 -209.04,364.23 -33.03,152.83 -62.8,390.95 -27.64,548.04 44.3,197.84 211.13,293.07 303.64,78.12l123.01 -326.49c9.68,-21.76 15.02,-33.7 27.73,-53.99 3.76,-6.02 8.71,-12.37 12.37,-17.76l28 -35.21z"/>
  <path class="fil0" d="M3331.05 3322.99c57.78,-112.62 83.39,-244.51 234.97,-241.11 87.87,200.62 -57.72,447.06 -188.09,510.54 -43.09,-96.95 24.14,-126.9 43.48,-242.75 -55.27,-27.64 -43.12,10.48 -90.36,-26.68zm-255.24 848.82c147.38,16.18 148,-134.46 181.47,-472.82 99.46,20.41 164.64,61.99 265.12,-24.82 229.06,-197.9 372.26,-846.22 -117.79,-656.49 18.05,-86.72 43.26,-64.92 -5.38,-137.67 -173.5,5.13 -152.81,183.47 -238.16,581.65 -38.61,180.16 -168.63,571.36 -85.26,710.15z"/>
  <path class="fil0" d="M2067.13 3645.44c-51.95,-169.42 116.66,-410.1 -179.52,-398.41 -68.46,85.82 -451.04,655.36 -217.39,784.7 124.29,-76.31 63.56,-324.88 224.87,-577.68 38.02,74.04 3.32,339.28 41.87,452.57 150.98,-8.02 189.73,-132.41 275.81,-288.26l72.94 -110.42c2.78,-3.47 8.51,-10.24 13.19,-14.97 -11.62,197.27 -29.69,392.23 160.17,418.01 25.33,-122.79 -14.02,-217.69 -16.03,-360.04 -2.18,-153.53 33.77,-239.91 -71.2,-321.55 -150.16,31.15 -216.46,284.84 -304.72,416.06z"/>
  <path class="fil0" d="M3956.62 3316.3c106.14,332.58 352.55,328.28 394.57,253.69 24.19,-42.97 -184.66,-65.09 -263.17,-295.62 65.66,-69.73 105.37,-73.67 167.93,-145.45 93.71,-107.51 120.84,-166.62 62.07,-223.92 -113.53,-110.69 -113.58,105.56 -343.28,248.08 35.86,-157.3 133.43,-459.71 128.41,-605.28 -202.06,-4.93 -177.56,165.31 -300.52,627.58 -25.93,97.49 -117.94,325 -26.97,401.03 113.38,94.76 110.88,-118.52 148.68,-205.13 16.53,-37.87 15.35,-33.49 32.29,-54.98z"/>
  <path class="fil0" d="M1357.18 3713.85l-154.57 42.7 71.78 -375.01c-219.32,-41.19 -198.04,181 -230.68,371.47 -33.04,192.85 -116.43,391.29 87.6,426.37l41.5 -271.74 166.44 -59.63c-6.09,142.63 -37.33,269.52 30.28,357.84 64.33,-34.51 25.32,33.31 66.35,-86.32 11,-32.04 21.77,-108.36 28.98,-146.04 37.91,-198.23 21.74,-116.16 133.75,-222.17 -40.19,-72.99 -82.47,-26.65 -19.55,-239.16 27.71,-93.56 66.58,-182.02 56.64,-278.6 -221.65,-57.44 -175.22,138.26 -278.53,480.28z"/>
  <path class="fil0" d="M2647.49 3669.61c-48.56,-107.21 123.16,-543.84 285.92,-405.49 -10.95,63.56 -229.3,368.21 -285.92,405.49zm263.3 -110.88c-16.63,131.4 -42.5,295.04 81.91,333.33 49.44,-84.46 105.11,-551.38 146.42,-693 -66.39,-60.17 -60.58,-13.64 -127.22,-84 -3.26,-3.45 -23.94,-34.38 -29.38,-40.82 -271.95,-23.13 -419.42,201.76 -461.63,453.29 -36.89,219.86 90.07,413.95 275.74,147.3 40.22,-57.75 50.54,-93.31 114.15,-116.1z"/>
  <path class="fil0" d="M4449.18 3355.93c-9.41,-72.82 -16.04,-107.74 -1.67,-182.8 26.55,-138.62 46.52,-84.25 76.48,-104.29 121,-80.95 35.61,-104.08 191.23,-181.78 -20.83,194.68 -96.39,431.23 -266.03,468.87zm151.88 -616.12c-282.46,125.84 -439.36,901.29 -7.48,702.33 107.68,-49.62 212.06,-230.64 256.59,-395.79 96.82,-359.02 -62.3,-304.97 -119.46,-307.86 -43.69,-2.22 -101.79,-11.08 -129.64,1.32z"/>
 </g>
</svg>
