<?xml version="1.0" encoding="UTF-8"?>
<!DOCTYPE svg PUBLIC "-//W3C//DTD SVG 1.1//EN" "http://www.w3.org/Graphics/SVG/1.1/DTD/svg11.dtd">
<!-- Creator: CorelDRAW 2020 (64-Bit) -->
<svg xmlns="http://www.w3.org/2000/svg" xml:space="preserve" width="123.444mm" height="55.5683mm" version="1.1" style="shape-rendering:geometricPrecision; text-rendering:geometricPrecision; image-rendering:optimizeQuality; fill-rule:evenodd; clip-rule:evenodd"
viewBox="0 0 18704.03 8419.6"
 xmlns:xlink="http://www.w3.org/1999/xlink"
 xmlns:xodm="http://www.corel.com/coreldraw/odm/2003">
 <defs>
  <style type="text/css">
   <![CDATA[
    .fil0 {fill:white;fill-rule:nonzero}
   ]]>
  </style>
 </defs>
 <g id="Слой_x0020_1">
  <metadata id="CorelCorpID_0Corel-Layer"/>
  <g id="_3092529817904">
   <g>
    <path class="fil0" d="M9147.92 5055.61l473.45 0c239.46,0 413.58,125.17 413.58,342.86 0,125.17 -59.86,228.55 -163.25,282.96l0 5.45c146.91,43.55 217.67,179.59 217.67,315.64 0,266.67 -212.26,386.39 -457.15,386.39l-484.31 0 0 -1333.3zm478.9 544.19c103.38,0 163.25,-76.17 163.25,-168.72 0,-92.53 -59.86,-163.26 -168.7,-163.26l-228.57 0 0 337.4 234.02 0.03 0 -5.45zm21.74 576.84c125.17,0 195.93,-81.62 195.93,-195.91 0,-108.84 -70.76,-190.47 -195.93,-190.47l-261.22 0 0 386.39 261.22 0zm1104.75 -772.73c130.59,0 277.55,43.53 370.05,141.5l-108.84 163.25c-59.88,-59.86 -152.38,-103.38 -250.34,-103.38 -174.14,0 -288.43,130.59 -288.43,293.88 0,163.26 114.29,299.31 299.29,299.31 103.4,0 212.26,-54.43 282.98,-119.71l92.5 168.72c-92.5,97.96 -239.46,157.79 -391.8,157.79 -315.64,0 -522.43,-223.13 -522.43,-500.65 0.03,-272.16 201.37,-500.71 517.01,-500.71zm968.66 0c272.1,0 424.48,201.34 424.48,451.68 0,32.67 -5.45,59.88 -5.45,92.5l-658.45 0c16.33,168.72 141.5,255.76 288.43,255.76 97.96,0 195.91,-43.55 272.1,-103.38l92.5 168.72c-97.96,87.08 -250.34,136.05 -386.39,136.05 -315.64,0 -516.98,-228.55 -516.98,-500.65 0,-293.91 201.34,-500.68 489.77,-500.68zm-272.1 -348.31l185.05 0 0 217.69 -185.05 0 0 -217.69zm457.15 734.65c0,-125.17 -87.09,-201.34 -190.47,-201.34 -119.71,0 -206.79,81.62 -228.55,201.34l419.02 0zm-114.29 -734.65l179.58 0 0 217.69 -179.58 0 0 -217.69zm1023.07 375.51l870.74 0 0 957.79 -239.47 0 0 -756.44 -391.8 0 0 756.44 -239.47 0 0 -957.79zm1126.49 0l217.69 0 0 70.76c0,38.09 -5.45,65.29 -5.45,65.29l5.45 0c59.86,-103.38 179.58,-163.25 310.17,-163.25 261.22,0 424.48,206.79 424.48,500.65 0,304.75 -185.05,500.63 -435.36,500.63 -108.84,0 -206.79,-48.96 -277.55,-136.03l-5.41 0c0,0 5.45,32.65 5.45,81.62l0 402.72 -239.47 0 0 -1322.39zm468.02 778.2c130.59,0 239.46,-108.84 239.46,-293.88 0,-179.58 -97.96,-299.29 -234,-299.29 -125.17,0 -239.46,92.5 -239.46,304.76 -5.42,141.49 81.62,288.41 234,288.41zm1148.25 -805.39c293.87,0 527.89,206.79 527.89,500.65 0,293.87 -234.02,500.63 -527.89,500.63 -293.88,0 -527.89,-206.79 -527.89,-500.63 0.03,-288.43 234.03,-500.65 527.89,-500.65zm0 799.94c157.79,0 282.96,-119.71 282.96,-299.29 0,-174.14 -130.59,-299.31 -282.96,-299.31 -152.38,0 -282.98,119.71 -282.98,299.31 0,179.58 125.17,299.29 282.98,299.29zm718.35 -772.74l228.55 0 0 750.98 299.34 0 0 -756.44 228.55 0 0 756.44 299.31 0 0 -756.44 228.55 0 0 756.44 136.08 0 0 429.93 -212.25 -0.03 0 -223.13 -1197.25 0.03 0 -957.79 -10.88 0zm2002.64 -27.2c272.1,0 424.48,201.34 424.48,451.68 0,32.67 -5.45,59.88 -5.45,92.5l-658.45 0c16.33,168.72 141.5,255.76 288.43,255.76 97.96,0 195.93,-43.55 272.1,-103.38l92.5 168.72c-97.96,87.08 -250.34,136.05 -386.39,136.05 -315.63,0 -516.98,-228.55 -516.98,-500.65 0,-293.91 201.35,-500.68 489.77,-500.68zm185.05 386.34c0,-125.17 -87.08,-201.34 -190.46,-201.34 -119.71,0 -206.81,81.62 -228.57,201.34l419.02 0z"/>
   </g>
   <g>
    <path class="fil0" d="M13245.73 1229.92l0 2748.2c0,43.55 -32.67,76.17 -76.17,76.17l-560.53 0c-43.53,0 -76.17,-32.67 -76.17,-76.17l-0.03 -2748.2c0,-43.55 32.67,-76.18 76.17,-76.18l560.56 -0.03c43.5,5.45 76.17,38.12 76.17,76.21zm4375.36 -70.76l-625.82 0c-32.67,0 -59.88,21.76 -70.76,54.43l-495.22 1627.14 -544.19 -1627.14c-10.86,-32.67 -38.08,-48.97 -70.74,-48.97l-440.81 0c-32.67,0 -59.86,21.76 -70.74,48.97l-544.19 1627.14 -495.22 -1627.14c-10.88,-32.67 -38.09,-54.43 -70.74,-54.43l-625.82 0c-21.76,0 -48.97,10.88 -59.88,32.67 -16.33,21.76 -16.33,43.55 -10.88,65.29l925.15 2753.63c10.88,32.67 38.09,48.97 70.74,48.97l500.65 0.03c32.67,0 59.88,-21.74 70.76,-48.96l538.77 -1605.39 538.77 1605.39c10.86,32.67 38.08,48.96 70.74,48.96l500.62 0c32.65,0 59.86,-21.74 70.74,-48.96l925.15 -2753.63c5.45,-21.76 5.45,-48.97 -10.88,-65.3 -27.21,-21.82 -49,-32.7 -76.2,-32.7zm946.9 0l-560.51 0c-43.55,0 -76.18,32.67 -76.18,76.17l0 2748.22c0,43.53 32.67,76.17 76.18,76.17l560.51 0.03c43.55,0 76.17,-32.67 76.17,-76.17l0 -2753.66c0,-38.09 -38.08,-70.76 -76.17,-70.76zm-6361.67 2802.63c32.67,38.09 5.45,92.5 -43.53,92.5l-685.7 0c-27.21,0 -54.43,-10.88 -70.74,-32.67l-114.31 -141.5c-239.46,152.38 -522.43,244.88 -821.73,244.88 -838.08,0 -1518.3,-680.23 -1518.3,-1518.3 0,-838.06 680.23,-1518.29 1518.3,-1518.29 838.06,0 1518.3,680.23 1518.3,1518.29 0,299.31 -87.09,582.31 -239.47,821.74l457.18 533.34zm-1360.5 -609.51l-299.31 -364.6c-32.65,-38.09 -5.45,-97.97 43.55,-97.97l631.27 0c32.67,-87.08 48.97,-185.03 48.97,-282.96 0,-451.69 -337.4,-843.53 -799.99,-843.53 -462.55,0 -799.99,391.81 -799.99,843.53 0,451.72 337.39,838.06 799.99,838.06 136.08,5.42 261.22,-32.67 375.51,-92.53zm-4157.67 2307.41c21.74,163.25 -27.21,234 -81.64,234 -54.41,0 -130.58,-65.3 -212.25,-195.93 -81.62,-130.59 -114.29,-277.55 -70.76,-353.72 27.21,-48.96 81.64,-70.74 157.81,-43.55 136.08,48.97 190.5,261.22 206.84,359.19zm-772.74 359.17c168.72,141.5 217.67,310.17 130.59,424.46 -48.97,65.3 -130.59,97.97 -223.13,97.97 -92.52,0 -190.47,-32.67 -255.76,-92.5 -152.38,-130.59 -195.93,-348.31 -97.97,-468.02 38.09,-48.96 103.38,-76.17 174.14,-76.17 97.96,5.42 190.46,43.5 272.13,114.26zm-277.55 1360.47c718.36,0 1496.54,244.88 2356.38,1012.2 87.08,76.17 201.34,-16.33 125.17,-114.31 -848.96,-1072.07 -1632.61,-1273.4 -2410.79,-1447.54 -957.79,-212.25 -1447.56,-750.98 -1790.4,-1338.71 -70.76,-119.71 -97.96,-97.96 -103.38,54.41 -5.45,185.05 5.45,429.93 48.96,669.36l0 0c-38.08,0 -76.17,0 -114.29,0 -1365.92,0 -2476.08,-1110.16 -2476.08,-2476.08 0,-1365.92 1110.16,-2476.09 2476.08,-2476.09 1365.92,0 2476.08,1110.17 2476.08,2476.09 0,97.96 -5.45,195.91 -16.32,288.41 -179.59,-32.65 -538.77,-38.08 -789.08,-16.33 -92.5,5.47 -81.62,54.43 -10.88,65.3 816.27,146.93 1382.25,653.03 1507.42,1578.17 5.45,21.76 32.67,27.21 43.55,10.88 337.39,-560.51 527.89,-1218.99 527.89,-1921.02 0,-2067.93 -1676.14,-3744.07 -3744.09,-3744.07 -2067.93,0 -3744.07,1676.14 -3744.07,3744.07 0,2067.95 1676.14,3744.09 3744.07,3744.09 549.62,-5.42 1093.79,-108.84 1893.78,-108.84z"/>
   </g>
  </g>
 </g>
</svg>
