<?xml version="1.0" encoding="UTF-8"?>
<!DOCTYPE svg PUBLIC "-//W3C//DTD SVG 1.1//EN" "http://www.w3.org/Graphics/SVG/1.1/DTD/svg11.dtd">
<!-- Creator: CorelDRAW 2020 (64-Bit) -->
<svg xmlns="http://www.w3.org/2000/svg" xml:space="preserve" width="45.6279mm" height="16.3664mm" version="1.1" style="shape-rendering:geometricPrecision; text-rendering:geometricPrecision; image-rendering:optimizeQuality; fill-rule:evenodd; clip-rule:evenodd"
viewBox="0 0 180.8 64.85"
 xmlns:xlink="http://www.w3.org/1999/xlink"
 xmlns:xodm="http://www.corel.com/coreldraw/odm/2003">
 <defs>
  <style type="text/css">
   <![CDATA[
    .fil0 {fill:#FD0116}
   ]]>
  </style>
 </defs>
 <g id="Слой_x0020_1">
  <metadata id="CorelCorpID_0Corel-Layer"/>
  <path class="fil0" d="M141.42 29.7c0.64,-2.25 1.78,-4.39 2.95,-5.89 1.56,-1.99 2.59,-2.7 5.17,-2.22 0.38,5.31 -3.13,7.56 -8.12,8.11zm-39.28 -0.45c-0.46,-3.94 -1.48,-12 3.02,-12.1 1.88,3.18 -0.83,11.05 -3.02,12.1zm-102.15 -23.79l0 2.26c5.39,6.18 9.04,19.5 11.66,28.78l6.58 24.18c1.09,3.22 2.15,4.68 5.52,4.02 1.7,-4.17 -2.23,-22.92 -2.98,-28.93 -0.88,-7.04 -2.94,-24.93 0.47,-30.2 7.62,3.22 7.27,42.05 9.85,44.75 1.24,1.3 3.16,0.95 3.99,-0.69 0.74,-1.47 1.08,-22.6 3.21,-31.79 0.9,-3.88 1.84,-8.11 5.23,-8.72 5.08,7.35 -7.1,41.63 5.42,43.1 4.98,0.59 7.21,-5.36 8.21,-9.61 1.06,1.04 0.62,0.56 1.41,1.84 0.68,1.09 0.57,1.27 1.37,2.26 1.04,1.29 2.62,2.29 5.1,2.14 3.03,-0.18 4.62,-2.22 5.84,-4.45l1.15 -2.05c0.06,-0.1 0.17,-0.28 0.27,-0.41 13.65,13.62 11.06,-17.19 10.54,-25.85 15.68,3.1 -0.83,11.32 3.25,24.35 0.94,3.01 3.67,5.22 7.57,4.39 1.81,-0.39 3.32,-1.37 4.31,-2.3l2.29 -2.61c0.9,-0.85 -0.01,-0.22 1.18,-0.93 2.74,6.29 12.96,10.51 15.36,-3.71l0.94 1.81c1.1,2.7 2.52,10.23 8.49,7.88 3.04,-1.19 4.81,-5.84 5.53,-9.04 0.36,-1.59 0.38,-2.88 1.41,-4.07 2.8,0.9 2.3,0.14 2.02,3.17 -0.46,4.98 -0.37,10.99 5.13,13.28 7.55,3.14 11.43,-6.82 14.65,-9.77 -0.58,4.15 -3.88,9.86 -2.35,13.12 3.25,0.74 3.74,-0.87 4.97,-2.55 1.6,-2.2 9.56,-12.94 11.66,-11.2 0.01,0.01 1.88,0.19 -0.33,3.79 -0.78,1.26 -1.41,1.82 -2.14,3.32 -1.06,2.16 -2.4,6.01 -1.36,8.91 2.17,6.07 12.69,0.25 15.37,-1.62l0 -2.41c-3.53,-2.86 -5.36,2.01 -11.31,1.84 0.97,-6.17 8.76,-11.75 5.18,-17.31 -4.57,-7.09 -13.84,3.66 -15,4.44 0.29,-2.2 0.77,-4.24 1.1,-6.44 0.42,-2.85 1.09,-5.66 -0.68,-7.11 -3.86,-3.16 -11.22,21.05 -17.87,18.68 -2.73,-2.06 -3.28,-6.8 -1.52,-10.58 5.07,-0.11 7.89,-1.51 10.24,-4.23 2.1,-2.44 3.74,-7.2 1.42,-10.4 -2.31,-3.17 -6.8,-2.76 -9.75,-0.35 -2.19,1.79 -4.72,5.89 -5.64,9.5l-3.98 -1.15c-0.36,-3.88 0.23,-9.48 -2.49,-11.51 -3.74,-2.79 -7.04,1.12 -6.44,5.74 0.89,6.86 6.36,4.47 3.12,15.16 -1.33,4.41 -1.94,3.89 -3.38,4.42 -0.97,-3.67 -2.18,-7.81 -2.89,-12.05 -0.82,-4.93 0.11,-10.31 -5.66,-9.07 -3.19,4.57 0.99,15.9 -4.99,19.75 -3.65,-0.02 -4.25,-1.93 -5.58,-4.9 1.73,-2.88 6.54,-6.53 7.71,-14.1 2.35,-15.29 -17.84,-15.07 -15.04,7.09 0.48,3.78 2.24,6 0.53,8.46 -4.32,6.27 -9.38,6.59 -5.94,-5.33 0.72,-2.49 2.48,-6.66 2.83,-8.81 1.37,-8.41 -6.17,-9.02 -11.63,-11.2 -1.68,-2.27 -3.79,-12.76 -10.31,-6.91 -6.5,5.83 4.89,10.9 5.21,11.12 0.69,6.22 1.62,19.8 -0.46,24.87 -6.14,-6.08 -2.33,-12.36 -9.01,-10.17 -1.53,4.56 0.92,11.39 -4.11,14.04 -5.63,-5.4 -3.91,-21.05 0,-22.71 2.62,2.05 1.73,6.81 6.1,3.99 2.66,-6.01 -8.56,-16.9 -13.31,-2.36 -1.84,5.65 -0.51,13.6 -5.54,22.15 -1.39,2.36 -0.72,1.56 -2.32,1.96 -4.36,-7.83 2.72,-27.31 -0.14,-37.28 -1.67,-5.83 -8.37,-7.82 -11.8,-2.44 -1.71,2.68 -4.63,12.2 -4.56,15.82 -1.83,-7.71 -3.03,-24.61 -12.73,-22.33 -7.93,1.86 -5.08,21.6 -5.04,29.43 -2.38,-4.06 -6.92,-31.63 -15.14,-24.18z"/>
 </g>
</svg>
