<?xml version="1.0" encoding="UTF-8"?>
<!DOCTYPE svg PUBLIC "-//W3C//DTD SVG 1.1//EN" "http://www.w3.org/Graphics/SVG/1.1/DTD/svg11.dtd">
<!-- Creator: CorelDRAW 2020 (64-Bit) -->
<svg xmlns="http://www.w3.org/2000/svg" xml:space="preserve" width="56.0981mm" height="19.1384mm" version="1.1" style="shape-rendering:geometricPrecision; text-rendering:geometricPrecision; image-rendering:optimizeQuality; fill-rule:evenodd; clip-rule:evenodd"
viewBox="0 0 5381.97 1836.11"
 xmlns:xlink="http://www.w3.org/1999/xlink"
 xmlns:xodm="http://www.corel.com/coreldraw/odm/2003">
 <defs>
  <style type="text/css">
   <![CDATA[
    .fil0 {fill:#012966}
   ]]>
  </style>
 </defs>
 <g id="Слой_x0020_1">
  <metadata id="CorelCorpID_0Corel-Layer"/>
  <path class="fil0" d="M226.83 989.68l422.08 -2.25c74.07,0 135.23,-11.93 175.61,31.94 42.22,45.88 29.67,113.41 -11.78,145.93 -21.11,16.56 -90.79,24.45 -181.77,24.44l-630.97 -0.11 1.82 218.27 515.3 2.2c85.27,-0.04 170.53,0 255.78,0.02 73.82,0.01 183.39,-16.29 230.56,27.23 58.77,54.26 27.75,137.26 -27.27,162.4 -43.82,20.03 -696.87,13.62 -749.5,8.55l-0.93 -71.48 -224.12 0.32 0.48 295.05c144.11,2.98 937.23,11.47 1023.24,-12.29 322.52,-89.08 280.7,-540.15 31.14,-607.34 6.97,-69.33 28.82,-94.16 15.55,-175.12 -23.83,-145.41 -141.76,-265.8 -306.76,-272.7 -238.12,-9.94 -523.59,-5.55 -763.79,0.41l-0.4 293.96 223.85 -0.86 1.86 -68.55z"/>
  <path class="fil0" d="M1979.04 1352.74c29.57,-43.05 182.88,-253.75 212.27,-275.86 31.51,23.2 461.21,600.7 518.62,676.8 47.35,62.77 44.71,78.98 93.69,79.01l241.81 -0.17c-20.31,-42.07 -75.75,-108 -105.35,-146.29 -41.88,-54.2 -69.88,-92.03 -107.13,-140.7l-427.79 -564.37c-35.78,-47.18 -71.16,-91.53 -107.33,-140.67 -26.6,-36.18 -77.4,-111.87 -106.53,-133.98 -23.97,18.39 -831.37,1077.93 -853.87,1126.21l272.55 -1.6c34.19,-31.18 86.42,-108.86 115.99,-148.09 92.79,-123.12 65.59,-106.67 155.21,-106 174.74,1.31 355.72,3.59 530.05,-0.4 -14.86,-35.34 -58.04,-84.31 -82.18,-116.24 -119.85,-158.57 -47.43,-90.89 -350.02,-107.63z"/>
  <path class="fil0" d="M3336.2 281.89c116.01,3.19 237.04,-9.39 358.77,-7.08 281.89,5.35 633.87,65.73 857.21,210.28 278.83,180.46 296.32,427.83 79.05,692.91 -27.6,33.69 -147.6,152.17 -180.64,168.3 41.55,-12.72 226.58,-150.35 267.28,-182.43 86.72,-68.27 161.66,-137.59 228.35,-221.46 188.95,-237.62 140.95,-453.61 -64.46,-593.07 -331.09,-224.79 -1092.38,-185.63 -1505.77,-84.55l-39.8 17.12z"/>
  <polygon class="fil0" points="2839.57,987.35 4176.15,987.25 4177.57,765.9 2839.73,764.48 "/>
  <path class="fil0" d="M4090.97 85.51c278.5,17.41 861.58,-59.41 1050.01,276.01 83.43,148.52 27.39,268.46 11.89,375.43 33.79,-21.07 499.29,-573.84 -1.84,-703.81 -169.95,-44.08 -367.46,-35.79 -549.23,-22.63 -96.78,7 -436.96,45.42 -510.82,75.01z"/>
  <polygon class="fil0" points="3397.8,1832.67 3620.24,1832.06 3620.22,1114.5 3397.04,1114.54 "/>
 </g>
</svg>
