<?xml version="1.0" encoding="UTF-8"?>
<!DOCTYPE svg PUBLIC "-//W3C//DTD SVG 1.1//EN" "http://www.w3.org/Graphics/SVG/1.1/DTD/svg11.dtd">
<!-- Creator: CorelDRAW 2020 (64-Bit) -->
<svg xmlns="http://www.w3.org/2000/svg" xml:space="preserve" width="50.5983mm" height="36.9826mm" version="1.1" style="shape-rendering:geometricPrecision; text-rendering:geometricPrecision; image-rendering:optimizeQuality; fill-rule:evenodd; clip-rule:evenodd"
viewBox="0 0 8419.68 6153.99"
 xmlns:xlink="http://www.w3.org/1999/xlink"
 xmlns:xodm="http://www.corel.com/coreldraw/odm/2003">
 <defs>
  <style type="text/css">
   <![CDATA[
    .fil0 {fill:black}
    .fil4 {fill:#162026}
    .fil2 {fill:#8D743D}
    .fil1 {fill:red}
    .fil3 {fill:#FFFDFD}
   ]]>
  </style>
 </defs>
 <g id="Слой_x0020_1">
  <metadata id="CorelCorpID_0Corel-Layer"/>
  <g id="_2847834576368">
   <path class="fil0" d="M6228.34 6064.48c-71.1,-20.4 -146.57,-46.23 -219.55,-70.54 -71.24,-23.71 -154.24,-42.83 -229.34,-63.77 -458.47,-127.83 -1086.57,-205.02 -1561.27,-204.62 -512.12,0.42 -1287.12,101.64 -1782.95,268.47 -52.9,17.79 -177.53,64 -227.22,70.7l-252 -853.34c63.62,-9.47 183.81,-58.24 249.99,-80.24 587.03,-195.24 1401.21,-310.64 2012.19,-310.82 717.71,-0.2 1341.09,112.24 2012.14,310.81 86.81,25.69 164.47,56.43 250.5,82.89 -4.08,54.33 -238.11,832.63 -252.48,850.47zm1863.81 -735.18l189.1 364.74 -1870.7 1.02 149.36 -514.07c-28.45,-25.51 -160.41,-63.85 -211.65,-80.72 -11.1,-3.64 -22.95,-7.37 -35.78,-11.52 -47.39,-15.24 -28.64,-11.42 -39.39,-22.65l108.88 -81.1c26.66,-12.15 574.87,-9.98 590.3,-6.32 54.48,27.29 32.78,51.22 126.62,32.28l7.52 10.75c53.73,89.36 106.81,112.85 206.16,54.63 51.72,15.91 75.45,43.13 144.79,11.88 27.52,-12.4 37.56,-21.4 49.92,-45.48 7.54,-14.66 7.4,-18.69 13.1,-33.71 14.68,-38.69 0.53,-16.32 21.72,-30.35l747.86 0 -197.8 350.63zm-7975.2 -348.08l622.28 -2.61c7.69,102.29 95.63,101.76 194.69,98.66 44.58,-1.36 90.86,-2.76 129.61,-20.28 66.31,-29.99 41.73,-69.17 76.1,-78.31l830.96 -0.03c70.67,-0.2 69.76,-7.11 116.1,30.47 26.29,21.33 56.08,42.12 82.1,58.94 -6.29,5.79 -3.19,5.79 -14.48,11.48l-275.15 91.99 151.19 523.32 -1900.76 0.17 183.64 -363.27 -196.29 -350.51zm4881.56 -177.48c94.72,-95.6 169.83,-54.68 311.64,-44.46 186.55,13.45 191.16,-52.72 178.97,-220.1 26.32,8.99 52.07,16.06 87.78,18.19 23.46,96.1 27.96,77.54 105.12,108.81 -2.13,47.42 -17.46,98.79 -36.58,137.2 -23.08,46.36 -47.92,59.07 -89.91,85.76l-557.02 -85.4zm-107.63 -10.97c-39.69,-9.24 -103.35,-14.06 -150.61,-15.58 -49.17,-1.6 -60.37,-8.17 -158.05,-8.17l0 -15.82c103.7,-8.6 380.13,-178.58 461.12,-259.06 38.34,-38.12 89.79,-76.03 113.49,-108.11 23.01,-31.2 90.44,-94.83 98.09,-123.49 13.58,9.09 22.31,16.06 33.18,30.12 94.05,121.62 140.93,187.57 140.93,365.57 0,103.42 -269.42,-49.29 -432.21,50.55 -22.16,13.61 -34.4,23.98 -55.35,39.64 -22.23,16.59 -28.47,29.54 -50.59,44.35zm-1883.54 -134.54c0,-100.29 2.15,-164.69 56.94,-251.7 31.65,-50.27 61.84,-104.33 109.24,-136.08 12.48,18.64 19.9,21.22 33.16,38.07 71.74,91.11 135.78,146.47 222.03,221.13 15.76,13.66 27.81,22.71 44.15,34.99 81.59,61.44 189.88,119.01 283.77,159.43 17.27,7.44 37.29,15.26 50.99,20.25l54.43 24.69c-28.22,0 -59.57,-1.35 -87.36,-0.28 -35.06,1.31 -36.48,8.2 -78.84,8.2 -36.08,0 -127.8,8.74 -158.27,15.82 -36.53,-24.43 -58.19,-58.57 -100.06,-81.97 -47.29,-26.42 -71.65,-36.58 -139.99,-41 -52.73,-3.43 -290.19,66.05 -290.19,-11.56zm-241.4 -213.66c32.02,-96.2 50.79,-151.39 102.64,-225.97 40.95,-58.91 107.4,-134.9 154.59,-171.28l19.67 21.47c3.83,5.74 7.55,13.23 11.4,20.08l76.48 120.51c-80.89,92.02 -224.74,253.93 -191.03,462.55 16.24,100.49 131.49,96.5 233.8,81.5 86.25,-12.63 132.96,-32.13 209.73,11.78 6.44,3.69 18.77,10.63 24.16,14.44 36.87,26.06 7.44,-0.35 23.91,23.3l-550.58 88.94c-49.5,-25.01 -72.47,-43.7 -93.07,-89.81 92.25,-19.95 99.38,-84.78 74.12,-179.81 -23.01,-86.61 -57.19,-130.44 -95.81,-177.7zm2639.34 -399.37c14.29,7.72 86.75,78.41 96.58,99.48 -109.16,26.74 -118.46,67.83 -151.98,114.72 -23.91,-19.77 -34.84,-24.48 -48.41,-52.25l103.8 -161.94zm957.61 -51.75c0,-50.82 8.09,-79.12 55.4,-110.81 12.05,51.77 91.9,186 124.67,223.56 28.54,32.71 48.19,63.02 84.22,89.91 300.69,224.44 397.67,153.66 516.23,196.02 68.71,24.54 73.77,125.4 58.14,186.74 -16.99,66.73 -74.17,82.67 -120.59,124.72 -48.02,43.51 -124.52,122.17 -124.52,207.89l-577.72 0c-22.83,0 -175.49,134.54 -182.03,134.54l-553.99 -134.54c1.41,-1.23 3.63,-5.01 4.26,-3.66 8.2,17.49 63.65,-87.91 74.91,-115.02 17.69,-42.55 31.63,-105.15 31.63,-166.2 3.48,-11.52 127.1,-177.25 156.58,-199.57 120.94,-91.6 398.72,-83.17 448.02,-98.03 94.8,-28.64 144.45,-125.48 62.07,-210.83 -22.03,-22.83 -19.07,-27.71 -33.78,-53.28 -13.74,-23.91 -23.51,-31.02 -23.51,-71.44zm-3901.64 656.86c18.14,0 9.2,-2.68 31.67,-7.89 0,118.64 104.45,142.46 205.76,142.46 34.23,51.09 33.51,75.31 82.07,115.77 1.2,1 3.29,2.63 4.38,3.54 1.08,0.88 3.39,2.91 4.28,3.63 0.87,0.73 2.85,2.43 4.26,3.66 -88.46,7.37 -311.82,74.5 -408.37,98.14 -27.36,6.71 -47.36,13.51 -67.99,19.05 -93.29,25.14 -53.3,32.22 -229.22,-100.14 -11.75,-8.85 -11.18,-17.06 -30.43,-17.06l-918.03 0c0,-49.34 -12.51,-101.97 -33.03,-133.16 -101.92,-154.87 -254.06,-98.09 -211.51,-372.56 17.49,-112.9 37.92,-72 236.62,-72 80.59,0 171.79,-64.53 189.93,-142.46 94.92,0 216.94,-69.46 261.25,-142.36 76.71,-126.27 -9.68,-93.09 127.98,-56.94 69.11,18.17 118.43,25.69 188.5,9.35 -23.2,34.64 -150.13,141.69 -141.26,228.07 9.8,95.48 131.96,143.09 196.6,175.6 123.79,62.25 149.83,29.99 279.07,140.36 51.92,44.35 157.42,104.92 227.47,104.92zm-641.03 -1068.8c54.95,-1.46 117.61,10.77 182.03,8.85 58.94,-1.71 118.53,-6.84 175.7,-14.03 190.93,-23.95 178.53,-56.23 259.37,77.08 75.88,125.17 76.83,131.97 -7.14,238.01 -50.7,64.05 -126.65,108.44 -212.68,159.05 -286.61,168.62 57.26,277.94 221.66,313.85 152.26,33.25 154.84,89.22 244.83,126.85 74.88,31.32 60.04,14.58 95.5,94.37 18.14,40.84 42.17,99.11 22.03,143.92 -27.39,12.68 -153.74,-14.23 -189.62,-23.98 -58.34,-15.84 -47.92,-38.49 -77.89,-151.91 -68.29,17.97 -55.68,50.94 -149.71,7.52 -116.1,-53.63 -147.15,-118.79 -223.03,-148.76 -43.65,-17.21 -87.46,-31.83 -132.79,-49.32 -72.29,-27.86 -226.84,-80.57 -196.59,-167.83 30.04,-86.61 170.1,-164.51 166.09,-209.62 -31.97,-78.03 -100.59,-41.92 -177.93,-42.35 -55,-0.3 -135.24,-23.68 -169.75,-52.62 48.82,-131.26 83.33,-205.77 169.91,-309.08zm4044.08 600.78c123.74,3.94 242.46,-61.25 164.87,-187.54 -51.95,-84.52 -145.1,-148.8 -176.62,-226.86 -45.93,-113.74 -18.6,-235.51 31.95,-331.64 38.02,-72.3 57.58,-39.75 129.05,-19.12 162.92,47.03 294.88,12.88 447.99,-9.05 -49.04,169.5 -89.72,203.81 -71.47,413.96 -148.33,73.17 -172.13,-73.83 -300.17,-90.66 9.73,44.6 64.05,86.31 95.13,107.63 36.91,25.33 74.63,53.42 125.9,63.32 -44.93,191.53 40.2,211.08 75.11,273.78 31.93,57.38 -26.94,86.83 -78.19,96.06 -59.06,10.63 -120.01,2.21 -175.82,11.4 -292.95,48.22 -305.53,130.74 -438.37,312.57 -59.56,-3.01 -49.45,-34.61 -73.15,-128.53 -30.57,3.78 -99.68,51.15 -110.99,-7.24 6.26,-44.21 35.24,-53.18 26.96,-103.04l-93.17 -0.27c-61.24,-62.57 -27.09,-112.65 48.02,-142.99 110.71,-44.68 252.12,-35.38 372.97,-31.8zm-102.89 -537.05c0,49.29 10.9,96.71 24.66,133.62 15.79,42.4 32.08,64.28 60.27,98.01 16.12,19.34 16.21,24.19 35.71,43.43 56.11,55.4 100.96,100.47 100.96,168.13 -69.06,36.54 -194.26,24.16 -300.81,23.65 -142.19,-0.65 -48.27,61.09 -247.19,-132.54 106.48,-197.67 137.13,-346.82 179.45,-560.39 4.48,-22.6 11.98,-78.64 12.41,-98.39l31.65 0c6.41,17.69 4.64,12.15 16.74,22.83 75.06,66.38 141.58,48.14 186.42,-41.25 12.16,-24.28 17.37,-32.6 23.36,-63.72 19.64,-101.97 0.33,-62.77 90.04,-107.8 27.49,-13.79 46.48,-23 71.24,-39.57 53.88,80.46 264.6,108.71 353.7,144.89 59.89,24.28 73.65,18.14 73.65,100.44 -40.74,3.41 -88.61,17.26 -133.72,24.56 -105.67,17.12 -231.9,24.19 -333.32,-16.52 -42.83,-17.19 -34.45,-15.94 -86.95,-15.94 -93.97,0 -158.28,208.65 -158.28,316.56zm-3181.45 -403.63c-48.87,0 -118.71,34.98 -118.71,110.81 0,52.17 -3.91,118.91 21.83,160.2 52.95,84.92 138.65,32.95 216.59,6.99 29.69,-9.88 99.99,-38.44 125.63,-40.57 27.57,118.38 28.35,143.94 68.26,264.15 8.27,24.94 11.98,35.19 21.27,57.86 34.03,83.25 28.47,85.51 76.66,176.59 -35.61,53.18 -171.39,152.54 -238.54,307.54 -13.89,32.05 -42.9,93.93 -46.36,135.63 -63.62,-5.29 -60.35,-76.38 -264.45,-123.32 -35.38,-8.17 -265.79,-72.57 -265.79,-122.01 0,-50.25 124.15,-88.24 192.09,-140.28 12.38,-9.48 20.17,-13.46 31.57,-23.86 11.25,-10.28 11.33,-12.68 24.81,-22.65 57.56,-42.68 139.31,-138.7 139.31,-224.74 0,-3.99 -82.02,-276.99 -229.5,-276.99l-216.81 28.52c-38.64,6.96 -77.56,-0.8 -115.08,3.64 -121.96,14.41 -41.43,1.06 -111.31,-0.52 1.41,-1.23 3.61,-5.03 4.24,-3.68 0.62,1.33 3.36,-2.95 4.23,-3.68 40.9,-34.5 45.49,-31.95 99.53,-58.77 32.23,-16.01 97.08,-32.02 137.55,-36.56 182.94,-20.47 242.68,-74.08 360.71,-161.61 83.42,-61.85 218.47,-279.31 232.65,-289.69 0,87.89 24.19,227.57 -58.66,273.8 -33.28,18.57 -51.37,3.19 -91.72,3.19zm4879.83 -213.68c-2.2,-77.29 47.21,-242.8 121.86,-308.28 39.5,65.98 39.57,164.97 87.05,222.01 45.28,4.74 77.83,-19.62 118.05,-32.25l64.76 291.62c1.11,5.18 2.76,13.94 4.81,18.89 20.37,49.29 85.63,-40.25 201.03,-26.89 5.59,90.64 -99.41,231.95 -142.24,278.97 -153.02,167.97 -134.09,373.51 -372.09,466.99 -93.1,36.54 -252.32,21.53 -329.31,-32.56l27.17 -129.13c80.32,41.95 152.37,87.41 272.58,53.12 277.91,-79.26 315.3,-551.12 -42.62,-551.12 -49.9,0 -80.11,13.43 -121.49,25.86 -0.7,-59.71 1.91,-138.38 47.16,-169.48 19.8,-13.63 39.09,-17.66 62.78,-24.14 38.31,-10.48 42.57,-7.62 59.32,-28.21 -18.59,-32.8 -24.98,-19.3 -58.82,-55.4zm-4535.76 -427.35c44.16,-211.23 189.45,-485.28 319.46,-650.05 85.01,-107.76 78.81,-83.43 152.06,-164.85 22,-24.46 21.78,-25.48 44.5,-42.37 125.35,-93.27 175.82,-143.69 348.53,-213.43 435.51,-175.85 877.11,-64.36 1217.87,227.34l77.89 80.11c13.15,13.5 26.27,23.78 40.27,38.54 192.01,202.86 417.22,679.39 423.66,938.39 -27.39,24.51 -55.43,54.08 -79.84,79.11 -54.86,56.34 -126.15,204.39 -44.16,266.23 6.59,4.96 15.68,8.92 25.09,13.83 52.62,27.46 7.24,48.14 42.72,100.26 14.89,21.88 32.12,22.86 52.27,35.16 9.07,5.54 10.3,7.87 14.94,11.91 -48.56,406.82 -201.86,764.79 -483.85,1047.22 -214.51,214.83 -467.37,358.65 -793.92,378.93 -289.36,17.99 -566.2,-81.54 -778.25,-244.38 -116.73,-89.64 -101.26,-91.79 -174.91,-157.47 -28.82,-25.74 -58.39,-59.16 -81.95,-92.07 -25.04,-34.96 -44.98,-55.28 -70.9,-95.45 -135.09,-209.25 -259.35,-455.96 -288.36,-720.04 86.95,-46.31 20.6,-225.79 37.92,-425.17 18.95,-218.1 88.13,-296.68 -1.03,-411.75zm5040.11 97.48c113.22,108.24 123.55,26.37 157.18,-87.83 16.32,-55.38 41.22,-249.94 61.79,-277.78 37.07,9.72 33.95,17.69 46.53,55.43 60.15,180.55 -43.16,192.23 -62.65,402.34 -7.6,82.1 27.41,94.2 60.9,134.82 -18.14,23.01 -63.67,42 -100.47,47.51 -131.01,19.64 -164.82,-195.94 -163.27,-274.5zm-671.6 2288.73c-6.61,10.05 -10.1,18.69 -17.36,29.7 -43.02,65.18 -102.35,3.46 -109.38,-21.43 -4.08,-14.44 5.32,-62.45 5.44,-85.85 -61.32,7.42 -74.55,55.5 -133.39,39.55 -54.26,-82.49 80.69,-191.41 113.19,-214.83 35.88,-25.86 69.91,-45.76 90.84,-83.23 65.81,-117.88 29.39,-277.36 -63.78,-316.93 -57.06,-24.24 -157.4,-23.63 -222.31,-38.57 -185.21,-42.62 -360.43,-186.45 -438.8,-353.14 -24.06,-51.2 -67.74,-130.23 -68.91,-193.71 -3.24,-178.48 86.8,-287.54 92.15,-432.65 65.3,31.3 133.52,131.99 188.33,150.89 -11.15,-47.84 -79.12,-131.94 -104.02,-162.43 -129.84,-159 -433.98,-164.16 -513.07,-244.59 15.26,-19.79 90.14,-65.56 116.85,-81.5l27.01 23.08c32.86,29.6 63.32,36.61 114.35,25.09 140.73,-31.77 50.9,-120.94 227.92,-230.48 9.82,-6.09 17.82,-9.32 29.79,-17.34l19.64 -16.66c0.95,-3.39 3.15,-3.89 4.76,-5.82 -71.2,4.91 -175.4,37.79 -202.74,81.1 -42.3,67.03 -28.4,140.56 -142.79,126.55 -9.75,-12.31 -10.17,-13.26 -21.43,-22.73 10.45,-28.31 40.6,-46.24 -2.2,-75.8 -37.81,3.94 -46.96,24.78 -75.86,46.33 -63.35,47.27 -141.84,102.7 -216.66,139.2 -55.13,26.91 -121.66,44.45 -148.33,89.59 -33.65,56.91 -6.19,123.2 -64.55,173.57 -63.43,1.28 -81.12,-43.6 -100.09,-88.78 -31.18,6.49 -31.27,15.77 -46.59,32.68 -143.84,3.26 -63.88,-72.2 -82.82,-149.85 -44.88,-3.41 -61.8,18.92 -91.01,-4.71 -13.68,-36.89 10.25,-96.15 29.35,-128.51 27.66,-46.93 132.12,-140.46 171.44,-161.21 51.07,-26.91 137.2,-42.7 237.36,-95.25 42.92,-22.51 62.93,-46.81 95.08,-71.2 95.8,-72.73 94.93,-65.05 178.47,-114.12 21.73,-12.78 12.91,-8.07 21.88,-19.97 -55.23,4.38 -175.02,54.7 -228.27,82.57 -29.22,15.33 -36.87,26.69 -61.47,37.04 -40.49,-149.55 -43.48,-231.18 28.14,-356.37l84.78 -6.01c39.77,199.4 343.32,-47.91 407.84,-45.39 11.98,89.62 18.62,247.57 115.57,244.73 82.49,-2.41 155.9,-108.96 183.66,-176.95 89.49,100.91 227.09,518.01 246.36,700.39 56.78,537.41 123.3,311.47 184.49,529.06 22.7,80.66 45.86,243.06 9.32,327.86l-6.44 9.92c-34.83,-34.43 -20.35,-44.15 -115.7,-138.3 -16.92,-16.71 -22.8,-22.9 -48.04,-25.86 -4.64,57.92 198.45,331.02 250.59,385.52l84.48 81.34c78.84,58.99 130.61,91.02 125.97,186.45 -10.72,220.8 -4.61,191.6 36.21,436.02 0.05,0.22 7.6,300.59 -112.12,248.14 -40.79,-17.87 -14.14,-40.05 -55.18,-69.34 -26.04,10.25 -9.72,-4.58 -27.94,23.11zm-6954.39 -2527.02c5.14,84.98 42.5,316.88 152.52,211.86 109.83,-104.83 126.25,-255.98 134.52,-267.69 49.4,100.61 -138.03,359.31 -208.75,494.22 -29.12,55.56 -58.12,138.78 -88.84,142.46 8.32,-61.77 28.11,-84.93 0.22,-150.44 -74.25,-174.46 -168,-194.29 -133.14,-395.62 100.04,-6.89 71.47,-12.75 143.47,-34.78zm5193.75 -9.57c55.66,0 77.09,8.32 134.6,7.85 51.68,-0.42 82.84,8 142.39,8 0,44.58 2.85,70.26 9.65,109.03 5.04,28.74 19.24,63.52 22,96.71 -38.41,20.32 -67.21,29 -113.77,44.51l-115.73 42.55c-12.25,-52.62 -20.87,-99.58 -34.76,-155.17 -12.86,-51.47 -38.19,-105.23 -44.38,-153.49zm-4879.2 2370.45c-10.73,-40.09 44.63,-308.06 44.63,-391.91 1.4,-314.12 -44.31,-244.91 120.64,-273.12 168.45,-28.79 271.12,-116.48 316.06,-302.34 74.38,-307.54 -22.45,-385.27 172.84,-650.23 89.06,-120.81 206.99,-164.8 357.18,-260.04 59.51,-37.71 57.58,-49.9 86.81,-118.99 109.36,-258.42 156.29,-354.09 72.37,-657.79 67.08,-3.76 72.77,1.95 106.7,-38.97 43.26,20.45 74.56,38.41 133.55,55.71 82.32,24.18 92.95,16.09 164.39,-4.68 40.69,58.54 169.55,136.38 236.61,181.59 83.68,56.39 163.36,107.63 246.29,165.14 110.56,76.66 206.56,115.8 193.54,218.27 -16.27,128.18 -45.28,223.58 -45.28,363.77l11.33 261.37c-7.34,21.4 -302.75,159.28 -333.95,106.4 -12.83,-21.77 -11.25,-138.05 -10.33,-140.08 32.7,-71.49 183.69,57.11 258.57,-142.31 13.94,-37.12 8.94,-152.34 11.5,-200.51 3.79,-71.6 20.35,-129.34 -28.17,-167.95 -53.17,-42.25 -375.19,-126.5 -474.25,-150.36 -116.23,-27.97 -107,-58.02 -154.52,-46.49 -50.07,87.33 181.26,117.48 253.2,137.15 102.6,28.06 208.77,63.32 307.35,93.73 -27.67,86.51 -162.44,272.08 -223.38,327.46 -257.47,234.16 -417.69,107.76 -629.8,280.27 -292.98,238.25 -216.19,562.86 -448.79,643.61 -82.52,28.65 -81.84,5.41 -149.06,-11 -77.99,-18.99 -100.47,8.2 -140.79,38.56 -48.39,8.45 -77.61,-5.89 -117.5,12.51 7.97,24.03 12.56,26.99 44.75,35.11 132.76,33.6 101.51,-48.86 223.1,-16.96 -7.32,44.51 -50.59,82.87 -96.63,93.32 -169.96,38.61 -322.2,-104.65 -342.76,200.66 -10.35,153.71 54.38,204.96 165.35,288.79 14.69,11.1 32.1,28.65 45.58,41.28 35.36,33.11 46.61,78.39 40.55,144.17 -6.11,66.56 -40.77,72.27 -104.88,75.93 -251.27,14.34 -125.37,-71.37 -110.69,-180.05l-202.11 -11.05zm4845.22 -2438.56c-10.27,-44.31 -54.48,-138.43 -75.46,-178.88 -27.57,-53.18 -66.14,-107.55 -87.64,-156.53l76.11 2.2c17.27,73.68 60.37,141.82 128.95,171.88 109.89,48.14 166.92,-25.71 204.49,-54.05 18.35,22.8 13.89,45.51 39.05,71.45 21.73,22.4 41.35,23.76 69.56,39.1 -17.56,43.46 -32.07,65.41 -38.54,123.69l-316.51 -18.85zm1906.06 577.85c-26.56,-19.39 -22.53,-21.5 -41.9,-52.92l-96.41 -156.52c-94.93,-163.67 -152.79,-329.36 -105.67,-532.12 39.57,-170.31 176.97,-301.17 350.23,-322.49 128,-15.77 175.27,30.15 276.28,56.49 125.3,32.7 210.77,-39.19 293.68,-25.94 34.64,5.54 90.34,30.98 123.37,44.21 67.74,27.12 72.98,15.01 144.12,23.18 0.68,41.62 -36.58,75.05 -41.72,131.59 -7.32,80.42 32.27,87.03 35.53,136.28 -68.14,41.27 -107.56,20.87 -171.19,-4.49 -67.14,-26.76 -46.81,-8.1 -53.13,-5.24 -15.24,52.42 -26.69,332.16 -84.43,417.82 -79.59,-60.17 -257.81,-256.69 -265.56,-377.68 -8.12,-126.75 130.34,-158.43 63.9,-225.77 -45.86,-46.48 -156.25,-75.1 -241.77,-73.97 -371.28,4.91 -425.07,562.19 -134.25,779.56l-51.07 188zm-7250.85 -878.67c85.96,-36.09 169.8,-40.6 254.15,-70.45 80.39,-28.45 143.42,-70.37 210.93,-105.88 190.88,-100.37 298.64,-134.84 462.23,3.15 132.17,111.51 203.63,263.66 197.09,447.16 -3.43,96.15 -22.73,185.54 -57.49,262.8 -16.64,36.99 -45.56,77.71 -19.3,127.36 17.16,32.45 59.36,50.65 80.66,74.96 20.28,47.69 -118.11,215.77 -155.79,303.75 -22.26,-21.93 -23.23,-57.18 -32.96,-104.75 -40.57,-198.4 -125.18,-12.98 -134.34,1.43 -67.21,105.8 -161.81,201.03 -200.51,321.77 -26.67,83.17 -6.97,202.16 60.27,260.02 75.23,64.76 170.3,50.29 279.62,29.97l-10.13 118.64c-81.62,-3.79 -154.27,-9.62 -226.56,-33.05 -237.04,-76.94 -257.24,-277.66 -159.43,-487.26 59.85,-128.25 126.33,-201.58 198.85,-299.64 189.58,-256.39 -14.76,-306.51 -28.84,-323.7 77.14,-58.67 71.49,-62.9 190.2,-47.76 121.31,15.49 137.75,-222.6 90.37,-359.61 -23.65,-68.42 -54.41,-109.23 -94.37,-150.83 -211.65,-220.53 -423.44,-97.79 -386.49,125.1 15.74,95 48.36,110.32 80.87,164.41 -94.12,1.9 -190.4,-28.84 -204.59,80.29 -6.87,53 -41.27,116.9 -69.82,160.79l-34.58 35.36c-66.03,-107.68 8.42,-237.34 -28.65,-263.18 -44.55,-19.09 -101.9,38.34 -137.45,58.67 -27.82,15.92 -47.16,20.6 -84.92,12.86 -34.33,-7.06 -57.19,-12.48 -76.55,-32.28 34.76,-21 149.63,-138.51 156.78,-202.31 -24.14,-61.45 -63.22,-71.45 -119.26,-107.8zm3453.12 -670.35c133.06,-87.83 426.82,-140.56 611.93,-140.06 181.96,0.48 481.57,56.39 609,142.67l17.69 144.12c-115.75,-48.34 -113.9,-67.63 -283.47,-123.45 -97.96,-32.28 -238.8,-51.63 -351.14,-50.99 -372.59,2.13 -524.3,142.24 -619.98,170.2l15.97 -142.49zm-1627.75 -44.93l-7.92 0 6.61 -9.22 1.31 9.22zm1588.88 -150.36c54.9,-37.21 221.71,-81.02 298.74,-98.43 227.87,-51.48 490.19,-50.85 716.45,3.36 146.57,35.13 222.51,75.98 293.97,94.18 -7.22,28.62 -16.62,40 -24.88,64.85 -6.84,20.58 -11.13,43.46 -16.09,61.24 -100.61,-30.09 -122.89,-54.43 -283.33,-94.63 -206.17,-51.65 -464.38,-52.6 -669.5,-2.4 -160.28,39.25 -167.65,57.51 -280.17,92.7l-35.18 -120.87zm-207.64 -153.82c37.42,-21.63 61.42,-8.24 90.37,16.06 3.81,47.56 -11.66,93.19 -68.67,73.53 -38.9,-13.4 -33.71,-56.26 -21.7,-89.59zm1626.5 16.17c41.67,-32.63 38.97,-33.25 92.52,-16.59l7.95 60.59c-42.63,58.27 -107.88,41.25 -100.47,-44zm175.97 -220.1c80.62,-30.88 134.85,102.04 44.4,135.78 -81.7,30.5 -149.01,-95.71 -44.4,-135.78zm-1928.64 2.03c84.62,-36.04 136.42,103.75 43.5,134.8 -42.52,14.23 -79.64,-13.13 -90.32,-45.08 -17.21,-51.47 11.55,-74.7 46.83,-89.72zm2662.37 -165.7c134.69,-0.2 116.02,13.71 230.57,-39.1 144.55,-66.64 230.45,28.37 468.79,-61.95 99.44,-37.69 134.25,-83.37 171.29,-92.65 68.56,276.13 33.71,193.63 178.57,346.48 81.45,85.95 102.4,253.05 184.97,321.31 57.97,47.94 125.3,107.93 238.42,103.65 -39.8,64.96 -156.62,84.37 -85.53,227.17 14.59,29.34 11.98,40.49 -5.64,61.09 -19.27,22.48 -23.96,24.71 -39.6,47.62 -42.27,61.82 -10.27,83.08 -2.26,148.56 -37.57,14.06 -108.69,35.11 -136.25,61.09 -47.34,44.63 -29.99,90.77 -30.72,157.92 -68.32,50.69 -117.56,6.16 -140.63,121.12 -7.32,36.56 -6.42,80.04 -7.99,116.63 -0.88,20.5 -1.81,41.8 -5.26,62.03 -17.09,100.26 -116.15,22.45 -131.61,-15.82 -7.04,-17.41 -13.74,-46.64 -20.12,-66.74 -12.26,-38.62 -8.49,-42.37 -28.11,-58.26 -62.93,56.31 -94.62,267.46 -205.77,268.59 -30.39,-35.51 -33.45,-100.06 -39.47,-150.63 -10.95,-91.85 -1.05,-87.34 11.47,-169.65 -41.23,10.65 -69.19,42.53 -100.32,65.11 -32.96,23.88 -52.98,36.94 -93.85,56.69 -281.85,136.37 -226.19,72.02 -202.43,-8.44 -156.78,11.73 -341.11,72.73 -282.38,-120.46 50.25,-165.34 341.06,-153.39 554.65,-175.02 229.42,-23.2 477.94,-62.32 543.55,-332.77 20.17,-83.13 70.14,-404.44 -21.3,-452.76 22.43,195.84 31.02,224.28 -33.51,436.79 -86.56,285.2 -403.96,274.15 -649.45,301.01 -82.54,9.04 -203.03,17.54 -278.94,36.82 -148.3,37.69 -137.88,136.15 -239.82,235.24 -114.93,111.72 -228.77,2.03 -228.77,-149.5 0,-415.07 622.48,-45.94 916.49,-429 75.31,-98.13 101.95,-192.79 82.79,-346.17 -86.7,25.03 -158.15,54.2 -256.88,66.21 -178.15,21.7 -176.72,69.31 -234.81,89.13 -17.34,-14.04 -88.06,-102.12 -94.83,-124.19 69.97,-47.22 190.4,-25.31 206.46,-118.35 26.59,-154.02 -183.51,-134.42 -267.99,-129.19 -38.06,-100.29 22.06,-66.91 18.99,-139.38 -2.33,-54.96 -40.82,-77.59 -34.33,-131.94 29.84,-17.07 55.45,-18.25 91.57,-18.3zm-599.08 -89.46c121.14,-49.01 188.8,139.74 69.89,184.49 -61.4,23.11 -112.79,-13.15 -129.31,-54.81 -20.72,-52.25 -3.79,-104.1 59.42,-129.68zm-2220.02 -2.08c125.03,-44.51 185.49,150.73 60.74,188.9 -123.62,37.81 -188,-143.64 -60.74,-188.9zm-1440.84 249.7c-3.99,-56.86 -74.33,-94.92 -58.61,-155.57 97.25,-6.42 143.52,39.74 226.44,50.55 -5.62,-13.26 -3.98,-8.19 -7.52,-15.03l-10.17 -19.47c37.37,-7.37 76.88,-22.43 121.07,-19 41.37,3.21 74.78,15.29 118.86,16.17 -11.93,55.46 4.96,65.55 33.45,100.04 24.89,30.14 44.26,43.93 73.13,69.59 27.54,24.44 46.26,44.45 72.73,69.54 68.51,64.96 117.36,125.57 218.47,216.77 25.59,23.11 45.44,43.91 73.08,69.22 67.86,62.13 44.08,122.85 3.88,131.94 -9.68,2.2 -162.87,-77.19 -126.75,62.23 3.15,12.16 7.34,19.17 9.78,30.97 7.87,37.94 2.65,13 -4.24,22.2 -39.09,44.6 -118.94,-34.11 -151.73,-65.03 -135.55,-127.88 -232.78,-99.82 -323.44,-151.71 -60.97,-34.88 -52.08,-115.32 -84.87,-143.54 -43.41,140.71 107.01,297.88 197.19,403.28 257.21,300.62 921.34,275.23 805.9,993.77 -26.97,-8.55 -240.58,-157.87 -293.02,-192.81 -31.95,-21.3 -67.13,-40.44 -92.22,-66.23 142.59,-112.14 162.26,-116.51 52.07,-289.32 -188.23,-295.15 -659.69,-116.18 -998.98,-425.49 -175.02,-159.55 -104.98,-444.54 -115.33,-501.49 -32.56,40.12 -43.95,212.2 -41.28,274.55 11.23,262.42 209.05,383.49 474.61,462.75 277.89,82.95 507.08,18.84 660.08,273.67 27.81,46.28 36.81,68.77 -2.96,106.85 -25.09,24.03 -59.07,41.68 -99.36,52.83 -100.99,-63.78 -132.87,-131.66 -189.58,-146.68l-1.96 63.12c-62.73,4.99 -112.75,-12.35 -166.72,-34.71 -67.44,-27.94 -57.16,-76.73 -110.79,-92.55 -4.76,31.38 -11.86,71.64 -22.9,96.31 -99.31,7.84 -101.29,-57.94 -140.69,-117.36 -23.85,-35.99 -87.83,-122.42 -128.73,-133.17l-27.07 207.65c-89.27,-4.81 -148.08,-55.78 -183.31,-115.05 -35.59,-59.95 -44.66,-149.76 -88.73,-196.7 -8.49,6.16 -5.39,1.71 -13.21,10.9 -21.33,24.98 -26.64,62.83 -65.93,76.26 -227.32,-210.63 111.47,-488.87 -193.83,-399.42 -8.47,-102.14 67.29,-259.69 -108.38,-328.28 21.83,-18.24 24.68,-12.43 52.7,-20.17l148.5 -57.49c170.4,-88.81 258.04,-222.08 310.29,-235.49 104.72,-26.91 136.43,131.34 200.05,60.6zm1774.95 -230.3c0,-67.61 1.65,-142.34 89.91,-179.18 189.25,-79.02 370.99,53.58 503.65,123.77l60.05 335.65c7.07,34.81 18.34,81.92 19.09,115.47 -111.66,0 -298.28,55.4 -332.39,55.4 -15.19,0 -154.92,-139.68 -174.11,-166.2 -49.01,-67.66 -166.2,-182.48 -166.2,-284.9zm1274.16 451.1l-332.39 -55.4c0,-48.14 30.3,-167.88 38.77,-222.4 6.64,-42.67 13.63,-70.94 21.4,-113.14 6.69,-36.29 18.27,-84.17 18.97,-115.58l105.62 -60.57c131.74,-72.58 329.09,-142.39 450.52,-20.72 37.21,37.29 37.42,68.86 37.42,120.86 0,168.7 -322.82,466.94 -340.31,466.94zm-3315.98 -530.24c119.93,0 102.25,31.65 189.93,31.65 10.25,19.35 14.58,36.29 23.75,55.4 -11.93,2.78 -24.21,5.54 -36.73,10.77 -50.85,21.2 -20.27,37.52 -74.1,-2.83l-89.57 -68.71c-20,-21.05 -7.94,-16.11 -13.28,-26.27zm3950.51 -239.15c126.52,-55.21 194.03,143.37 70.27,184.22 -116.71,38.52 -194.89,-129.84 -70.27,-184.22zm-2277.62 1.26c128,-56.34 184.69,130.29 80.26,178.95 -58.77,27.37 -112.34,-5.81 -130.56,-44.25 -26.06,-54.91 -9.53,-108.38 50.3,-134.7zm-1245.54 332.85c-3.61,-43.46 -31.65,-81.54 -31.65,-118.71 0,-19.89 15.56,-25.79 28.5,-42.72 12.43,-16.22 17.77,-24.83 30,-41.23 22.06,-29.54 44.48,-49.7 76.03,-66.43 -5.23,22.43 -8.74,52.75 -14.66,72.4 -7.6,25.21 -13.25,47.13 -21.92,73.05 -15.31,45.73 -32.61,101.07 -66.31,123.64zm2919.3 -414.97c43.2,27.61 57.33,52.63 119.69,50.24 60.02,-2.35 67.53,-27.57 102.89,-50.82 15.87,24.21 11.65,41.18 36.03,70.74 73.38,88.99 133.01,78.77 223.5,53.65 -15.11,128.76 19.4,127.95 80.27,195.31 -118.4,42.2 -128.23,142.06 -87.24,245.49 -62.92,8.05 -86.1,16.96 -117.66,56.46 -34.05,42.62 -31.7,86.56 -15.58,142.99 -55.23,-2.6 -92.64,11.2 -114.57,43.46 -47.94,70.54 -0.53,90.34 -34.91,115.05 -6.06,4.33 10.15,19.25 -40.89,-0.88 -13.35,-5.27 -25.14,-10.5 -39.55,-16.21 -26.03,-10.28 -52.6,-16.46 -70.89,-32.07 69.26,-46.96 167.67,-165.47 224.96,-240.73 226.09,-296.99 79.32,-512.27 -201.91,-490.72 -138.66,10.62 -230.72,68.08 -332.92,118.73l44.03 -238.02c27.04,31.63 52.03,76.6 123.09,70.64 59.19,-4.96 90.89,-43.58 101.67,-93.3zm-1477.29 123.8c209.12,58.09 221.63,-66.59 259.52,-124.39 37.11,24.39 46.19,51.53 110.82,50.95 57.68,-0.52 70.77,-24.16 111.76,-50.37 16.74,78.46 117.36,156.29 224.28,23.93l41.43 237.92c-103.54,-50.95 -193.13,-110.87 -337.53,-120.44 -143.57,-9.48 -260.02,45.91 -296.8,159.11 -45.31,139.4 48.69,257.08 106.05,336.28 58.44,80.72 146.9,181.31 220.73,240.9l-141.18 52.97c-51.19,-52 9.93,-173.64 -158.73,-166.77 30.97,-121.96 -19.7,-184.47 -133.26,-199.42 47.72,-113.32 14.56,-208.29 -87.38,-245.38 52.27,-57.84 95.9,-61.25 80.27,-195.31zm-1567.29 98.89c44.45,-37.09 156.73,-236.66 279.56,-184.14 102.5,43.81 29.39,296.68 -19.77,369.58l-53.07 -3.48c19.39,-59.41 118.36,-259.82 47.21,-317.93 -57.58,-25.96 -153.76,105.13 -180,142.59 -16.99,24.28 -32.53,28.94 -47.09,49.77l49.34 154.65 -94.77 -15.38 -34.99 -124.02c-109.96,-2.55 -245.81,-80.66 -324.19,-11.5 -10.75,60.87 41.7,107.46 70.85,129.21l114.27 88.74c-80.34,4.23 -57.79,18.14 -154.02,-64.68 -137.18,-118.06 -90.91,-243.46 84.25,-226.14 68.34,6.77 122.85,39.35 186.94,35.64l-27.82 -95.08 70.74 -22.35 32.56 94.5zm2451.14 -374.69c76.15,-7.74 111.84,-9.1 187.79,0.55 22.71,37.49 4.83,53.42 42.63,91.57 31.88,32.17 44.26,25.26 79.34,47.77l-150.49 805.12 -128.55 1.03 -147.78 -812.56c107.2,-25.11 93.15,-92.65 117.06,-133.49zm460.64 77.74l39.94 0.68c57.18,42.63 41.03,107.58 -43.78,100.22 -21.8,-24.36 -29.84,-27.67 -26.01,-69.91l29.85 -31zm-769.26 -0.4l39.67 1.45c22.23,19.59 34.13,30.78 30.34,69.64l-26.47 30.22c-59.41,4.73 -79.11,-13.31 -73.32,-73.3l29.79 -28.01zm1268.39 -66.58c142.96,-44.8 206.85,163.97 73.85,211.86 -148.81,53.6 -217.45,-166.85 -73.85,-211.86zm-1792.29 -1.85c146.48,-41.2 202.25,177.2 63.97,216.29 -149.03,42.13 -205.66,-176.4 -63.97,-216.29zm1507.84 -4.34c90.64,-48.41 141.82,89.59 61.64,127.31 -40.82,19.2 -80.84,-5.37 -95,-31.83 -21.83,-40.8 -6.37,-74.27 33.36,-95.48zm-1219.6 -0.57c87.14,-44.55 145.02,84.4 61.45,127.05 -52.17,26.61 -123.2,-21.17 -98.43,-90.74 8.97,-25.23 17.04,-26.13 36.97,-36.31zm-1599.54 1291.05c93.65,2.08 170.13,65.55 231.33,124.8 11.35,11 10.87,9.6 21.92,17.66 13.84,10.12 12.91,11.03 25.71,21.77 17.19,14.44 37.51,21.9 62.03,25.16 68.46,9.14 85.83,1.05 133.85,-31.1 0,-47.91 -4.94,-67.08 -7.92,-102.89 58.94,28.27 101.11,6.64 136.95,-37.16 56.31,-68.84 5.64,-167.2 -54.66,-211.31l-178.88 -169.35c-1.11,-1.2 -2.45,-3.15 -3.53,-4.39 -1.06,-1.23 -2.41,-3.18 -3.46,-4.43l-167.47 -164.94c-16.41,-16.42 -27.07,-27.14 -43.53,-43.51l-41.55 -45.51c7.04,-30.19 7.92,-31.47 7.92,-71.24 -36.04,-31.23 -46.88,-22.56 -94.97,-23.75 3.91,-46.99 45.99,-138.45 58.86,-194.36 7.89,-34.23 8.07,-83.88 4.03,-121.77 -3.39,-31.68 -20.67,-67.23 -37.34,-89.27 -40.22,-53.12 -126,-61.15 -185.16,-39.09 -62.82,23.4 -97.59,77.66 -149.03,112.11 -4.21,-18.02 -6.14,-18.2 -7.92,-39.57 -62.38,1.4 -139.03,41.72 -197.85,55.4 2.01,24.29 7.5,38.06 15.82,55.41 -37.94,-3.15 -49.87,-15.58 -94.68,-16.12 -97.94,-1.16 -189.83,16.62 -223.31,117.56 -29.52,89.04 36.18,173.84 97.89,221.55 9.22,7.12 57.18,50.54 61.82,56.88 -37.82,56.49 -106.73,107.93 -160.31,148.35 -14.98,11.27 -15.56,9.35 -29.52,17.97l-101.82 56.46c-22.7,9.88 -46.53,17.97 -75.31,27.56 -35.84,11.95 -136.92,17.71 -147.45,58.32 7.99,95.93 98.94,76.91 132.41,144.59 34.98,70.77 -5.77,187.52 -5.77,259.04 42.25,36.59 63.2,26.36 142.46,7.9 -16.07,33.48 -18.64,99.92 -27.07,147.37 -12.55,70.45 81.32,276.89 161.18,272.23 35.21,-2.03 29.82,-22.76 63.75,-31.8 11.42,48.97 30.34,91.5 55.21,126.8 9.39,13.31 10.43,13.03 21.62,25.86 42.38,48.59 152.81,123.15 219.05,95.88 44.5,-18.35 60.25,-69.09 60.25,-129.83 62.5,45.78 115.57,216.42 131.51,295.81 30.24,150.54 3.89,264.5 -37.51,375.92 -20.92,56.31 -62.57,180.36 -108.33,216.14 -24.16,18.9 -40,27.99 -66.43,44.36 -90.32,56.01 -185.82,98.38 -261.53,173.74 -64.05,63.75 -137.96,174.57 -171.23,264.05 -73.88,198.75 14.59,187.83 -108.24,216.22 -187.02,43.21 -271.1,-100.66 -185.49,-272.55 27.61,-55.38 135.78,-222.26 182.03,-253.23 0.75,33.51 15.26,77.23 22,104.63 11.15,45.36 23.66,57.48 72.98,61.55 38.17,-9.88 135.88,-195.51 167.67,-243.85 80.26,-122.06 90.69,-171.79 -33.13,-254.73 0,-57.29 26.52,-76.13 42.67,-123.54 78.04,-229.39 56.16,-477.61 -100.02,-658 -16.16,-18.69 -17.22,-25.16 -35.53,-43.61 -14.66,-14.78 -28.5,-30.6 -43.68,-43.38 -13.51,-11.37 -11.03,-6.79 -23.18,-16.39 -197,-155.77 -387.77,-66.93 -579.4,50.82 -99.63,61.2 -253.35,88.86 -383.16,123.34 -70.34,18.72 -78.59,16.01 -104.38,69.72 26.24,49.59 75.31,57.86 166.2,118.71 -29.32,43.8 -91.4,119.23 -133.16,151.76 -34.55,26.92 -20.42,15.21 -40.95,54.01 23.68,49.35 37.16,69.76 102.87,71.22 0,79.34 -16.86,142.49 10.88,210.73 34.56,85.06 94.2,149.78 129.36,234.74 21.65,52.33 0.08,53.4 -5.44,101.21 -11.4,98.68 90.47,109.44 132.47,60.9 29.05,-33.56 63.38,-113.54 86.2,-159.15l134.02 -230.02c57.51,-93.93 82.32,-164.42 82.32,-289.64 42.92,0 43.5,7.7 85.46,-1.45 124.95,-27.26 3.11,-122.87 -11.78,-151.38 -15.84,-30.3 -38.92,-92.92 -33.85,-139.38 26.66,-243.83 301.35,-39.37 351.06,107.08 33.6,99.06 33.66,195.66 -11.02,280.09 -86.85,-41.67 -182.64,5.04 -235.43,49.47 -104.22,87.73 6.02,121.89 69.22,164.21 0,45.03 -3.1,70.9 -16.84,101.89 -67.41,151.99 -402.03,438.45 -296.86,749.98 16.21,48.02 38.24,78.41 66.86,115.17 81.82,105.12 270.45,140.94 405.12,140.94 0,114.75 -87.73,218.2 -190.91,252.27 -146.98,48.56 -252.63,-27.86 -252.28,190.93 0.23,135.2 14.76,159.2 -8.69,307.84 -34.23,217.01 -103.47,325.28 96.13,324.88 40.69,-0.08 31,-5.77 47.11,16.21l-759.74 0 204.14 357.77c12.5,19.92 21.12,35.63 33.28,53.76 -24.08,103.32 -189.05,329.54 -213.68,435.28l2025.98 0c5.51,66.01 33.95,134.45 54.28,198.97 20.17,63.92 41.15,130.74 56.53,196.74 70.47,-33.83 380.94,-117.8 458.11,-143.36 220.13,-72.92 773.22,-170.63 1021.89,-188.97 144.4,-10.63 578.76,-53.63 723.23,-26.96 47.09,8.72 98.69,-0.53 147.33,3.06l276.91 23.8c253.45,13.11 795.97,120.41 1025.69,185.17 74.71,21.07 164.51,41.03 232.75,67.98 35.53,14.03 75.88,26.77 111.67,38.71 36.21,12.06 86.76,25.71 117.71,40.57 9.34,-19.45 10.83,-29.25 17.34,-53.88 4.93,-18.69 12.75,-37.31 19.1,-60.05l70.95 -245.59c9.3,-35.21 0.75,-35.83 42.38,-36.74l704.95 0.57c419.43,0 838.88,0 1258.32,0 -37.49,-70.85 -68.37,-144.5 -108.06,-216.39 -35.01,-63.45 -64.3,-136.55 -102.99,-197.77 -12.21,-19.32 -0.92,-2.11 -10.53,-13.2 76.1,-113.65 136.85,-243.48 208.9,-360.91 14.53,-23.7 21.6,-28.82 28.52,-58.54l-862.63 0c22.78,-97.81 10.33,-173.59 -7.34,-261.75 -19.34,-96.41 -16.49,-176.97 -16.41,-292.24 0.02,-19.2 2.03,-53.52 -0.22,-71 -1.36,-10.58 -16.52,-48.91 -21.98,-57.14 -5.09,-7.65 -8.15,-8.17 -15.19,-16.49l-58.92 -59.79c-13.94,-10.4 -27.74,-19.47 -40.29,-30.92 -27.37,-24.99 -58.54,-44.98 -81.87,-76.43 -14.79,-19.95 -23.31,-27.22 -34.78,-44.36 61.25,14.28 141.84,37.92 226.66,20.9 72.17,-14.48 126.65,-40.54 175.64,-77.59l98.44 -91.5c29.62,-32.47 49.79,-82.29 69.07,-120.86l88.58 -164.66c56.89,-85.96 96.46,-102.45 156.75,-223.15 156.55,-313.45 -145.74,-199.53 -166.19,-197.85 -18.85,-35.63 -36.87,-117.05 -45.73,-160.05 -10.1,-49.01 -10.93,-132.81 -65.08,-148.6 -51.53,-15.04 -93.25,72.25 -118.89,-23.55 -38.46,-143.57 -70.02,-273.96 -189.75,-95.17 -58.12,-38.92 -115.38,-121.96 -137.65,-186.84 -30.15,-87.91 -27.27,-201.8 -0.02,-291.14 50.59,-165.77 201.33,-217.42 360.51,-164.31 27.66,9.2 33.51,18.34 62.07,24.98 -74.32,110.99 -133.01,163.94 -23.96,348.45 33.43,56.54 79.27,128.83 134.75,165.97 0,74.32 15.63,165.34 30.02,223.21 61.55,247.57 181.98,226.41 363.04,138.2 40.2,-19.59 50.12,-19.3 50.12,-76.51 -208.62,-55.68 -39.19,-255.31 -17.16,-381.21 11.58,-66.11 -21.17,-116.55 -22.41,-172.74 63.45,-1.43 123.87,-48.29 114.5,-106.26 -13.51,-83.55 -69.82,-63.17 -14.36,-173.51 84.82,-168.77 -61.67,-122.67 -138.9,-148.41 -29.19,-9.72 -54.55,-20.8 -85.4,-33.31 -203.86,-82.79 -207.5,71.34 -459.02,-31.63 -37.77,-15.49 -48.67,-16.32 -94.12,-24.59 -114.93,-20.98 -227.67,17.87 -316.81,77.59 -46.33,31 -84.2,67.11 -119.88,109.63 -12.15,14.48 -13.66,23.23 -23.95,39.37 -138.25,216.99 -71.02,516.28 45.91,718.36l181.91 285.01c-38.85,53.03 -72.72,42.48 -93.35,136.17 -18.74,85.03 -16.49,130.64 22.11,188.32l39.57 0c31.7,-21.23 81.37,-47.77 140.98,-38.14 44.4,7.17 101.97,31.33 130.38,59.61 72.27,71.97 44.76,193.21 -10,271.54 -59.26,84.8 -164.44,116.33 -264.46,82.07 -27.76,-9.5 -41.7,-16.99 -61.89,-33.08 -78.77,-62.77 -42.03,-253.05 -126.72,-340.21 -178.82,-184.01 -69.02,-352.62 -202.86,-730.99l-82.82 -202.1c-11.85,-27.86 -16.44,-41.93 -29.1,-65.85 52.1,0 67.14,6.71 97.35,-21.4 23.33,-21.72 29.72,-47.94 36.76,-81.94 13.98,-67.43 5.87,-134.72 24.18,-213.23 234.94,-54.76 73.5,-152.82 144.97,-211.16 24.38,-19.92 90.27,-22.71 126.45,-55.6 48.87,-44.38 18.62,-80.84 5.57,-136.88 17.66,-33.35 14.89,-23.26 37.56,-49.49 13.25,-15.34 28.16,-38.89 35.18,-59.85 21.98,-65.63 -40.87,-100.41 -25.26,-151.81 25.28,-37.74 67.64,-54.56 96.85,-93.1 26.66,-35.18 24.91,-114.04 -25.61,-120.58 -49.84,-6.46 -78.58,69.09 -233.15,-83.42 -80.97,-79.89 -55.63,-185.37 -200.2,-330.03 -8.65,-8.69 -11.35,-11.52 -19.12,-20.47l-60.52 -74.03c-38.12,-57.44 -33.9,-230.42 -104.32,-251.82 -68.69,0 -70.26,19.44 -109.14,49.14 -24.41,18.64 -81.84,41.12 -112.42,53.78 -137.32,56.79 -339.68,3 -435.39,47.36 -188.68,87.43 -108.41,28.84 -284.38,48.01 -16.07,1.76 -47.04,10.03 -61.02,18.12 -104.1,60.3 3.24,155.44 -10.63,203.04 -17.87,26.69 -39.09,49.94 -28.89,99.97 8.1,39.82 19.3,75.53 49.45,93.19 44.56,26.13 153.79,-13.31 232.68,28.44l0 39.57c-36.38,17.44 -86.05,20.67 -129.86,36.34 -153.92,55.05 -44.26,152.59 -20.45,185.19 124.14,170.06 130.81,45.81 290.97,6.17 34.28,-8.49 82.6,-9.25 123.89,-18.57 40.07,-9.02 82.92,-26.23 123.24,-27.11 0,74.48 -26.81,130.71 -63.33,189.9 -32.91,53.32 -85.88,98.43 -140.91,128.18 -168.18,90.89 -391.54,50.9 -549.53,83.6 -35.14,7.26 -57.97,9.83 -90.17,20.62 -115.18,38.52 -161.14,115.15 -161.14,266.21 -49.21,0 -113.5,-2.86 -136.27,-29.92l-33.03 -46.09c-43.48,-57.96 -108.33,-131.79 -164.59,-175.7l-134.67 -118.59c-48.17,-73.65 -45.54,-208.05 -28.39,-284.91 12.33,-55.15 30.68,-76.74 53.76,-120.34 76.06,1.7 60.82,41.18 142.56,-7.82 46.16,-27.66 47.37,-62.08 47.37,-134.64 162.23,0 193.63,-124.02 150.38,-205.76 91.75,0 146.98,-20.37 182.41,-102.49 21.72,-50.37 7.4,-128.83 -29.77,-168.88 -19.54,-21.07 -26.66,-16.54 -41.85,-37.29 147.3,-77.94 143.14,-245.76 13.43,-306.25 -58.34,-27.19 -82.39,-15.82 -140.04,-2.4 34.03,-146.12 -82.92,-271.85 -230.82,-222.9 -53.8,17.81 -72.3,64.71 -101.59,72.55 -1.91,-23.03 -4.73,-27.11 -15.92,-39.49 -55.06,-60.97 -137.66,-70.17 -204.54,-14.79 -22.08,18.27 -37.71,42.22 -40.69,77.99 -52.3,-34.99 -114.77,-48.79 -165.04,-6.74 -17.31,14.46 -26.84,23.95 -32.81,46.31 -91.01,0 -91.6,-18.82 -113.77,-92 -17.84,-58.91 -89.84,-50.42 -163.22,-50.42 -77.96,0 -133.04,-12.55 -162.94,42.8 -15.13,28.01 -5.94,51.48 -28.67,74.23 -15.66,15.63 -55.86,24.74 -85.38,25.39 -21.6,-80.92 -118.31,-92.82 -197.85,-39.57 -11.38,-136.73 -229.09,-161.39 -261.17,-23.71 -39.4,-10.55 -81.47,-124.9 -228.85,-70.6 -91.12,33.6 -125.12,128.3 -103.54,220.95 -55.38,-12.9 -79.42,-24.1 -134.75,-0.2 -142.87,61.62 -132.52,234.43 8.14,308.84 -15.36,20.97 -18.02,13.79 -37.96,33.28 -39.29,38.44 -56.03,113.12 -36.21,167.52 11.23,30.83 36.23,64.2 61.25,81.2 35.74,24.26 66.36,26.66 123.7,26.66 -25.58,48.34 -24.28,108.14 9.8,148.48 39.27,46.43 58.62,57.28 140.56,57.28 0,72.55 1.23,106.98 47.39,134.64 67.74,40.62 75.51,15.54 142.56,-0.1 34.74,51.9 61.24,107.1 63.62,173.81 2.93,81.89 -8.3,147.6 -28.84,209.2 -19.8,59.39 -79.06,76.13 -119.91,117.5l-92.64 89.41c-108.74,129.43 -137.25,145.14 -233.88,312.19 -52.02,89.92 -104.12,181.26 -137.43,282 -1.73,5.27 -5.72,19.55 -7.74,23.95 -9.78,21.22 -7.14,11.88 -13,18.65 0,-61.45 8.52,-141.19 -12.7,-216.82 -25.71,-91.64 -65.43,-176.09 -127.7,-244.28l-95.1 -94.83c-17.19,-16.31 -16.82,-14.79 -34.93,-28.39 -25.51,-19.12 -46.36,-34.05 -73.02,-53.61 -134.45,-98.71 -316.38,-128.4 -469.74,-282.07 -30.73,-30.8 -100.99,-96.35 -112.77,-140.49z"/>
   <path class="fil1" d="M3464.41 3817.79c-0.27,-1.63 36.87,-199.33 41.13,-235.68 31.38,-267.61 45.34,-833.91 27.51,-1103.1 -12.76,-192.34 50.39,-96.6 110.52,-168.17 24.71,-29.4 19.37,-54.8 57.72,-84.8 26.16,-20.43 61.17,-40.72 105.5,-39.29 315.77,10.03 455.78,810.61 13.16,1004.52 -141.08,61.8 -53.2,60.37 -125.47,302.69 -32.56,109.14 -88.96,246.04 -183.48,314.93 -1.05,0.75 -23.63,15.87 -24.33,16.06 -40.7,9.5 -10.7,0.85 -22.28,-7.17zm1039.23 -869.55c18.22,-27.14 49.39,-140.34 63.47,-181.3l138.06 -352.24c15.73,-37.11 55.05,-127.8 90.72,-148.6 11.81,24.99 2.55,38.66 -2.1,92.42 -33.45,387.68 12.21,935.65 107.13,1308.99 13.25,52.13 38.07,117.41 44.41,168.96 -34.23,-6.66 -78.72,-56.66 -105.28,-84.68 -128.35,-135.47 -189,-369.03 -237.77,-546.05 -37.64,87.43 -112.5,518.63 -131.39,557.41l-7.39 8.89c-22.33,-31.95 -61.22,-211.13 -75.21,-265.05 -13.18,-50.85 -54.43,-234.73 -73.33,-263.56 -38.79,109.63 -67.84,232.16 -119.04,332.02 -41.22,80.36 -130.26,207.65 -214.98,230.02 0.78,-2.91 96.8,-230.57 127.23,-325.72 72.32,-225.96 123.15,-523.55 138.96,-763.99 13.33,-202.53 -15.54,-386.92 -12.45,-430.18 78.86,52.93 224.83,526.9 268.96,662.65zm-1336.49 285.48c30.12,432.36 287.63,902.67 684.8,1070.55 319.49,135.05 629.33,97.59 907.13,-102.29 94.78,-68.19 217.27,-189.52 281.62,-296.13 163.44,-270.8 256.31,-550.83 227.29,-931.87 -32.8,-430.68 -276.76,-888.19 -685.46,-1070.57 -146.12,-65.21 -309.06,-96.71 -491.1,-70.3 -217.64,31.57 -353.79,122.57 -496.48,239.2l-73.25 69.22c-258.44,283.3 -384.14,666.99 -354.54,1092.18z"/>
   <path class="fil2" d="M5563.15 5742c18.94,-40.37 54.66,-88.76 79.21,-126.5 24.59,-37.81 49.4,-80.17 79.86,-118.78l62.28 12.48 29.89 291.34 -58.92 -13 -4.96 -59.14 -98.86 -23.26c-10.63,15.58 -18.55,30.88 -32.96,47.92l-55.53 -11.07zm-3241.47 -145.19l52.38 -11.27 81.14 262.33 -57.09 15.41 -76.43 -266.48zm3650.15 200.65l128.08 35.21 -7.02 45.76 -187.88 -50.45 74.3 -262.88 55.18 10 -62.65 222.36zm-1749.37 -476.84l69.02 2.83 91.4 274.76 -58.56 -1.76 -19.07 -55.15 -101.69 1.15 -20.4 54.56 -56.84 -1.91 96.13 -274.48zm785.05 50.49c192.83,-54.43 215.26,238.22 77.49,280.37 -197.84,60.54 -240.7,-234.33 -77.49,-280.37zm-2328.98 296.08c15.11,13.56 6.46,6.07 23.2,14.28l-42.53 -175.97 52.38 -7.19 62.55 264.65 -51.7 10.33c-24.73,-26.01 -51.78,-47.32 -75.48,-73.7 -24.93,-27.76 -45.48,-56.89 -76.79,-76.83l42.48 181.51 -49.9 10.25 -64.65 -262c23.61,-13.76 30.98,-13.99 61.55,-17.59 20.22,27.02 42.22,47.47 66.43,74l52.47 58.26zm2625.06 -257.11l58.71 12.8 72.45 199.37 33.08 -180.96 53.27 8.05 -49.69 269.42 -59.17 -7.16c-8.22,-34.69 -20.4,-66.16 -32.86,-101.42 -6.14,-17.37 -11.8,-30.85 -16.86,-46.99 -2.06,-6.61 -5.64,-20.75 -6.89,-23.4 -16.16,-34.46 -2.75,-7.92 -17.67,-22.55l-35.76 172.03 -40.15 -6.61 41.55 -272.58zm-2273.16 17.76l9.39 46.64 -79.84 15.16 43.28 226.34 -55.46 6.24 -43.11 -219.4 -84.55 9.8 -6.11 -42.65 216.41 -42.13zm1727.29 -83.07l58.19 3.13 -23.21 274.31 -57.38 -4.54 22.4 -272.9zm-1421.79 38.02l3.33 45.28 -138.11 19.92 8.04 57.51 130.98 -18.02 4.49 46.91 -127.95 18.07 10.28 71.24 150.68 -17.76 2.61 41.57c-31.15,13.71 -169.33,35.03 -202.26,27.82l-39.25 -267.28 197.17 -25.26zm635.92 -58.62l50.64 4.94 11.71 269.51 -53.45 1.43 -87.91 -133.72c-5.13,-8.22 -10.87,-17.57 -15.56,-23.63 -35.14,-45.34 30.22,34.41 -7.77,-9.17 -0.93,-1.05 -3.94,-1.56 -4.64,-4.46 -0.72,-3.01 -3.31,-2.96 -5.87,-4.44l5.42 182.59 -51.37 -1.68 -10.78 -271.88 61.42 -2.61 79.97 131.81c4.01,6.34 7.52,13.31 12.05,19.37 14.83,19.8 5.79,8.45 20.62,20.25l-4.48 -178.3zm-512.84 39.02c47.47,-3.91 147.32,-23.16 184.39,-4.06 54.91,28.29 50.85,90.74 12.56,130.09 53.85,55.71 21.97,91.82 52.5,126.1l-63.68 4.13c-11.02,-39.75 -9.5,-68.72 -27.26,-99.77l-85.36 5.71 4.81 107.86 -51.92 2.96 -26.04 -273.02zm1119.17 19.6l-12.01 224.04 -55.99 -3.19 7.79 -227.31 -80.24 -4.83 3.16 -47.57 221.35 14.94 -0.58 43.76 -83.47 0.15zm1476.9 -40.92c-21.13,-175.06 230.2,-130.26 203.18,11.32l-48.11 -13.74 -11.1 -43.76c-24.23,-9.63 -64.4,-29.62 -84.13,-6.46 -48.26,56.63 197.85,93.32 102.35,204.74 -53.22,62.08 -219.82,24.71 -199.55,-97.61 51.34,13.25 44.1,6.39 52.83,29.5 33.5,88.74 143.97,44.48 97.61,-2.85 -2.91,-2.96 -30.52,-20.88 -38.22,-25.21 -35.51,-19.9 -48.66,-27.44 -74.86,-55.93zm-3827.92 -87.84c59.49,-31.95 179.03,-65.55 212,-4.14 52.9,98.51 -19.62,134.05 -107.15,153.56l24.53 96.28 -53.52 14.66 -75.86 -260.35zm3278.54 -171.13c33.18,-7.07 145.75,19.89 171.91,38.87 37.22,27.02 53.25,92.35 -23.25,133.79 36.76,27.61 7.57,80.34 13.88,135.97l-61.98 -10.72c5.87,-88.03 16.24,-98.64 -11.4,-113.19l-68.09 -12.75 -20.43 101.12 -56.68 -9.07 56.04 -264.03zm353.85 139.84c2.53,-9.87 4.74,-20.75 7.89,-31.47l12.8 -29.77 52.2 10.95 -70.29 267.31 -54.95 -11.23 52.35 -205.79zm-1078.65 -241.92c84.47,-30.27 158.08,19.39 173.82,88.96 17.52,77.44 -18.09,165.12 -75.21,186.12 -195.84,72.02 -249.19,-221.15 -98.61,-275.08zm-2143.96 439.47l-59.77 -266.99 54.31 -9.14 23.4 97.71 103.2 -20.4 -23.15 -106.71 50.79 -9.37c15.81,25.78 30.07,102.97 36.76,133.26 9.25,41.88 25.23,89.87 26.82,133.79l-52.6 10.42 -26.36 -116.95 -104.42 23.4 26.92 121.61 -55.91 9.39zm2487.75 -401.96c34.69,-5.59 154.59,13.01 179.93,33.08 47.46,37.61 29.95,101.66 -22.11,133.21 43.85,41.83 8.97,71.3 22.28,134.12 -121.09,-13.21 -31.3,-40.8 -65,-105.4 -15.39,-21.62 -59.19,-23.7 -84.48,-21.62l-14.79 100.12 -56.68 -4.29 40.85 -269.22zm-2120.08 46.23l45.1 269.92 -52.68 5.23 -48.04 -262.02 55.63 -13.13zm196.49 239.29c-7.75,-58.66 -40.74,-224.04 -33.68,-270.17l52.65 -6.34 33.86 222.48 135.14 -14.16 3.23 45.13 -191.2 23.06zm520.96 -333.87c79.01,-3.41 188.73,-26.77 206.56,56.08 23,106.96 -54.46,113.3 -140.36,117.41l2.46 99.53 -56.08 2.76 -12.58 -275.78zm-223.23 21.13c36.26,-5.19 52.95,-16.01 59.14,15.61l25.01 252.33 -57.28 3.74 -26.87 -271.69zm789.93 -38.94c91.21,2.95 81.09,-16.76 96.28,69.24l30.98 130.84c26.97,-48.82 44.43,-135.17 54,-194.52l83.6 2.41 -7.11 273.77 -53.75 0.92 3.13 -197.95c-32.03,49.44 -34.89,141.54 -58.22,195.92l-49.21 -0.92c-6.84,-17.42 -47.36,-211.28 -48.01,-221l-6.96 216.31 -53.45 0.78 8.7 -275.8zm1939.57 1112.32c14.38,-17.84 248.41,-796.14 252.48,-850.47 -86.03,-26.46 -163.69,-57.19 -250.5,-82.89 -671.05,-198.57 -1294.43,-311.01 -2012.14,-310.81 -610.98,0.18 -1425.15,115.58 -2012.19,310.82 -66.18,22 -186.37,70.77 -249.99,80.24l252 853.34c49.69,-6.71 174.32,-52.92 227.22,-70.7 495.83,-166.84 1270.83,-268.06 1782.95,-268.47 474.7,-0.4 1102.8,76.79 1561.27,204.62 75.1,20.93 158.1,40.05 229.34,63.77 72.98,24.31 148.45,50.14 219.55,70.54z"/>
   <path class="fil2" d="M4097.72 1773.28c192.08,-26.09 369.83,12.83 523.72,83.77 111.09,51.17 268.86,166.88 348.53,260.82 84.3,99.41 177.97,223.68 238.54,378.35 61.3,156.57 107.58,305.95 118.56,492.5 57.84,982.61 -732.15,1723.08 -1508.62,1364.72 -126.85,-58.54 -264.8,-160.99 -348.2,-261 -14.26,-17.11 -25.86,-23.71 -39.44,-39.74 -181.56,-214.11 -302.5,-541.47 -321.96,-824.16 -34.98,-508.74 142.89,-978.78 550.97,-1281.22 112.6,-83.45 269.42,-151.19 437.89,-174.04zm-1173.69 827.3c89.16,115.07 19.98,193.64 1.03,411.75 -17.32,199.38 49.02,378.86 -37.92,425.17 29,264.08 153.27,510.79 288.36,720.04 25.93,40.17 45.86,60.49 70.9,95.45 23.56,32.91 53.13,66.33 81.95,92.07 73.65,65.68 58.17,67.83 174.91,157.47 212.05,162.84 488.89,262.37 778.25,244.38 326.55,-20.28 579.41,-164.11 793.92,-378.93 281.99,-282.43 435.29,-640.4 483.85,-1047.22 -4.64,-4.04 -5.87,-6.37 -14.94,-11.91 -20.15,-12.3 -37.37,-13.28 -52.27,-35.16 -35.48,-52.12 9.9,-72.8 -42.72,-100.26 -9.42,-4.91 -18.5,-8.87 -25.09,-13.83 -81.99,-61.84 -10.7,-209.88 44.16,-266.23 24.41,-25.03 52.45,-54.6 79.84,-79.11 -6.44,-259.01 -231.65,-735.53 -423.66,-938.39 -13.99,-14.76 -27.12,-25.04 -40.27,-38.54l-77.89 -80.11c-340.76,-291.7 -782.36,-403.19 -1217.87,-227.34 -172.71,69.74 -223.18,120.16 -348.53,213.43 -22.71,16.89 -22.5,17.9 -44.5,42.37 -73.25,81.42 -67.04,57.09 -152.06,164.85 -130.01,164.77 -275.3,438.82 -319.46,650.05z"/>
   <path class="fil2" d="M6013.5 2270.09l-84.78 6.01c-71.62,125.18 -68.62,206.82 -28.14,356.37 24.59,-10.35 32.25,-21.72 61.47,-37.04 53.25,-27.87 173.04,-78.19 228.27,-82.57 -8.97,11.9 -0.15,7.19 -21.88,19.97 -83.53,49.07 -82.67,41.38 -178.47,114.12 -32.15,24.39 -52.17,48.69 -95.08,71.2 -100.16,52.55 -186.29,68.34 -237.36,95.25 -39.32,20.75 -143.79,114.29 -171.44,161.21 -19.1,32.37 -43.03,91.62 -29.35,128.51 29.2,23.63 46.13,1.3 91.01,4.71 18.94,77.64 -61.02,153.11 82.82,149.85 15.33,-16.91 15.41,-26.19 46.59,-32.68 18.97,45.18 36.66,90.06 100.09,88.78 58.36,-50.37 30.9,-116.66 64.55,-173.57 26.67,-45.14 93.2,-62.68 148.33,-89.59 74.81,-36.49 153.31,-91.92 216.66,-139.2 28.9,-21.55 38.06,-42.38 75.86,-46.33 42.8,29.55 12.65,47.49 2.2,75.8 11.27,9.47 11.68,10.42 21.43,22.73 114.38,14.01 100.49,-59.52 142.79,-126.55 27.34,-43.31 131.54,-76.2 202.74,-81.1 -1.61,1.93 -3.81,2.43 -4.76,5.82l-19.64 16.66c-11.96,8.02 -19.97,11.25 -29.79,17.34 -177.02,109.54 -87.19,198.72 -227.92,230.48 -51.04,11.52 -81.49,4.51 -114.35,-25.09l-27.01 -23.08c-26.71,15.94 -101.59,61.72 -116.85,81.5 79.09,80.44 383.22,85.6 513.07,244.59 24.89,30.48 92.87,114.58 104.02,162.43 -54.81,-18.9 -123.04,-119.59 -188.33,-150.89 -5.36,145.1 -95.4,254.16 -92.15,432.65 1.16,63.48 44.85,142.51 68.91,193.71 78.38,166.69 253.6,310.52 438.8,353.14 64.91,14.94 165.25,14.33 222.31,38.57 93.17,39.57 129.59,199.05 63.78,316.93 -20.93,37.47 -54.96,57.38 -90.84,83.23 -32.5,23.41 -167.45,132.34 -113.19,214.83 58.84,15.94 72.07,-32.13 133.39,-39.55 -0.12,23.4 -9.52,71.4 -5.44,85.85 7.02,24.89 66.36,86.61 109.38,21.43 7.26,-11.02 10.75,-19.65 17.36,-29.7 18.22,-27.69 1.9,-12.86 27.94,-23.11 41.03,29.29 14.39,51.47 55.18,69.34 119.73,52.45 112.17,-247.92 112.12,-248.14 -40.82,-244.43 -46.93,-215.22 -36.21,-436.02 4.64,-95.43 -47.13,-127.46 -125.97,-186.45l-84.48 -81.34c-52.13,-54.5 -255.23,-327.6 -250.59,-385.52 25.24,2.96 31.12,9.15 48.04,25.86 95.35,94.15 80.87,103.87 115.7,138.3l6.44 -9.92c36.54,-84.8 13.38,-247.21 -9.32,-327.86 -61.19,-217.59 -127.71,8.35 -184.49,-529.06 -19.27,-182.38 -156.87,-599.48 -246.36,-700.39 -27.76,67.99 -101.17,174.54 -183.66,176.95 -96.95,2.85 -103.59,-155.1 -115.57,-244.73 -64.51,-2.51 -368.07,244.79 -407.84,45.39z"/>
   <path class="fil2" d="M1823.25 2166.24c83.92,303.7 36.99,399.37 -72.37,657.79 -29.24,69.09 -27.31,81.29 -86.81,118.99 -150.19,95.23 -268.12,139.23 -357.18,260.04 -195.29,264.96 -98.46,342.69 -172.84,650.23 -44.95,185.85 -147.62,273.55 -316.06,302.34 -164.95,28.21 -119.24,-41 -120.64,273.12 0,83.85 -55.36,351.82 -44.63,391.91l202.11 11.05c-14.68,108.68 -140.58,194.39 110.69,180.05 64.11,-3.66 98.78,-9.37 104.88,-75.93 6.06,-65.78 -5.19,-111.06 -40.55,-144.17 -13.48,-12.63 -30.88,-30.19 -45.58,-41.28 -110.97,-83.83 -175.7,-135.09 -165.35,-288.79 20.55,-305.32 172.79,-162.06 342.76,-200.66 46.04,-10.45 89.31,-48.81 96.63,-93.32 -121.59,-31.9 -90.34,50.55 -223.1,16.96 -32.18,-8.12 -36.77,-11.08 -44.75,-35.11 39.89,-18.4 69.11,-4.06 117.5,-12.51 40.32,-30.35 62.8,-57.54 140.79,-38.56 67.23,16.41 66.54,39.65 149.06,11 232.6,-80.76 155.8,-405.36 448.79,-643.61 212.11,-172.51 372.33,-46.11 629.8,-280.27 60.94,-55.38 195.71,-240.95 223.38,-327.46 -98.58,-30.42 -204.74,-65.68 -307.35,-93.73 -71.94,-19.67 -303.27,-49.82 -253.2,-137.15 47.52,-11.53 38.29,18.52 154.52,46.49 99.06,23.86 421.08,108.11 474.25,150.36 48.52,38.61 31.97,96.35 28.17,167.95 -2.56,48.17 2.45,163.39 -11.5,200.51 -74.88,199.42 -225.87,70.82 -258.57,142.31 -0.92,2.03 -2.5,118.31 10.33,140.08 31.2,52.88 326.61,-85 333.95,-106.4l-11.33 -261.37c0,-140.19 29,-235.59 45.28,-363.77 13.01,-102.47 -82.98,-141.61 -193.54,-218.27 -82.93,-57.51 -162.61,-108.74 -246.29,-165.14 -67.06,-45.21 -195.92,-123.05 -236.61,-181.59 -71.44,20.77 -82.07,28.85 -164.39,4.68 -58.99,-17.31 -90.29,-35.26 -133.55,-55.71 -33.93,40.92 -39.62,35.21 -106.7,38.97z"/>
   <path class="fil2" d="M6208.14 743.44c46.79,-54.36 186.29,-6.94 211.33,44.83 -23.41,19.75 -95.35,42.75 -132.66,35.18 -37.07,-7.54 -77.66,-41.75 -78.68,-80.01zm-312.19 -49.22c-36.13,0.05 -61.74,1.23 -91.57,18.3 -6.49,54.35 32,76.98 34.33,131.94 3.08,72.47 -57.04,39.09 -18.99,139.38 84.48,-5.23 294.58,-24.83 267.99,129.19 -16.06,93.04 -136.48,71.12 -206.46,118.35 6.77,22.06 77.49,110.14 94.83,124.19 58.09,-19.82 56.66,-67.43 234.81,-89.13 98.73,-12.01 170.18,-41.18 256.88,-66.21 19.17,153.37 -7.47,248.04 -82.79,346.17 -294.02,383.06 -916.49,13.93 -916.49,429 0,151.53 113.84,261.22 228.77,149.5 101.94,-99.09 91.52,-197.55 239.82,-235.24 75.91,-19.29 196.4,-27.79 278.94,-36.82 245.49,-26.86 562.89,-15.81 649.45,-301.01 64.53,-212.51 55.94,-240.95 33.51,-436.79 91.44,48.32 41.47,369.63 21.3,452.76 -65.61,270.45 -314.13,309.57 -543.55,332.77 -213.59,21.63 -504.4,9.68 -554.65,175.02 -58.72,193.19 125.6,132.19 282.38,120.46 -23.76,80.46 -79.42,144.8 202.43,8.44 40.87,-19.75 60.89,-32.81 93.85,-56.69 31.13,-22.58 59.09,-54.46 100.32,-65.11 -12.51,82.3 -22.41,77.79 -11.47,169.65 6.02,50.57 9.09,115.12 39.47,150.63 111.16,-1.13 142.84,-212.28 205.77,-268.59 19.62,15.89 15.84,19.64 28.11,58.26 6.37,20.1 13.08,49.34 20.12,66.74 15.46,38.27 114.52,116.08 131.61,15.82 3.44,-20.23 4.38,-41.53 5.26,-62.03 1.56,-36.59 0.67,-80.07 7.99,-116.63 23.06,-114.97 72.3,-70.44 140.63,-121.12 0.73,-67.14 -16.62,-113.29 30.72,-157.92 27.56,-25.98 98.68,-47.03 136.25,-61.09 -8,-65.48 -40,-86.75 2.26,-148.56 15.64,-22.91 20.33,-25.14 39.6,-47.62 17.62,-20.6 20.23,-31.75 5.64,-61.09 -71.09,-142.81 45.73,-162.21 85.53,-227.17 -113.12,4.28 -180.45,-55.71 -238.42,-103.65 -82.57,-68.26 -103.52,-235.36 -184.97,-321.31 -144.85,-152.86 -110.01,-70.35 -178.57,-346.48 -37.04,9.29 -71.85,54.96 -171.29,92.65 -238.34,90.32 -324.24,-4.69 -468.79,61.95 -114.55,52.82 -95.88,38.9 -230.57,39.1z"/>
   <path class="fil2" d="M2057.28 923.8c9.72,36.99 -3.94,68.67 -25.71,90.64 -31.9,-0.4 -52.83,-11.78 -78.26,-26.72 -23.3,-13.69 -48.77,-18.07 -59.16,-47.13 33.58,-22.1 115.25,-26.44 163.12,-16.79zm-421.28 -71.42c-63.62,70.74 -95.33,-87.51 -200.05,-60.6 -52.25,13.41 -139.89,146.68 -310.29,235.49l-148.5 57.49c-28.02,7.74 -30.87,1.93 -52.7,20.17 175.67,68.59 99.91,226.14 108.38,328.28 305.3,-89.46 -33.5,188.78 193.83,399.42 39.29,-13.43 44.6,-51.29 65.93,-76.26 7.82,-9.19 4.73,-4.74 13.21,-10.9 44.06,46.94 53.13,136.75 88.73,196.7 35.23,59.27 94.03,110.24 183.31,115.05l27.07 -207.65c40.9,10.75 104.88,97.18 128.73,133.17 39.4,59.42 41.38,125.2 140.69,117.36 11.03,-24.68 18.14,-64.93 22.9,-96.31 53.63,15.82 43.35,64.61 110.79,92.55 53.96,22.36 103.98,39.7 166.72,34.71l1.96 -63.12c56.71,15.03 88.59,82.9 189.58,146.68 40.29,-11.15 74.27,-28.8 99.36,-52.83 39.77,-38.07 30.77,-60.57 2.96,-106.85 -153.01,-254.83 -382.19,-190.71 -660.08,-273.67 -265.56,-79.26 -463.38,-200.33 -474.61,-462.75 -2.66,-62.35 8.72,-234.43 41.28,-274.55 10.35,56.94 -59.69,341.94 115.33,501.49 339.29,309.31 810.75,130.34 998.98,425.49 110.19,172.81 90.52,177.19 -52.07,289.32 25.09,25.79 60.27,44.93 92.22,66.23 52.43,34.94 266.04,184.26 293.02,192.81 115.43,-718.54 -548.7,-693.15 -805.9,-993.77 -90.17,-105.4 -240.6,-262.57 -197.19,-403.28 32.78,28.22 23.9,108.66 84.87,143.54 90.66,51.88 187.88,23.83 323.44,151.71 32.78,30.92 112.64,109.63 151.73,65.03 6.89,-9.2 12.11,15.74 4.24,-22.2 -2.45,-11.8 -6.64,-18.8 -9.78,-30.97 -36.13,-139.43 117.06,-60.04 126.75,-62.23 40.2,-9.09 63.98,-69.81 -3.88,-131.94 -27.64,-25.31 -47.49,-46.11 -73.08,-69.22 -101.11,-91.21 -149.96,-151.81 -218.47,-216.77 -26.47,-25.09 -45.19,-45.1 -72.73,-69.54 -28.87,-25.66 -48.24,-39.45 -73.13,-69.59 -28.49,-34.5 -45.38,-44.58 -33.45,-100.04 -44.08,-0.88 -77.49,-12.96 -118.86,-16.17 -44.2,-3.43 -83.7,11.63 -121.07,19l10.17 19.47c3.54,6.84 1.9,1.76 7.52,15.03 -82.92,-10.82 -129.19,-56.98 -226.44,-50.55 -15.73,60.65 54.61,98.71 58.61,155.57z"/>
   <path class="fil2" d="M313.24 5331.73l-183.64 363.27 1900.76 -0.17 -151.19 -523.32 275.15 -91.99c11.28,-5.69 8.19,-5.69 14.48,-11.48 -26.03,-16.82 -55.81,-37.61 -82.1,-58.94 -46.34,-37.57 -45.43,-30.67 -116.1,-30.47l-830.96 0.03c-34.36,9.14 -9.78,48.32 -76.1,78.31 -38.76,17.52 -85.03,18.92 -129.61,20.28 -99.06,3.1 -187,3.63 -194.69,-98.66l-622.28 2.61 196.29 350.51z"/>
   <path class="fil2" d="M8289.95 4978.68l-747.86 0c-21.18,14.03 -7.04,-8.34 -21.72,30.35 -5.69,15.03 -5.56,19.05 -13.1,33.71 -12.36,24.08 -22.4,33.08 -49.92,45.48 -69.34,31.25 -93.07,4.03 -144.79,-11.88 -99.34,58.22 -152.42,34.73 -206.16,-54.63l-7.52 -10.75c-93.83,18.94 -72.14,-4.99 -126.62,-32.28 -15.43,-3.66 -563.64,-5.82 -590.3,6.32l-108.88 81.1c10.75,11.23 -8,7.4 39.39,22.65 12.83,4.14 24.68,7.87 35.78,11.52 51.24,16.87 183.19,55.21 211.65,80.72l-149.36 514.07 1870.7 -1.02 -189.1 -364.74 197.8 -350.63z"/>
   <path class="fil3" d="M4503.65 2948.23c-44.13,-135.75 -190.1,-609.71 -268.96,-662.65 -3.1,43.26 25.78,227.66 12.45,430.18 -15.81,240.43 -66.64,538.03 -138.96,763.99 -30.43,95.15 -126.45,322.8 -127.23,325.72 84.72,-22.36 173.76,-149.66 214.98,-230.02 51.2,-99.86 80.26,-222.4 119.04,-332.02 18.9,28.84 60.15,212.71 73.33,263.56 13.99,53.91 52.88,233.1 75.21,265.05l7.39 -8.89c18.89,-38.79 93.75,-469.99 131.39,-557.41 48.77,177.02 109.43,410.58 237.77,546.05 26.56,28.02 71.05,78.03 105.28,84.68 -6.34,-51.55 -31.17,-116.83 -44.41,-168.96 -94.92,-373.34 -140.58,-921.3 -107.13,-1308.99 4.64,-53.76 13.91,-67.43 2.1,-92.42 -35.68,20.8 -75,111.49 -90.72,148.6l-138.06 352.24c-14.08,40.95 -45.24,154.16 -63.47,181.3z"/>
   <path class="fil2" d="M153.14 2081.28c56.04,36.34 95.12,46.34 119.26,107.8 -7.16,63.8 -122.02,181.31 -156.78,202.31 19.35,19.8 42.22,25.23 76.55,32.28 37.76,7.74 57.09,3.06 84.92,-12.86 35.54,-20.33 92.9,-77.76 137.45,-58.67 37.07,25.84 -37.37,155.5 28.65,263.18l34.58 -35.36c28.55,-43.9 62.95,-107.8 69.82,-160.79 14.19,-109.13 110.47,-78.39 204.59,-80.29 -32.52,-54.08 -65.13,-69.41 -80.87,-164.41 -36.96,-222.9 174.84,-345.63 386.49,-125.1 39.95,41.6 70.72,82.4 94.37,150.83 47.37,137.02 30.93,375.1 -90.37,359.61 -118.71,-15.14 -113.05,-10.92 -190.2,47.76 14.08,17.19 218.42,67.31 28.84,323.7 -72.52,98.06 -139,171.39 -198.85,299.64 -97.81,209.6 -77.61,410.31 159.43,487.26 72.29,23.43 144.94,29.25 226.56,33.05l10.13 -118.64c-109.33,20.32 -204.39,34.79 -279.62,-29.97 -67.24,-57.86 -86.95,-176.85 -60.27,-260.02 38.71,-120.74 133.3,-215.97 200.51,-321.77 9.15,-14.41 93.77,-199.83 134.34,-1.43 9.73,47.57 10.7,82.82 32.96,104.75 37.67,-87.98 176.07,-256.06 155.79,-303.75 -21.3,-24.31 -63.5,-42.52 -80.66,-74.96 -26.26,-49.65 2.66,-90.37 19.3,-127.36 34.76,-77.26 54.06,-166.65 57.49,-262.8 6.54,-183.49 -64.91,-335.65 -197.09,-447.16 -163.59,-137.98 -271.35,-103.52 -462.23,-3.15 -67.51,35.51 -130.54,77.43 -210.93,105.88 -84.35,29.85 -168.18,34.36 -254.15,70.45z"/>
   <path class="fil2" d="M1820.23 3581.51c-86.58,103.3 -121.09,177.82 -169.91,309.08 34.51,28.94 114.75,52.32 169.75,52.62 77.34,0.43 145.97,-35.68 177.93,42.35 4.01,45.11 -136.05,123 -166.09,209.62 -30.25,87.26 124.3,139.98 196.59,167.83 45.33,17.49 89.14,32.12 132.79,49.32 75.88,29.97 106.93,95.13 223.03,148.76 94.03,43.41 81.42,10.45 149.71,-7.52 29.97,113.42 19.55,136.07 77.89,151.91 35.88,9.75 162.23,36.66 189.62,23.98 20.13,-44.81 -3.89,-103.09 -22.03,-143.92 -35.46,-79.79 -20.62,-63.05 -95.5,-94.37 -89.99,-37.62 -92.57,-93.6 -244.83,-126.85 -164.41,-35.91 -508.28,-145.24 -221.66,-313.85 86.03,-50.6 161.98,-95 212.68,-159.05 83.97,-106.03 83.02,-112.84 7.14,-238.01 -80.84,-133.3 -68.44,-101.02 -259.37,-77.08 -57.18,7.19 -116.76,12.31 -175.7,14.03 -64.41,1.91 -127.08,-10.32 -182.03,-8.85z"/>
   <path class="fil2" d="M5864.3 4182.29c-120.86,-3.58 -262.27,-12.88 -372.97,31.8 -75.11,30.34 -109.26,80.42 -48.02,142.99l93.17 0.27c8.29,49.85 -20.7,58.82 -26.96,103.04 11.32,58.39 80.42,11.02 110.99,7.24 23.7,93.92 13.6,125.52 73.15,128.53 132.84,-181.83 145.42,-264.35 438.37,-312.57 55.81,-9.19 116.76,-0.77 175.82,-11.4 51.25,-9.24 110.13,-38.69 78.19,-96.06 -34.91,-62.7 -120.04,-82.25 -75.11,-273.78 -51.27,-9.9 -88.99,-37.99 -125.9,-63.32 -31.08,-21.32 -85.4,-63.03 -95.13,-107.63 128.05,16.82 151.84,163.82 300.17,90.66 -18.25,-210.15 22.43,-244.46 71.47,-413.96 -153.11,21.93 -285.06,56.08 -447.99,9.05 -71.47,-20.63 -91.02,-53.18 -129.05,19.12 -50.55,96.13 -77.88,217.9 -31.95,331.64 31.52,78.06 124.67,142.34 176.62,226.86 77.59,126.28 -41.13,191.48 -164.87,187.54z"/>
   <path class="fil0" d="M3167.15 3233.71c-29.6,-425.19 96.1,-808.88 354.54,-1092.18l73.25 -69.22c142.69,-116.63 278.84,-207.64 496.48,-239.2 182.04,-26.41 344.99,5.09 491.1,70.3 408.7,182.38 652.66,639.88 685.46,1070.57 29.02,381.04 -63.85,661.07 -227.29,931.87 -64.35,106.61 -186.84,227.94 -281.62,296.13 -277.79,199.88 -587.63,237.34 -907.13,102.29 -397.17,-167.88 -654.68,-638.19 -684.8,-1070.55zm930.57 -1460.43c-168.47,22.85 -325.28,90.59 -437.89,174.04 -408.09,302.44 -585.95,772.47 -550.97,1281.22 19.45,282.68 140.39,610.05 321.96,824.16 13.58,16.02 25.18,22.63 39.44,39.74 83.4,100.01 221.35,202.46 348.2,261 776.47,358.36 1566.46,-382.11 1508.62,-1364.72 -10.98,-186.55 -57.26,-335.93 -118.56,-492.5 -60.57,-154.67 -154.24,-278.94 -238.54,-378.35 -79.67,-93.93 -237.44,-209.65 -348.53,-260.82 -153.89,-70.94 -331.64,-109.86 -523.72,-83.77z"/>
   <path class="fil3" d="M3743.34 3145.17c-48.64,-44.15 -23.46,-172.03 -21.82,-243.86l7.44 -546.18c3.24,-147.77 73.57,-128.88 120.71,-66.59 82.07,108.43 71.85,319.31 61.34,470.27 -9.93,142.54 1.98,398.25 -167.67,386.37zm-278.92 672.62c11.58,8.02 -18.42,16.67 22.28,7.17 0.7,-0.18 23.28,-15.31 24.33,-16.06 94.52,-68.89 150.91,-205.79 183.48,-314.93 72.27,-242.32 -15.61,-240.88 125.47,-302.69 442.61,-193.91 302.6,-994.49 -13.16,-1004.52 -44.33,-1.43 -79.34,18.85 -105.5,39.29 -38.36,30 -33.01,55.4 -57.72,84.8 -60.14,71.57 -123.29,-24.18 -110.52,168.17 17.84,269.19 3.88,835.49 -27.51,1103.1 -4.26,36.34 -41.4,234.04 -41.13,235.68z"/>
   <path class="fil2" d="M7403.99 2959.95l51.07 -188c-290.82,-217.37 -237.02,-774.65 134.25,-779.56 85.51,-1.13 195.91,27.49 241.77,73.97 66.44,67.34 -72.02,99.03 -63.9,225.77 7.75,120.99 185.97,317.51 265.56,377.68 57.74,-85.66 69.19,-365.4 84.43,-417.82 6.32,-2.86 -14.01,-21.52 53.13,5.24 63.63,25.36 103.05,45.76 171.19,4.49 -3.26,-49.26 -42.85,-55.86 -35.53,-136.28 5.14,-56.54 42.4,-89.97 41.72,-131.59 -71.14,-8.17 -76.38,3.94 -144.12,-23.18 -33.03,-13.23 -88.73,-38.67 -123.37,-44.21 -82.92,-13.25 -168.38,58.64 -293.68,25.94 -101.01,-26.34 -148.28,-72.27 -276.28,-56.49 -173.26,21.32 -310.66,152.17 -350.23,322.49 -47.13,202.76 10.73,368.45 105.67,532.12l96.41 156.52c19.37,31.42 15.34,33.53 41.9,52.92z"/>
   <path class="fil2" d="M7459.8 3027.94c33.85,36.09 40.24,22.6 58.82,55.4 -16.76,20.58 -21.02,17.72 -59.32,28.21 -23.7,6.49 -42.98,10.52 -62.78,24.14 -45.24,31.1 -47.86,109.78 -47.16,169.48 41.38,-12.43 71.59,-25.86 121.49,-25.86 357.91,0 320.52,471.87 42.62,551.12 -120.21,34.3 -192.26,-11.17 -272.58,-53.12l-27.17 129.13c76.99,54.1 236.21,69.11 329.31,32.56 238.01,-93.48 219.07,-299.03 372.09,-466.99 42.83,-47.03 147.83,-188.33 142.24,-278.97 -115.4,-13.36 -180.66,76.18 -201.03,26.89 -2.05,-4.94 -3.69,-13.71 -4.81,-18.89l-64.76 -291.62c-40.22,12.63 -72.77,36.99 -118.05,32.25 -47.47,-57.04 -47.54,-156.04 -87.05,-222.01 -74.65,65.48 -124.05,230.98 -121.86,308.28z"/>
   <path class="fil2" d="M4178.36 271.1c146.87,-44.91 207.54,178.03 69.32,222.03 -120.72,38.41 -191.93,-98.98 -135.9,-175.45 19.05,-26.01 31.48,-35.83 66.58,-46.58zm-56.03 -200.17c-23.91,40.84 -9.87,108.38 -117.06,133.49l147.78 812.56 128.55 -1.03 150.49 -805.12c-35.08,-22.51 -47.46,-15.61 -79.34,-47.77 -37.81,-38.16 -19.92,-54.08 -42.63,-91.57 -75.95,-9.65 -111.64,-8.29 -187.79,-0.55z"/>
   <path class="fil2" d="M3567.38 1215.64l35.18 120.87c112.52,-35.19 119.89,-53.45 280.17,-92.7 205.12,-50.2 463.33,-49.26 669.5,2.4 160.45,40.2 182.73,64.55 283.33,94.63 4.96,-17.77 9.25,-40.65 16.09,-61.24 8.25,-24.84 17.66,-36.23 24.88,-64.85 -71.45,-18.2 -147.4,-59.06 -293.97,-94.18 -226.26,-54.21 -488.57,-54.85 -716.45,-3.36 -77.03,17.41 -243.85,61.22 -298.74,98.43z"/>
   <path class="fil2" d="M2765.94 4444.57c38.62,47.26 72.8,91.09 95.81,177.7 25.26,95.03 18.14,159.86 -74.12,179.81 20.6,46.11 43.56,64.8 93.07,89.81l550.58 -88.94c-16.47,-23.65 12.96,2.76 -23.91,-23.3 -5.39,-3.81 -17.72,-10.75 -24.16,-14.44 -76.78,-43.91 -123.49,-24.41 -209.73,-11.78 -102.3,14.99 -217.55,18.99 -233.8,-81.5 -33.71,-208.62 110.14,-370.53 191.03,-462.55l-76.48 -120.51c-3.84,-6.86 -7.57,-14.34 -11.4,-20.08l-19.67 -21.47c-47.19,36.38 -113.64,112.37 -154.59,171.28 -51.85,74.58 -70.62,129.78 -102.64,225.97z"/>
   <path class="fil2" d="M4715.78 222.93c-10.78,49.72 -42.48,88.34 -101.67,93.3 -71.05,5.96 -96.05,-39 -123.09,-70.64l-44.03 238.02c102.2,-50.65 194.26,-108.11 332.92,-118.73 281.24,-21.55 428,193.73 201.91,490.72 -57.29,75.26 -155.7,193.78 -224.96,240.73 18.29,15.61 44.86,21.78 70.89,32.07 14.41,5.71 26.21,10.93 39.55,16.21 51.04,20.13 34.83,5.21 40.89,0.88 34.38,-24.71 -13.03,-44.51 34.91,-115.05 21.93,-32.27 59.34,-46.06 114.57,-43.46 -16.12,-56.43 -18.47,-100.37 15.58,-142.99 31.57,-39.5 54.75,-48.41 117.66,-56.46 -40.98,-103.44 -31.15,-203.29 87.24,-245.49 -60.87,-67.36 -95.38,-66.54 -80.27,-195.31 -90.49,25.13 -150.11,35.34 -223.5,-53.65 -24.38,-29.55 -20.15,-46.53 -36.03,-70.74 -35.36,23.25 -42.87,48.47 -102.89,50.82 -62.37,2.4 -76.5,-22.63 -119.69,-50.24z"/>
   <path class="fil2" d="M3238.49 346.73c15.63,134.05 -28.01,137.46 -80.27,195.31 101.94,37.09 135.1,132.06 87.38,245.38 113.55,14.94 164.22,77.46 133.26,199.42 168.67,-6.87 107.55,114.77 158.73,166.77l141.18 -52.97c-73.83,-59.59 -162.29,-160.18 -220.73,-240.9 -57.36,-79.21 -151.36,-196.89 -106.05,-336.28 36.77,-113.2 153.22,-168.6 296.8,-159.11 144.4,9.57 234,69.49 337.53,120.44l-41.43 -237.92c-106.91,132.36 -207.54,54.53 -224.28,-23.93 -40.98,26.21 -54.08,49.85 -111.76,50.37 -64.63,0.58 -73.72,-26.56 -110.82,-50.95 -37.89,57.79 -50.4,182.48 -259.52,124.39z"/>
   <path class="fil1" d="M3743.34 3145.17c169.65,11.88 157.73,-243.83 167.67,-386.37 10.52,-150.96 20.73,-361.84 -61.34,-470.27 -47.14,-62.28 -117.46,-81.17 -120.71,66.59l-7.44 546.18c-1.65,71.84 -26.82,199.72 21.82,243.86z"/>
   <path class="fil2" d="M3606.26 1410.93l-15.97 142.49c95.68,-27.96 247.39,-168.07 619.98,-170.2 112.34,-0.65 253.18,18.7 351.14,50.99 169.56,55.83 167.72,75.11 283.47,123.45l-17.69 -144.12c-127.43,-86.28 -427.04,-142.19 -609,-142.67 -185.11,-0.5 -478.87,52.23 -611.93,140.06z"/>
   <path class="fil2" d="M1671.2 445.63l-32.56 -94.5 -70.74 22.35 27.82 95.08c-64.08,3.71 -118.59,-28.87 -186.94,-35.64 -175.16,-17.32 -221.43,108.08 -84.25,226.14 96.23,82.82 73.68,68.91 154.02,64.68l-114.27 -88.74c-29.15,-21.75 -81.6,-68.34 -70.85,-129.21 78.38,-69.16 214.23,8.95 324.19,11.5l34.99 124.02 94.77 15.38 -49.34 -154.65c14.56,-20.83 30.1,-25.49 47.09,-49.77 26.24,-37.46 122.42,-168.55 180,-142.59 71.15,58.11 -27.82,258.52 -47.21,317.93l53.07 3.48c49.16,-72.9 122.27,-325.77 19.77,-369.58 -122.82,-52.52 -235.11,147.05 -279.56,184.14z"/>
   <path class="fil2" d="M338.16 2459.78c-72,22.03 -43.43,27.89 -143.47,34.78 -34.86,201.33 58.89,221.17 133.14,395.62 27.89,65.51 8.1,88.68 -0.22,150.44 30.72,-3.68 59.72,-86.9 88.84,-142.46 70.72,-134.9 258.16,-393.61 208.75,-494.22 -8.27,11.71 -24.69,162.86 -134.52,267.69 -110.03,105.02 -147.38,-126.88 -152.52,-211.86z"/>
   <path class="fil2" d="M4998.51 4803.74l557.02 85.4c41.98,-26.69 66.83,-39.4 89.91,-85.76 19.12,-38.41 34.45,-89.77 36.58,-137.2 -77.16,-31.27 -81.65,-12.71 -105.12,-108.81 -35.71,-2.13 -61.45,-9.2 -87.78,-18.19 12.2,167.38 7.59,233.55 -178.97,220.1 -141.81,-10.22 -216.92,-51.14 -311.64,44.46z"/>
   <path class="fil2" d="M7964.15 2698.06c-1.55,78.56 32.27,294.13 163.27,274.5 36.81,-5.51 82.34,-24.49 100.47,-47.51 -33.5,-40.62 -68.51,-52.72 -60.9,-134.82 19.49,-210.12 122.8,-221.8 62.65,-402.34 -12.58,-37.74 -9.45,-45.71 -46.53,-55.43 -20.57,27.84 -45.46,222.4 -61.79,277.78 -33.63,114.2 -43.96,196.07 -157.18,87.83z"/>
   <path class="fil2" d="M5497.93 2382.1l316.51 18.85c6.47,-58.27 20.98,-80.22 38.54,-123.69 -28.21,-15.34 -47.82,-16.71 -69.56,-39.1 -25.16,-25.94 -20.7,-48.66 -39.05,-71.45 -37.57,28.34 -94.6,102.19 -204.49,54.05 -68.57,-30.05 -111.67,-98.19 -128.95,-171.88l-76.11 -2.2c21.5,48.99 60.07,103.35 87.64,156.53 20.98,40.45 65.2,134.57 75.46,178.88z"/>
   <path class="fil0" d="M4280.07 5227.96l53.45 -0.78 6.96 -216.31c0.65,9.72 41.17,203.58 48.01,221l49.21 0.92c23.33,-54.38 26.19,-146.48 58.22,-195.92l-3.13 197.95 53.75 -0.92 7.11 -273.77 -83.6 -2.41c-9.57,59.36 -27.02,145.7 -54,194.52l-30.98 -130.84c-15.19,-86 -5.08,-66.29 -96.28,-69.24l-8.7 275.8z"/>
   <path class="fil2" d="M3289.81 79.86c-141.69,39.89 -85.06,258.42 63.97,216.29 138.28,-39.09 82.52,-257.49 -63.97,-216.29z"/>
   <path class="fil2" d="M5082.09 81.7c-143.61,45.01 -74.96,265.46 73.85,211.86 133.01,-47.89 69.11,-256.66 -73.85,-211.86z"/>
   <path class="fil0" d="M5552.36 5137.71c56.03,0.13 122.74,17.99 81.89,80.66 -38.37,6.02 -55.81,-2.98 -95.33,-10.08l13.45 -70.57zm-102.69 209.22l56.68 9.07 20.43 -101.12 68.09 12.75c27.64,14.54 17.27,25.16 11.4,113.19l61.98 10.72c-6.31,-55.63 22.88,-108.36 -13.88,-135.97 76.5,-41.43 60.47,-106.76 23.25,-133.79 -26.16,-18.99 -138.73,-45.94 -171.91,-38.87l-56.04 264.03z"/>
   <path class="fil0" d="M5107.64 5552.51c-37.62,101.57 -178.83,57.34 -132.86,-82.69 34.18,-104.02 181.91,-49.7 132.86,82.69zm-100.12 -181.41c-163.21,46.04 -120.34,340.91 77.49,280.37 137.76,-42.15 115.33,-334.8 -77.49,-280.37z"/>
   <path class="fil0" d="M4854.41 5211.59c-148.78,13.08 -113.75,-165.95 -46.89,-185.77 55.16,-16.31 87.24,20.95 91.99,67.66 6.39,62.62 -13.28,88.03 -45.1,118.11zm-73.48 -230.77c-150.58,53.93 -97.23,347.1 98.61,275.08 57.13,-21 92.74,-108.68 75.21,-186.12 -15.74,-69.57 -89.36,-119.23 -173.82,-88.96z"/>
   <path class="fil0" d="M5261.31 5146.64c-131.21,34.78 -91.24,-54.43 -88.29,-71.97 36.16,-7.45 74.28,5.89 95.71,19.95 3.73,23.88 0.57,36.26 -7.42,52.02zm-177.45 140.91l56.68 4.29 14.79 -100.12c25.29,-2.08 69.09,0 84.48,21.62 33.7,64.6 -56.09,92.19 65,105.4 -13.31,-62.82 21.57,-92.29 -22.28,-134.12 52.07,-31.55 69.57,-95.6 22.11,-133.21 -25.34,-20.07 -145.24,-38.67 -179.93,-33.08l-40.85 269.22z"/>
   <path class="fil0" d="M3523.27 5405.06c72.87,-6.54 106.55,-20.48 102.19,54.83 -23.86,13.06 -61.12,20.03 -100.26,16.72l-1.93 -71.55zm-64.25 -41.88l26.04 273.02 51.92 -2.96 -4.81 -107.86 85.36 -5.71c17.76,31.05 16.24,60.02 27.26,99.77l63.68 -4.13c-30.53,-34.28 1.35,-70.39 -52.5,-126.1 38.29,-39.35 42.35,-101.8 -12.56,-130.09 -37.07,-19.1 -136.92,0.15 -184.39,4.06z"/>
   <path class="fil0" d="M3976.33 5502.46c-14.83,-11.8 -5.79,-0.45 -20.62,-20.25 -4.53,-6.06 -8.04,-13.03 -12.05,-19.37l-79.97 -131.81 -61.42 2.61 10.78 271.88 51.37 1.68 -5.42 -182.59c2.56,1.48 5.16,1.43 5.87,4.44 0.7,2.9 3.71,3.41 4.64,4.46 37.99,43.58 -27.37,-36.18 7.77,9.17 4.69,6.06 10.43,15.41 15.56,23.63l87.91 133.72 53.45 -1.43 -11.71 -269.51 -50.64 -4.94 4.48 178.3z"/>
   <path class="fil0" d="M2659.19 5505.49l42.53 175.97c-16.74,-8.2 -8.09,-0.72 -23.2,-14.28l-52.47 -58.26c-24.21,-26.52 -46.21,-46.98 -66.43,-74 -30.57,3.59 -37.94,3.83 -61.55,17.59l64.65 262 49.9 -10.25 -42.48 -181.51c31.32,19.94 51.87,49.07 76.79,76.83 23.7,26.37 50.75,47.69 75.48,73.7l51.7 -10.33 -62.55 -264.65 -52.38 7.19z"/>
   <path class="fil0" d="M5262.04 5682.66l40.15 6.61 35.76 -172.03c14.93,14.63 1.51,-11.91 17.67,22.55 1.25,2.65 4.83,16.79 6.89,23.4 5.06,16.14 10.72,29.62 16.86,46.99 12.46,35.26 24.64,66.73 32.86,101.42l59.17 7.16 49.69 -269.42 -53.27 -8.05 -33.08 180.96 -72.45 -199.37 -58.71 -12.8 -41.55 272.58z"/>
   <path class="fil0" d="M2734.96 5114.76l23.15 106.71 -103.2 20.4 -23.4 -97.71 -54.31 9.14 59.77 266.99 55.91 -9.39 -26.92 -121.61 104.42 -23.4 26.36 116.95 52.6 -10.42c-1.6,-43.91 -17.57,-91.9 -26.82,-133.79 -6.69,-30.29 -20.95,-107.48 -36.76,-133.26l-50.79 9.37z"/>
   <path class="fil4" d="M6055.1 5341.87c26.21,28.49 39.35,36.03 74.86,55.93 7.7,4.33 35.31,22.25 38.22,25.21 46.36,47.32 -64.11,91.59 -97.61,2.85 -8.74,-23.11 -1.5,-16.26 -52.83,-29.5 -20.27,122.32 146.33,159.7 199.55,97.61 95.5,-111.42 -150.61,-148.11 -102.35,-204.74 19.74,-23.16 59.9,-3.18 84.13,6.46l11.1 43.76 48.11 13.74c27.02,-141.58 -224.31,-186.37 -203.18,-11.32z"/>
   <path class="fil0" d="M3138.76 5408.04l39.25 267.28c32.93,7.21 171.11,-14.11 202.26,-27.82l-2.61 -41.57 -150.68 17.76 -10.28 -71.24 127.95 -18.07 -4.49 -46.91 -130.98 18.02 -8.04 -57.51 138.11 -19.92 -3.33 -45.28 -197.17 25.26z"/>
   <path class="fil0" d="M5738.15 5570.8l5.56 105.67 -64.95 -14.13 59.39 -91.54zm-175.01 171.19l55.53 11.07c14.41,-17.04 22.33,-32.35 32.96,-47.92l98.86 23.26 4.96 59.14 58.92 13 -29.89 -291.34 -62.28 -12.48c-30.45,38.61 -55.26,80.97 -79.86,118.78 -24.54,37.74 -60.27,86.13 -79.21,126.5z"/>
   <path class="fil0" d="M4259.92 5394.96l29.04 96.7 -67.59 0.18 38.56 -96.88zm-133.59 200.13l56.84 1.91 20.4 -54.56 101.69 -1.15 19.07 55.15 58.56 1.76 -91.4 -274.76 -69.02 -2.83 -96.13 274.48z"/>
   <path class="fil0" d="M4257.6 411c-24.23,16.96 -38.14,35.23 -74.71,16.87 -24.33,-12.2 -32.1,-41.13 -21,-67.88 18.85,-45.43 110.84,-49.57 95.71,51zm-79.24 -139.89c-35.09,10.75 -47.52,20.57 -66.58,46.58 -56.03,76.48 15.18,213.86 135.9,175.45 138.21,-44 77.54,-266.94 -69.32,-222.03z"/>
   <path class="fil0" d="M2299.33 5279.78c35.31,-11.28 43.9,-18.39 81.47,-9.5 13.38,19.1 15.81,36.79 11.47,64.73l-76.38 22.63 -16.56 -77.86zm-72.15 -25.76l75.86 260.35 53.52 -14.66 -24.53 -96.28c87.53,-19.5 160.05,-55.05 107.15,-153.56 -32.96,-61.4 -152.51,-27.81 -212,4.14z"/>
   <path class="fil0" d="M3783.71 5094.47l-4.31 -80.19c64.03,-2.38 103.45,-16.44 89.19,63.05 -28.06,19.3 -39.54,18.02 -84.88,17.14zm-49.06 151.28l56.08 -2.76 -2.46 -99.53c85.9,-4.11 163.36,-10.45 140.36,-117.41 -17.82,-82.85 -127.55,-59.49 -206.56,-56.08l12.58 275.78z"/>
   <path class="fil2" d="M3076.85 602.68c-127.26,45.26 -62.88,226.71 60.74,188.9 124.75,-38.17 64.3,-233.41 -60.74,-188.9z"/>
   <path class="fil2" d="M5296.87 604.76c-63.22,25.58 -80.14,77.43 -59.42,129.68 16.52,41.67 67.91,77.93 129.31,54.81 118.91,-44.75 51.25,-233.5 -69.89,-184.49z"/>
   <path class="fil2" d="M5319.63 303.78c-124.62,54.38 -46.44,222.75 70.27,184.22 123.75,-40.85 56.24,-239.44 -70.27,-184.22z"/>
   <path class="fil2" d="M3042.02 305.05c-59.84,26.32 -76.36,79.79 -50.3,134.7 18.22,38.44 71.79,71.62 130.56,44.25 104.43,-48.66 47.74,-235.29 -80.26,-178.95z"/>
   <polygon class="fil0" points="4437.73,5371.5 4517.97,5376.33 4510.19,5603.63 4566.18,5606.83 4578.19,5382.78 4661.66,5382.63 4662.24,5338.87 4440.9,5323.93 "/>
   <polygon class="fil0" points="2814.03,5469.96 2820.14,5512.61 2904.69,5502.81 2947.8,5722.21 3003.26,5715.97 2959.98,5489.63 3039.82,5474.47 3030.44,5427.83 "/>
   <path class="fil2" d="M5107.64 5552.51c49.06,-132.39 -98.68,-186.7 -132.86,-82.69 -45.98,140.03 95.23,184.26 132.86,82.69z"/>
   <path class="fil2" d="M4854.41 5211.59c31.82,-30.09 51.48,-55.5 45.1,-118.11 -4.74,-46.71 -36.82,-83.97 -91.99,-67.66 -66.86,19.82 -101.89,198.85 46.89,185.77z"/>
   <path class="fil0" d="M3201.12 5303.84l191.2 -23.06 -3.23 -45.13 -135.14 14.16 -33.86 -222.48 -52.65 6.34c-7.06,46.13 25.93,211.51 33.68,270.17z"/>
   <polygon class="fil0" points="6034.48,5575.09 5979.3,5565.09 5905,5827.98 6092.89,5878.43 6099.91,5832.67 5971.83,5797.46 "/>
   <path class="fil2" d="M5301.48 4207.15c13.56,27.77 24.49,32.48 48.41,52.25 33.51,-46.89 42.82,-87.98 151.98,-114.72 -9.83,-21.07 -82.29,-91.75 -96.58,-99.48l-103.8 161.94z"/>
   <path class="fil2" d="M5162.22 857.89c-104.62,40.07 -37.31,166.29 44.4,135.78 90.46,-33.75 36.23,-166.67 -44.4,-135.78z"/>
   <path class="fil2" d="M3233.58 859.92c-35.28,15.03 -64.03,38.26 -46.83,89.72 10.68,31.95 47.81,59.31 90.32,45.08 92.92,-31.05 41.12,-170.85 -43.5,-134.8z"/>
   <path class="fil2" d="M3578.05 74.95c-19.94,10.18 -28.01,11.08 -36.97,36.31 -24.78,69.57 46.26,117.35 98.43,90.74 83.57,-42.65 25.69,-171.59 -61.45,-127.05z"/>
   <path class="fil2" d="M4797.65 75.51c-39.74,21.22 -55.2,54.68 -33.36,95.48 14.16,26.46 54.18,51.04 95,31.83 80.19,-37.72 29,-175.72 -61.64,-127.31z"/>
   <polygon class="fil0" points="4735.33,5617.66 4792.7,5622.2 4815.92,5347.89 4757.73,5344.76 "/>
   <path class="fil0" d="M5807.23 5428.53l54.95 11.23 70.29 -267.31 -52.2 -10.95 -12.8 29.77c-3.15,10.72 -5.36,21.6 -7.89,31.47l-52.35 205.79z"/>
   <path class="fil0" d="M3498.84 4991.11l26.87 271.69 57.28 -3.74 -25.01 -252.33c-6.19,-31.62 -22.88,-20.8 -59.14,-15.61z"/>
   <path class="fil0" d="M6208.14 743.44c1.02,38.26 41.6,72.47 78.68,80.01 37.31,7.57 109.24,-15.43 132.66,-35.18 -25.04,-51.77 -164.54,-99.19 -211.33,-44.83z"/>
   <polygon class="fil0" points="2398.11,5863.29 2455.2,5847.88 2374.06,5585.54 2321.68,5596.81 "/>
   <polygon class="fil0" points="2949,5077.68 2997.04,5339.7 3049.72,5334.48 3004.63,5064.56 "/>
   <path class="fil0" d="M1894.16 940.59c10.38,29.05 35.86,33.43 59.16,47.13 25.43,14.94 46.36,26.32 78.26,26.72 21.77,-21.97 35.43,-53.65 25.71,-90.64 -47.87,-9.65 -129.54,-5.31 -163.12,16.79z"/>
   <path class="fil2" d="M4257.6 411c15.13,-100.57 -76.86,-96.43 -95.71,-51 -11.1,26.74 -3.33,55.68 21,67.88 36.58,18.35 50.49,0.08 74.71,-16.87z"/>
   <path class="fil2" d="M3359.75 1061.81c-12.01,33.33 -17.21,76.2 21.7,89.59 57.01,19.65 72.48,-25.98 68.67,-73.53 -28.95,-24.29 -52.95,-37.69 -90.37,-16.06z"/>
   <path class="fil2" d="M4986.25 1077.99c-7.4,85.25 57.84,102.27 100.47,44l-7.95 -60.59c-53.55,-16.66 -50.85,-16.04 -92.52,16.59z"/>
   <path class="fil2" d="M4553.12 179.68c-3.83,42.23 4.21,45.54 26.01,69.91 84.82,7.35 100.96,-57.59 43.78,-100.22l-39.94 -0.68 -29.85 31z"/>
   <path class="fil2" d="M3783.92 176.29c-5.79,59.99 13.91,78.03 73.32,73.3l26.47 -30.22c3.79,-38.85 -8.1,-50.05 -30.34,-69.64l-39.67 -1.45 -29.79 28.01z"/>
   <path class="fil2" d="M5261.31 5146.64c7.99,-15.76 11.15,-28.14 7.42,-52.02 -21.43,-14.06 -59.56,-27.41 -95.71,-19.95 -2.95,17.54 -42.92,106.75 88.29,71.97z"/>
   <path class="fil2" d="M5538.92 5208.28c39.52,7.11 56.96,16.11 95.33,10.08 40.85,-62.67 -25.86,-80.52 -81.89,-80.66l-13.45 70.57z"/>
   <path class="fil2" d="M3525.2 5476.62c39.14,3.31 76.4,-3.66 100.26,-16.72 4.36,-75.31 -29.32,-61.37 -102.19,-54.83l1.93 71.55z"/>
   <path class="fil2" d="M3783.71 5094.47c45.34,0.88 56.83,2.16 84.88,-17.14 14.26,-79.49 -25.16,-65.43 -89.19,-63.05l4.31 80.19z"/>
   <path class="fil2" d="M2299.33 5279.78l16.56 77.86 76.38 -22.63c4.34,-27.94 1.91,-45.63 -11.47,-64.73 -37.57,-8.89 -46.16,-1.78 -81.47,9.5z"/>
   <polygon class="fil2" points="5678.76,5662.34 5743.71,5676.47 5738.15,5570.8 "/>
   <polygon class="fil2" points="4221.36,5491.84 4288.95,5491.66 4259.92,5394.96 "/>
  </g>
 </g>
</svg>
