<?xml version="1.0" encoding="UTF-8"?>
<!DOCTYPE svg PUBLIC "-//W3C//DTD SVG 1.1//EN" "http://www.w3.org/Graphics/SVG/1.1/DTD/svg11.dtd">
<!-- Creator: CorelDRAW 2020 (64-Bit) -->
<svg xmlns="http://www.w3.org/2000/svg" xml:space="preserve" width="52.8094mm" height="52.8096mm" version="1.1" style="shape-rendering:geometricPrecision; text-rendering:geometricPrecision; image-rendering:optimizeQuality; fill-rule:evenodd; clip-rule:evenodd"
viewBox="0 0 3666.6 3666.62"
 xmlns:xlink="http://www.w3.org/1999/xlink"
 xmlns:xodm="http://www.corel.com/coreldraw/odm/2003">
 <defs>
  <style type="text/css">
   <![CDATA[
    .fil0 {fill:#0B2B77}
    .fil1 {fill:#FEFEFE}
   ]]>
  </style>
 </defs>
 <g id="Слой_x0020_1">
  <metadata id="CorelCorpID_0Corel-Layer"/>
  <path class="fil0" d="M1085.93 1409.74l211.67 1.66 -0.53 722.08 -19.58 0.37 -176.46 0.03 -14.38 -0.13 -0.81 -19.86 -0.02 -677.56 0.11 -26.58zm1963.14 -1.68c1.7,-3.26 3.91,-8.15 6.07,-11.54l8.81 -10.47c8.98,25.29 33.41,67.33 47.18,94.02 16.36,31.73 33.19,61.97 48.01,93.07 33.13,69.51 282.25,539.57 285.72,560.7l-223.48 0.15 -38.24 -85.44 -258.94 0.48 -36.1 84.44c-59.59,0.52 -166.54,3.01 -218.49,-0.42l379.45 -724.98zm-2746.21 -21.86c12.52,3.08 399.92,308.52 428.07,322.99l-0.02 -299.34 205.48 0.08 -0.5 749.62c-20.81,-8.57 -383.93,-307.01 -428.82,-332.84l-0.52 307.16 -204.09 -1.49 0.4 -746.19zm1860.01 23.63l467.95 -0.13 -0.67 184.87 -262.73 0.26 1.85 86.8 224.25 0.76 -1.14 176.22 -224.78 0.31 0.15 90.18 266.36 1.33 -0.28 183.37 -470.97 -0.22 0 -723.76zm-433.8 749.48l-363.46 -749.48 229.46 0.74 139.73 323.68 7.93 -9.16c0.48,-0.76 0.92,-1.64 1.33,-2.44l132.47 -312.8 218.19 -0.17c-7.51,24.45 -171.61,358.01 -182.78,378.88 -26.9,50.37 -169.77,358.41 -182.88,370.75zm-1729.07 -387.75c0,145.38 1.29,179.71 17.33,324.97 13.66,123.53 47.07,239.15 87.17,353.94 18.61,53.3 39.29,106.82 64.86,157.47l116.32 211.89c27.25,45.54 59.66,88.5 91.38,130.92l154.91 176.81c72.12,72.12 154.44,146.81 238.72,202.4 172.72,113.96 239.24,149.96 432.11,227.82 78.56,31.71 174.76,55.97 258.43,73.29 166.06,34.42 274.82,35.56 444.4,35.56 73.58,0 135.05,-10.69 200.87,-17.92 154.71,-17 323.9,-76.22 467.6,-135.86 16,-6.67 23.66,-11.41 38.81,-17.66 115.27,-47.62 274.56,-153.58 371.47,-231.99l59.61 -49.78c12.09,-9.35 17.92,-17.96 28.87,-27.6l29.96 -26.48c137.11,-137.92 235.31,-261.12 334.22,-431.57 27.33,-47.14 52.97,-97.64 73.77,-148.55l47.92 -117.94c61.38,-155.79 107.85,-389.48 107.85,-555.61 0,-166.29 0.5,-177.75 -17.92,-345.58 -3.26,-29.61 -11.06,-64.92 -16.43,-92.96 -17.2,-89.79 -44.3,-175.01 -72.81,-258.91 -19.1,-56.23 -42.66,-106.08 -65.65,-156.66 -39.27,-86.36 -87.74,-166.78 -139.68,-244.99 -5.31,-7.98 -5.49,-9.38 -11.14,-17.09 -49.67,-67.65 -99.11,-138.26 -158.98,-197.43l-54.67 -58.26c-92.16,-92.18 -195.73,-174.67 -305.46,-245.06 -116.26,-74.6 -238.76,-133.85 -368.19,-182.34 -161.06,-60.31 -387.1,-106.38 -560.61,-106.38 -189.26,0 -278.68,5.14 -459.01,42.11l-88.43 20.96c-15.34,4.54 -26.93,7.69 -43.95,12.5 -55.04,15.56 -111.27,37.52 -163.78,58.54 -165.29,66.17 -355.17,177.22 -486.09,293.81 -47.99,42.72 -100.26,83.93 -142.7,132.58l-12.87 15.37c-5.05,5.79 -8.23,8.82 -13.83,14.38 -19.95,19.77 -33.26,36.4 -51.4,58l-97.2 125.15c-114.99,155.53 -196.68,336.29 -256.86,519.5 -25.13,76.49 -52.77,194.21 -61.27,273.97 -7.17,67.04 -17.64,128.78 -17.64,204.7z"/>
  <path class="fil1" d="M302.46 2132.39l204.09 1.49 0.52 -307.16c44.89,25.83 408.01,324.27 428.82,332.84l0.5 -749.62 -205.48 -0.08 0.02 299.34c-28.15,-14.47 -415.55,-319.9 -428.07,-322.99l-0.4 746.19z"/>
  <polygon class="fil1" points="2162.87,2133.59 2633.84,2133.81 2634.12,1950.44 2367.76,1949.11 2367.61,1858.92 2592.38,1858.62 2593.52,1682.39 2369.27,1681.63 2367.41,1594.83 2630.15,1594.57 2630.82,1409.7 2162.87,1409.83 "/>
  <path class="fil1" d="M2992.46 1887.81c1.03,-5.2 52.14,-131.4 63.79,-141.39l59.61 141.37 -123.4 0.02zm-322.85 245.23c51.94,3.43 158.89,0.94 218.49,0.42l36.1 -84.44 258.94 -0.48 38.24 85.44 223.48 -0.15c-3.47,-21.13 -252.6,-491.18 -285.72,-560.7 -14.82,-31.09 -31.65,-61.34 -48.01,-93.07 -13.77,-26.68 -38.2,-68.73 -47.18,-94.02l-8.81 10.47c-2.16,3.39 -4.37,8.28 -6.07,11.54l-379.45 724.98z"/>
  <path class="fil1" d="M1729.07 2159.31c13.11,-12.34 155.98,-320.38 182.88,-370.75 11.17,-20.86 175.26,-354.42 182.78,-378.88l-218.19 0.17 -132.47 312.8c-0.42,0.81 -0.85,1.68 -1.33,2.44l-7.93 9.16 -139.73 -323.68 -229.46 -0.74 363.46 749.48z"/>
  <polygon class="fil1" points="1085.82,1436.32 1085.84,2113.88 1086.65,2133.74 1101.03,2133.87 1277.49,2133.85 1297.07,2133.48 1297.59,1411.4 1085.93,1409.74 "/>
  <path class="fil0" d="M2992.46 1887.81l123.4 -0.02 -59.61 -141.37c-11.65,9.99 -62.76,136.19 -63.79,141.39z"/>
 </g>
</svg>
