<?xml version="1.0" encoding="UTF-8"?>
<!DOCTYPE svg PUBLIC "-//W3C//DTD SVG 1.1//EN" "http://www.w3.org/Graphics/SVG/1.1/DTD/svg11.dtd">
<!-- Creator: CorelDRAW 2020 (64-Bit) -->
<svg xmlns="http://www.w3.org/2000/svg" xml:space="preserve" width="50.639mm" height="53.8076mm" version="1.1" style="shape-rendering:geometricPrecision; text-rendering:geometricPrecision; image-rendering:optimizeQuality; fill-rule:evenodd; clip-rule:evenodd"
viewBox="0 0 33304.44 35388.37"
 xmlns:xlink="http://www.w3.org/1999/xlink"
 xmlns:xodm="http://www.corel.com/coreldraw/odm/2003">
 <defs>
  <style type="text/css">
   <![CDATA[
    .fil0 {fill:#005594}
   ]]>
  </style>
 </defs>
 <g id="Слой_x0020_1">
  <metadata id="CorelCorpID_0Corel-Layer"/>
  <g id="_2845655398448">
   <path class="fil0" d="M-0 27043.22l0 7679.05c0,324.7 242.88,551.86 599.54,551.86l551.86 0c265.9,0 434.07,-126.93 523.52,-304.31 57.02,-113.19 56.89,-185.6 56.89,-352.19l0 -5404.84c54.06,4.41 83.33,95.56 132.79,181.32l567.38 1002.64c149.23,250.58 303.78,551.8 456.76,808.75 20.45,34.4 35.25,63.27 54.52,97.73l745.81 1319.05c39.07,69.78 75.7,130.29 113.85,200.13l339.5 602.57c37.36,70.04 78.26,128.84 114.24,199.8l459.13 806.45c68.66,115.55 165.67,303.19 234.07,403.49 158.57,232.49 437.82,439.4 826.05,439.4l951.6 0c353.9,0 590.01,-231.44 590.01,-608.95l0 -6813.14 12294.08 0c197.37,0 371.13,-138.64 371.13,-342.59l0 -618.49c0,-249.33 -189.81,-361.53 -428.28,-361.53l-13321.71 0c-384.42,0 -639.4,205.53 -637.82,589.68 7.5,1777.59 0.26,3569.51 0.26,5347.95l-28.54 0c-11.25,-42.09 -82.34,-151 -107.73,-196.71 -39.4,-71.1 -72.41,-134.43 -111.61,-202.37 -17.82,-30.98 -35.12,-65.04 -54.79,-97.53l-1779.43 -3168.65c-20.52,-34 -33.87,-62.02 -54.92,-97.4 -20.45,-34.2 -35.25,-63.27 -54.52,-97.73 -21.97,-39.26 -35.78,-63.93 -57.35,-104.37l-724.11 -1283.73c-136.21,-229.86 -245.51,-460.9 -496.88,-587.84 -144.49,-72.94 -294.38,-120.36 -507.6,-120.36l-1065.84 0c-165.67,0 -303.26,69.65 -387.9,154.42 -80.96,81.03 -163.96,220.46 -163.96,378.43z"/>
   <path class="fil0" d="M14891.86 3692.04l1056.24 0c-12.36,52.94 -271.23,513.32 -314.04,599.48 -22.03,44.39 -45.05,82.01 -66.69,123.51 -30.06,57.61 -110.75,192.64 -123.64,247.62 143.38,-3.22 846.96,-228.41 1608.23,-228.41 428.61,0 897.41,79.12 1063.01,497.54 75.11,189.87 122.39,391.78 160.34,619.8 180.67,1086.36 275.11,2234.48 676.95,3243.56 216.11,542.98 645.25,1222.5 1051.9,1679 32.62,36.63 61.03,70.83 91.29,108.58l282.87 307.14c54.85,71.03 252.02,267.87 334.7,340.81l209.47 190.2c175.34,174.48 388.76,337.06 580.47,494.84 64.91,53.34 311.61,254.66 344.76,254.66 67.15,0 133.18,-11.25 133.18,-95.17 0,-73.33 -128.97,-172.12 -178.36,-221.11l-576.2 -632.43c-32.36,-38.21 -63.01,-69.65 -92.27,-107.53 -28.48,-36.83 -59.26,-68.14 -91.02,-108.78 -60.57,-77.54 -119.57,-142.45 -178.17,-221.51 -425.98,-574.22 -683.14,-922.07 -1021.78,-1594.95 -162.18,-322.26 -293.66,-659.06 -406.32,-1002.05 -365.21,-1111.68 -328.25,-2847.77 -738.64,-3676.52 -23.68,-48.08 -48.14,-81.16 -76.16,-123.71 -349.49,-530.82 -1163.44,-585.86 -1815.93,-493.13l-477.35 84.05c70.96,-134.1 438.15,-709.9 456.7,-789.81l-780.21 0c87.67,-130.88 247.82,-420.65 339.56,-573.96 39.92,-66.69 75.63,-125.88 107.6,-196.91 46.24,-103.26 78.53,-231.04 115.42,-341.27l132 -324.7c33.08,-66.29 74.38,-140.02 114.11,-199.94 59.32,-89.31 135.55,-172.51 199.94,-256.83 43.47,-56.89 103.12,-101.74 154.49,-149.95 184.61,-173.04 454.99,-306.55 694.25,-371.53 747.72,-203.16 1491.69,3.75 2054.87,453.54 201.25,160.87 391.06,336.34 567.38,526.94l1066.57 1264.73c117.2,145.55 344.03,379.94 474.58,505.5l1238.22 978.83c147.91,119.76 323.05,266.43 455.71,400.73l741.8 733.05c24.2,29 29.73,38.93 57.55,66.36 21.7,21.51 41.96,39.26 61.76,61.82 23.68,26.9 29.79,39.72 57.09,66.62 44.59,43.74 74.52,83 119.17,128.12 117.26,118.38 391.32,453.87 509.44,594.35l108.32 129.7c21.37,26.57 35.45,41.7 56.03,67.68l217.36 277.35c38.08,48.73 69.71,93.06 108.06,139.43l207.7 277.67c35.84,52.15 68.14,89.71 104.64,142.65l458.8 654.59c17.95,26.44 32.69,49.26 49.39,74.25l487.15 730.82c247.42,371.2 647.88,981.72 863.54,1344.17l560.15 914.71c124.1,205.72 244.66,407.9 363.83,616.32 27.82,48.8 57.22,98.19 88.13,149.69l315.1 550.88c17.69,29.86 27.95,52.09 44,79.78l392.77 710.96c120.82,244.33 262.61,475.44 383.89,719.9 57.22,115.42 110.89,212.23 168.1,326.67l488.4 986.46c28.94,58.01 51.5,113.12 79.25,168.17 14.14,27.89 26.7,51.5 41.43,82.34 268.93,560.35 559.95,1219.61 785.14,1784.03 118.25,296.48 242.49,586.39 347.59,889.45 15.46,44.66 59.91,147.98 63.01,184.48 -31.96,-2.7 -38.54,-11.31 -58.93,-26.77l-1735.56 -1204.74c-296.29,-214.34 -585.54,-417.69 -876.76,-636.24 -216.97,-162.97 -442.88,-317.13 -651.96,-489.91 -37.55,-31.04 -68.79,-51.69 -107.99,-82.34l-1614.88 -1315.89c-104.77,-88.06 -365.34,-307.4 -451.7,-395.27l-199.8 -180.73c-142.39,-144.03 -338.84,-310.43 -489.97,-461.63 -65.77,-65.7 -124.89,-124.3 -190.27,-190.33l-195.2 -185.47c-35.51,-34.99 -53.8,-63.8 -90.37,-99.97l-864.85 -923.91c-154.49,-192.96 -326.01,-372.25 -479.85,-566.86 -58.99,-74.52 -111.21,-135.88 -169.95,-210.72l-573.63 -749.1c-29.27,-38.87 -51.89,-71.62 -80.24,-109.96l-314.64 -446.7c-103.45,-154.56 -200.86,-302.47 -304.44,-456.83l-852.62 -1421.65c-218.48,-359.56 -521.87,-1000.34 -709.11,-1374.62 -106.28,-212.5 -195.27,-437.29 -301.28,-650.38l-175.21 -395.66c-54.13,-133.77 -213.48,-111.74 -212.69,14.73 1.05,205.53 219.73,941.15 285.17,1178.31 97.6,353.37 353.9,1013.42 524.5,1350.09l275.96 561.33c242.69,486.09 566.27,995.47 862.75,1440.13 55.05,82.41 107.47,159.75 167.25,241.9l173.43 245.25c307.4,451.17 1083.6,1398.17 1450.46,1794.36l352.19 380.47c20.59,23.35 24.14,33.61 47.42,57.22 19.47,19.66 32.82,32.56 52.55,52.22l99.7 109.57c36.9,37.22 67.74,67.35 104.9,104.51l204.61 214.08c113.32,113.32 522.79,538.51 623.62,622.89l109.11 100.3c36.96,36.96 66.75,68.66 104.44,104.83l818.36 751.8c152.19,146.99 489.71,422.69 666.36,580.08l285.3 238.08c38.8,34.66 75.37,60.64 114.11,95.17l345.09 283c389.61,304.31 774.95,615.79 1171.79,912.14l239.13 179.42c218.15,163.96 171.66,93 262.61,365.41 225.59,674.98 479.85,1342 704.05,2017.44 69.58,209.47 146.33,408.62 216.51,620.92l164.03 464.06c20.06,53.47 31.7,101.55 52.94,156.33 239.53,618.55 -46.24,527.33 -574.95,527.33 -358.9,0 -366.79,-328.25 -470.24,-595.4 -85.17,-219.86 -201.78,-573.37 -278,-797.38l-275.9 -799.35c-22.82,-69.39 -46.83,-131.01 -68.93,-197.44l-135.68 -397.24c-25.19,-76.09 -49.13,-153.44 -141.53,-153.44 -39.26,0 -95.1,46.7 -95.1,85.63 0,96.55 176.32,915.1 199.02,1028.49l315.69 1520.83c15.52,76.49 40.91,176.26 46.43,258.08 7.3,108.98 12.23,170.67 -43.08,251.3 -44.26,64.39 -240.51,255.84 -296.81,312.14 -74.52,74.52 -227.82,264.13 -354.49,264.13 -142.06,0 -186.85,-121.15 -213.42,-243.28l-296.62 -1321.15c-68.4,-301.02 -160.01,-629.8 -221.84,-929.37 -50.38,-244 -120.55,-499.12 -181.65,-741.54l-555.68 -2213.3c-30.06,-120.16 -57.22,-298.79 -186.45,-298.79 -70.96,0 -111.81,72.81 -103.78,150.41 7.89,76.23 21.05,156.07 33.08,234.27l434.99 2705.18c23.94,143.51 46.83,299.31 75.77,447.55 28.21,143.38 50.05,295.5 76.29,447.03 24.79,142.45 52.02,295.1 79.05,444.33 81.03,446.96 152.65,886.16 239.46,1330.63 28.74,146.99 51.43,302.67 86.03,437.36 81.16,315.89 235.98,521.21 591.98,521.21 151.53,0 329.24,-96.35 407.04,-173.43l747.33 -718.06c288.53,-235.58 822.83,-164.75 1300.63,-164.75 246.24,0 327,4.54 474.65,-105.89 362.71,-271.56 125.55,-823.55 -2.83,-1155.62l-242.09 -671.36c-25.06,-76.09 -54.32,-146.33 -81.09,-223.48 -104.05,-300.23 -218.88,-589.74 -318.78,-889.71 -25.06,-75.5 -50.51,-150.08 -80.04,-224.53l-160.28 -448.61c-4.93,-13.22 -167.78,-422.5 -150.87,-439.14 12.17,-11.84 49.52,25.06 55.64,29.86 21.31,16.44 38.34,28.74 59.85,44.99l380.73 275.9c211.25,156.79 441.04,288.92 660.77,433.48 45.97,30.19 92.67,55.44 137.52,81.29 93.79,54 186.85,103.65 284.97,152.71 115.03,57.48 676.3,354.1 829.93,154.23 119.11,-155.08 23.15,-576.85 -13.29,-723.32 -200.59,-805.4 -514.77,-1548.38 -831.51,-2308.67l-1015.92 -2124.25c-60.44,-120.88 -119.17,-228.08 -177.57,-345.74 -29.14,-58.6 -57.81,-105.95 -88.85,-168.1 -73.2,-146.73 -281.82,-542.19 -366.07,-680.64l-661.43 -1175.08c-34,-56.63 -60.18,-107.4 -93.92,-163.04l-1084.85 -1798.24c-201.84,-320.75 -397.9,-646.44 -609.08,-961.07 -35.84,-53.34 -65.11,-102.47 -100.89,-156l-312.07 -477.68c-73.27,-109.96 -138.51,-212.56 -211.25,-321.67 -224.99,-337.46 -449.79,-676.03 -693.72,-1000.07 -242.69,-322.2 -481.82,-651.83 -747.13,-956.07l-121.54 -144.89c-90.04,-117.07 -201.38,-236.44 -302.27,-344.82l-832.5 -870.77c-47.75,-47.95 -89.71,-80.24 -137.98,-128.45 -22.3,-22.36 -38.93,-40.91 -61.76,-62.09l-1580.28 -1312.41c-247.03,-201.19 -376.19,-330.16 -603.75,-576.06 -24.14,-26.11 -29.86,-40.25 -56.89,-66.82 -28.68,-28.21 -36.5,-44.33 -61.89,-71.42 -45.38,-48.41 -81.22,-90.69 -124.3,-142.13 -82.14,-97.6 -156.73,-187.44 -237.16,-286.16l-351.14 -429.01c-153.77,-190.53 -477.28,-525.62 -638.54,-674.72 -25.78,-23.87 -40.32,-30.12 -66.89,-56.89l-140.15 -126.21c-25.39,-19.53 -45.31,-37.62 -73.2,-60.05 -191.12,-154.1 -483.13,-365.15 -711.15,-459.33 -96.28,-39.72 -184.22,-84.18 -282.54,-117.07 -292.14,-97.53 -570.74,-151.6 -849.07,-162.84l-219.47 0c-247.82,9.87 -498.33,53.27 -760.74,129.76 -247.82,72.08 -529.44,224.4 -734.76,378.63l-127.79 100.56c-254.72,196.84 -441.17,462.88 -604.94,736.8 -27.69,46.1 -48.93,100.69 -70.44,148.31 -22.16,48.8 -44.66,110.16 -63.33,165.08 -183.03,537.85 -137.06,417.23 -433.48,908.33l-664.26 1124.57z"/>
   <path class="fil0" d="M30135.72 30059.69c192.11,0 401.65,40.71 574.68,101.02 131.14,45.64 325.22,154.62 431.7,253.21 123.12,114.17 215.13,222.43 300.3,375.41 66.89,120.09 158.83,383.5 158.83,526.41l-2930.9 0 59.06 -273.93c87.54,-314.04 312.86,-600.27 591.92,-768.96 225.98,-136.54 546.54,-213.16 814.41,-213.16zm3168.72 1750.69l0 265.97c-6.25,87.67 -20.13,164.75 -44.59,222.43 -104.11,245.97 -316.15,282.54 -602.44,282.54l-3996.55 0c0,85.43 29.4,228.81 49.39,302.67 37.36,138.31 89.84,254.26 156.79,376 122.46,222.63 396.52,479.78 632.49,576.06 329.43,134.5 410.26,134.5 759.89,134.5 237.75,0 547.78,-83.13 731.02,-201.58 123.64,-79.97 238.54,-172.18 329.43,-289.05 97.14,-125.09 162.38,-247.42 308.39,-300.56 166.72,-60.7 840.72,-36.7 1057.69,-36.7 110.16,0 211.25,8.62 277.67,55.38 173.5,122.2 111.08,361.92 56.63,526.41 -97.73,295.3 -310.76,586.59 -526.94,805.27 -176,178.03 -555.28,435.25 -798.36,533.78 -190.4,77.28 -203.95,90.83 -427.95,162.05 -410.85,130.42 -739.17,161.86 -1195.01,162.84l-21.84 0c-474.78,0 -978.04,-141.6 -1297.35,-301.28l-260.25 -139.43c-85.89,-50.9 -162.58,-102.07 -239.53,-160.08l-469.98 -434.07 -370.6 -523.78c-14.67,-24.27 -23.22,-44.92 -36.7,-68.14 -12.3,-21.44 -21.05,-33.48 -34.46,-60.57 -282.21,-564.69 -393.29,-1059.73 -393.29,-1766.87 0,-465.71 133.71,-984.16 279.25,-1309.84 69.78,-156.2 113.45,-250.38 201.97,-397.5 124.04,-206.25 255.64,-385.4 425.19,-554.95 193.89,-193.75 218.02,-212.96 423.15,-366.59 40.51,-30.32 76.36,-53.93 118.65,-81.09l255.12 -144.56c141.8,-70.77 266.82,-118.97 419.87,-170.08 929.64,-310.36 2115.9,-178.17 2915.91,355.02 41.76,27.89 76.03,54.32 115.69,84.18 20.72,15.52 33.21,24.6 54.46,40.64l255.12 230.19c150.41,150.41 318.06,369.09 422.89,557.26 176.13,316.08 305.63,602.04 382.84,977.84 26.57,129.1 72.54,399.21 86.35,655.71z"/>
   <path class="fil0" d="M11085.65 30059.69c330.81,0 778.89,126.21 1006.39,354.23 15.13,15.26 22.49,24.33 38.93,37.29 22.62,17.89 25.26,15 45.12,40.51 78.2,100.1 136.6,139.82 216.51,297.34 38.08,74.98 76.88,156 102.66,239.92 20.78,67.48 55.77,200.99 55.77,286.75l-2921.3 0c0,-172.38 91.94,-407.7 152.12,-523.52 94.77,-182.24 226.31,-329.17 387.44,-449.92 249.53,-186.91 605.86,-282.61 916.35,-282.61zm-3187.73 1912.61c0,693 114.44,1102.54 351.99,1636.78 47.81,107.66 112.4,229.01 177.05,327.26 132.33,201.25 272.61,394.41 443.87,564.69 546.73,543.58 1326.68,887.35 2129.12,887.35l23.87 0c501.42,-1.58 946.14,-52.94 1413.03,-237.82 323.51,-128.31 573.83,-257.22 844.66,-478.07 32.49,-26.5 50.77,-45.58 81.16,-71.03 32.69,-27.49 45.12,-36.37 75.63,-67.15 178.76,-179.81 326.21,-364.29 441.83,-595.34 84.25,-168.43 262.81,-578.83 40.12,-738.18 -32.42,-23.22 -72.41,-39.86 -115.62,-46.17 -161.07,-23.41 -760.15,-11.97 -958.71,-11.97 -394.35,0 -406.91,141.93 -647.09,418.68 -19.2,22.16 -52.94,48.93 -78.26,73.99 -201.05,200.2 -606.78,335.22 -892.15,335.22 -209.74,0 -310.43,9.73 -519.18,-42.22 -103.59,-25.91 -171.46,-56.43 -259.92,-92.27 -128.64,-52.29 -305.49,-184.02 -408.09,-286.55 -225.98,-225.98 -395.99,-553.24 -430.52,-968.18 1297.35,0 2594.56,0 3891.84,0 399.81,0 742.2,-21.37 742.2,-561.46 0,-419.14 -40.91,-777.05 -165.21,-1157.39l-104.37 -285.76c-69.45,-154.95 -104.51,-243.08 -192.5,-387.97 -73.99,-121.93 -149.89,-240.98 -239,-350.94 -89.71,-110.49 -215.52,-257.15 -327.99,-347.65 -269.26,-216.77 -407.17,-342.65 -776.13,-489.38 -854.86,-340.15 -1887.35,-350.35 -2714.52,21.9 -41.17,18.48 -88.72,37.49 -130.22,59.98 -25.85,14.01 -35.65,22.43 -60.05,35.05 -218.09,112.86 -465.9,289.58 -640.12,463.86 -119.96,119.96 -170.14,168.1 -281.82,308.12 -62.81,78.72 -108.98,146.4 -166.79,232.75 -329.63,492.08 -548.11,1192.51 -548.11,1849.87z"/>
   <path class="fil0" d="M14720.54 30649.63c0,342.06 13.61,492.93 165.01,796.13 216.77,434.47 636.97,718.06 1075.97,893.66 560.28,224.07 1555.49,389.61 2171.74,597.44 168.56,56.76 393.56,191.58 393.56,405.72 0,264.72 -95.96,423.88 -326.67,548.77 -245.05,132.59 -542.98,145.87 -843.74,145.87 -364.55,0 -838.94,-146.33 -1064.53,-448.54 -259,-346.99 -154.56,-446.04 -752.98,-446.04l-513.78 0c-320.95,0 -447.22,81.16 -447.22,399.74 0,166.99 53.34,349.36 104.9,465.97 170.67,386.26 471.16,667.48 835.26,887.02 244,147.06 493,256.04 797.84,344.1 313.06,90.43 666.17,140.61 1023.42,148.9l212.04 0c347.32,-8.22 691.88,-56.3 1000.67,-146.07 244.86,-71.1 414.41,-130.88 631.51,-243.93 254.85,-132.72 554.43,-359.95 715.43,-597.7 23.61,-34.79 38.93,-51.89 61.62,-90.56 214.21,-364.09 269.45,-598.1 269.45,-1053.21 0,-232.1 -70.44,-491.82 -145.81,-653.47 -221.57,-475.37 -601.98,-758.44 -1072.02,-945.22 -294.18,-116.87 -1274.59,-357.39 -1591.07,-435.78 -109.9,-27.16 -209.01,-54.59 -317.73,-81.88 -108.25,-27.16 -216.97,-56.03 -313.98,-95.17 -208.35,-83.99 -375.01,-184.22 -375.01,-452.88 0,-482.21 586.06,-589.88 970.54,-589.88 487.74,0 841.57,117.26 1083.53,438.94 23.22,30.91 38.87,60.18 58.8,93.33 57.22,94.97 90.37,181.45 233.81,223.02 135.35,39.13 768.77,24.93 936.15,24.93 101.61,0 192.5,-17.49 249.2,-64.72 97.73,-81.16 93.33,-222.82 93.33,-344.49 0,-273.27 -203.88,-594.22 -387.84,-791.98 -26.04,-28.02 -30.65,-45.12 -62.09,-71.1l-142.45 -124.04c-86.22,-77.15 -215.52,-155.74 -317,-215.79 -1054.86,-625.33 -3017.45,-585.67 -3888.82,287.14 -294.84,295.37 -521.02,715.82 -521.02,1191.79z"/>
   <path class="fil0" d="M1922.15 10229.21c0,149.1 30.52,241.57 82.87,373.89 85.17,214.73 25.32,429.53 -29.53,649.99 -84.78,339.89 -71.56,596.91 108.91,907.41 40.32,69.32 79.25,143.38 123.12,209.87 125.09,189.61 371.33,397.04 333.84,657.03 -14.07,97.47 -38.21,179.09 -59.78,273.4 -101.88,444.73 -0.66,948.77 241.7,1322.8 16.51,25.58 27.43,44.26 43.8,70.44 103.26,164.36 229.27,324.7 361.13,466.69l566.33 623.09c25.58,25.32 30.25,36.9 52.29,61.89 19.93,22.62 39.99,40.12 61.82,61.95 21.18,21.11 37.88,35.25 56.17,58.01 18.88,23.68 41.3,46.76 55.57,68.07 -104.11,8.68 -2077.1,857.09 -2325.04,967.26 -99.31,44.2 -189.61,80.63 -282.21,127 -131.8,66.03 -265.18,137.26 -383.3,225.72 -45.31,33.94 -76.16,53.21 -118.84,90.5l-110.89 98.39c-41.76,31.83 -66.03,67.87 -103.12,106.22 -64.98,66.95 -122.46,161.26 -168.3,240.84 -218.88,379.55 -209.47,872.88 -209.8,1322.27l28.54 723.12c109.04,0 233.35,2.1 337.46,-14.53 244.07,-38.8 357.25,-198.42 357.25,-470.7 0,-795.27 -92.34,-1230.53 393.95,-1613.76 145.35,-114.5 314.11,-194.81 485.44,-266.3l354.82 -149.49c63.4,-24.99 118.58,-49.19 180.86,-76.09l1075.25 -447.22c60.57,-26.18 118.51,-49.06 175.4,-72.02 61.16,-24.53 122.72,-52.55 180.67,-76.29l1077.94 -453.93c62.61,-26.5 116.28,-43.01 179.55,-67.87 354.43,-139.43 731.02,-161.79 1104.38,-53.67 491.95,142.32 989.95,444.46 1401,740.03l225.78 173.83c28.54,23.02 51.96,39.53 79.71,63.01 43.74,36.83 526.48,459.19 545.35,529.96 88.98,-47.16 170.27,-125.42 251.5,-186.26 54.26,-40.64 212.04,-147.78 243.28,-194.41 -58.67,-87.8 -304.51,-339.43 -371.07,-390.2 -32.36,-24.66 -48.08,-45.84 -78.33,-73.79l-332.13 -276.88c-396.52,-296.75 -669.72,-472.22 -1108.99,-718.06 -69.65,-39.07 -130.29,-66.69 -205.59,-98.92 -38.87,-16.51 -63.27,-30.06 -104.57,-47.62l-331.6 -125.22c-224.2,-75.37 -417.89,-96.35 -664.92,-96.35 -442.29,0 -811.71,297.73 -1240.06,60.31 -163.04,-90.43 -373.83,-342.92 -499.91,-499.44l-359.95 -420.13c-16.9,-20.06 -29.79,-37.03 -46.5,-58.27 -20.85,-26.83 -33.15,-38.67 -51.76,-62.48 -200.86,-257.81 -433.41,-562.71 -340.81,-940.42l45.97 -134.83c52.15,13.88 156,107.4 203.42,139.03 106.02,70.64 214.93,124.3 323.91,190 86.16,51.96 265.84,125.29 361.59,161.72 305.63,116.21 631.31,200.53 959.82,248.6 49.72,7.37 115.03,20.85 159.03,21.84 0,-65.11 -34,-193.62 -46.83,-257.75 -8.81,-44.33 -16.05,-79.97 -25.32,-126.93 -51.37,-256.69 40.71,-109.44 -474.32,-315.36 -453.6,-181.45 -931.41,-463.34 -1292.35,-801.12l-204.67 -195c-191.25,-191.12 -449.66,-532.72 -449.66,-806.45 0,-74.52 5.06,-156 24.99,-222.43 16.71,-55.11 39.33,-97.8 51.17,-148.7 43.6,11.64 71.29,49 105.95,74.91 176,130.81 362.71,245.05 560.15,343.77 368.3,184.28 953.25,418.75 1408.3,418.75 302.07,0 566.4,-104.7 787.05,-193.1 121.8,-48.8 227.03,-91.48 355.94,-129.3 487.54,-143.18 1020.99,-23.02 1479.39,107.4 463.01,131.8 909.64,319.37 1353.84,501.68 98.78,40.58 136.27,46.3 248.74,46.3 160.54,0 221.11,-140.88 282.34,-250.45 22.95,-41.11 48.87,-72.28 60.11,-120.68 -109.9,-58.07 -211.97,-120.36 -326.67,-177.57l-507.53 -244.26c-373.17,-173.89 -893.07,-379.42 -1289.65,-480.11 -65.64,-16.57 -128.58,-33.48 -194.48,-52.94 -238.94,-70.5 -492.08,-101.28 -755.15,-101.28 -415.39,0 -725.49,170.34 -1072.48,307.27 -392.97,155.08 -708.19,54.85 -1093.07,-54.32 -206.91,-58.8 -412.17,-147.85 -603.49,-243.47l-511.55 -325.82c-120.03,-111.02 -339.17,-321.28 -224.66,-553.11 154.03,-311.87 861.37,-488.92 1128.32,-555.94 340.22,-85.5 1096.42,-220.85 1473.01,-220.85 28.15,-121.15 221.05,-454.72 228.35,-542.39 -960.28,0 -1942.07,162.45 -2729.58,477.22 -304.05,121.54 -514.64,235.25 -766.73,432.3 -23.08,18.09 -25.58,19.14 -46.04,39.59 -86.03,85.96 -225.85,258.01 -225.85,421.18z"/>
   <path class="fil0" d="M218.88 1417.83c0,345.74 102.8,607.7 292.67,820.66 20.78,23.35 35.12,32.29 55.38,58.8 32.82,42.88 76.29,74.71 115.69,112.73 56.82,54.98 128.18,106.35 192.77,149.62 -37.82,78.99 14.93,306.74 32.36,376.85 66.29,267.48 207.37,484.78 371.33,694.45 149.89,191.85 384.15,368.7 598.69,476.62 188.03,94.64 421.84,164.88 700.96,164.88 8.62,103.06 84.71,217.3 148.18,270.64 45.12,37.88 67.48,60.97 118.51,90.76 36.96,21.31 106.68,56.1 161.46,57.28l0 76.16c-537.72,0 -997.9,77.87 -1363.97,253.67 -88.92,42.68 -178.76,93.13 -253.54,146.07 -241.3,170.73 -475.83,424.4 -475.83,742.2 -175.47,40.78 -385.93,260.05 -481.49,403.42 -260.84,391.39 -265.44,839.2 -92.21,1274 288.85,724.77 1203.36,1099.32 1950.29,698.33 164.68,-88.46 81.49,-105.82 258.08,-61.56 411.38,103.12 936.48,34.86 1255.25,-223.61 57.35,-46.7 118.84,-95.17 163.11,-150.94 17.23,-21.51 33.02,-32.56 50.51,-54.19 16.38,-20.39 31.63,-39.07 46.1,-58.4 73.07,-97.34 44,-47.95 170.01,-51.63 13.02,-0.39 41.11,-5.52 67.54,-5.79 265.44,-3.09 538.38,-128.84 730.95,-296.88l147.32 -138.11c119.04,-118.38 311.48,-397.64 311.48,-573.43l0 -47.62c0,-85.96 -100.69,-116.41 -164.55,-59.85l-142.26 152.65c-218.29,218.48 -496.09,317 -800.93,379.02 -107.66,21.97 -421.44,51.63 -547.98,51.63 -96.15,143.64 -211.64,271.62 -352.06,371 -320.16,226.7 -726.87,225.39 -1072.02,54 -56.56,-28.08 -94.9,-55.44 -145.94,-82.54 -96.55,144.16 -370.87,256.89 -542.39,256.89 -378.37,0 -685.31,-185.86 -776.2,-546.4 -69.78,-276.36 -7.43,-579.81 197.24,-765.21 17.36,-15.72 26.57,-24.79 43.6,-42.03 53.14,-53.93 121.74,-93.72 192.24,-121.8 68.53,-27.16 18.22,-108.78 133.71,-342 216.11,-436.37 840.91,-627.96 1284.65,-627.96l332.99 19.01c24.86,-36.96 55.97,-79.45 87.87,-112 20.98,-21.31 32.62,-32.56 54.98,-49.79 94.31,-72.74 202.43,-148.7 322.07,-191.58 105.3,-37.75 204.14,-63.86 327.79,-81.55 118.25,-16.9 254.06,-24.79 254.06,-155.02 0,-275.96 -565.34,-45.18 -1059.27,-653.54 -62.94,-77.67 -181.72,-259.39 -206.32,-364.62 -232.62,0 -429.34,-49.92 -629.34,-131.93 -132.46,-54.26 -244,-131.6 -352.19,-218.75 -69.58,-56.03 -134.36,-121.08 -188.95,-191.71 -83.66,-108.39 -161.46,-224.66 -218.68,-352.26 -77.48,-172.51 -123.78,-387.24 -123.78,-637.43 -47.55,-22.76 -70.24,-27.49 -114.37,-56.96 -270.31,-180.93 -412.89,-454.72 -352.12,-809.15 88.13,-514.51 691.55,-788.63 1128.65,-528.65 102.14,60.77 187.7,129.37 251.37,224.4 108.25,-51.96 321.21,-47.62 456.7,-47.62 326.47,0 695.43,147.12 934.9,359.29 120.95,107.27 208.68,210.26 294.51,352.45 71.88,119.17 166.13,342.39 169.42,487.21 190.07,15.85 354.62,72.35 491.68,145.87 128.45,68.99 259.06,189.68 340.02,307.01 303.06,438.74 221.57,898.33 395.73,898.33 83.79,0 112.33,-71.29 132.33,-134.23 68.66,-216.97 74.19,-386.72 208.29,-600.47l113.58 -152.78c51.83,-53.86 108.06,-73.99 107.73,-158.76 -0.66,-169.35 44.59,-323.12 88.66,-453.74 178.82,-530.55 681.82,-888.46 1271.63,-888.46 15.52,-29.33 27.23,-58.27 45.51,-87.54 18.61,-29.73 33.54,-49.92 54.85,-78.46 112.14,-149.49 327.79,-281.23 537.13,-281.23 212.76,0 361,19.07 530.36,145.35 42.29,31.5 58.99,49.33 95.36,85.37 252.22,249.39 297.14,772.52 28.61,1042.23 -31.37,31.7 -78.72,95.43 -121.41,106.87 0,55.57 27.49,141.14 38.93,198.95 57.61,291.16 9.4,575.74 -159.88,802.9 -128.84,173.04 -322.92,306.35 -524.9,379.09 -153.63,55.31 -102.07,49.98 -164.09,235.52 -104.51,312.2 -295.89,550.02 -564.03,730.16 -146.14,97.99 -481.62,207.89 -481.62,298.72 0,144.76 180.6,123.71 285.43,123.71 403.55,0 877.35,-208.29 1107.8,-547.92 57.42,-84.58 148.31,-269.98 148.31,-403.69 104.64,-8.68 289.71,-127.92 372.51,-188.82 111.08,-81.62 203.36,-173.3 290.63,-280.44 143.11,-175.73 317,-502.08 317,-815.4 0,-77.28 0.26,-158.76 -15,-232.36 -11.11,-53.6 -32.16,-86.22 -42.09,-129.17 35.91,-53.73 93.06,-108.39 133.18,-161.79 267.55,-355.87 285.76,-832.69 104.51,-1236.91 -64.91,-144.76 -195.92,-339.43 -321.15,-449.59 -247.88,-218.42 -549.1,-378.37 -906.16,-378.37l-11.31 0c-234.92,0.72 -408.55,23.35 -612.83,108.58 -101.88,42.62 -201.45,101.09 -286.42,170.34 -31.57,25.58 -52.02,44.99 -81.95,70.31 -32.09,27.16 -45.51,36.63 -75.77,66.95 -28.74,28.74 -43.01,50.71 -71.23,81.03 -34.4,36.96 -58.2,105.43 -110.23,118.19 -23.81,5.85 -47.81,2.3 -72.81,3.29 -233.61,9.54 -554.36,176.26 -721.02,335.22 -77.61,74.06 -160.21,144.62 -226.77,229.86 -194.21,248.41 -316.35,521.35 -377.71,840.39 -12.1,62.87 -11.64,145.15 -16.9,211.51 -2.37,29.92 -8.29,34.27 -8.94,67.08 -139.63,0 -44.39,-12.5 -152.58,-199.54 -106.74,-184.35 -304.57,-325.36 -514.05,-370.8 -178.96,-38.87 -97.14,24.2 -253.54,-336.47 -56.43,-130.16 -146.07,-257.29 -229.93,-369.68 -268.4,-359.36 -662.35,-589.42 -1122.4,-647.42 -96.88,-12.23 -321.87,-16.97 -419.08,-6.31 -35.25,3.88 -98.13,14.67 -134.56,17.63 -63.53,-94.77 -269.32,-214.93 -372.84,-264.72 -172.05,-82.54 -373.63,-124.04 -576.26,-125.42l-19.86 0c-215.92,1.32 -432.1,48.14 -613.82,139.49 -487.15,244.99 -805.66,719.51 -805.66,1278.34z"/>
   <path class="fil0" d="M21038.9 27138.39l0 1826.98c-181.32,0 -441.37,-16.05 -569.42,68.14 -86.29,56.63 -153.77,162.25 -153.77,302.99 0,183.49 -22.82,502.54 35.05,640.52 22.95,54.65 45.58,77.15 86.29,113.58 134.5,120.49 399.67,92.73 601.85,92.73l0 2721.49c0,188.69 7.63,365.67 19.4,542.06 20.13,303.65 122.72,625.98 266.36,875.38 49.26,85.56 117.13,172.9 179.09,249.2 12.36,15.13 19.27,19.86 32.23,34.4 99.77,112.07 208.35,219.8 334.56,302.99 614.28,405.4 1125.43,365.28 1870.78,365.28 496.55,0 418.68,-472.28 418.68,-837.3 0,-570.28 -380.73,-449.33 -713.19,-495.3 -160.41,-22.1 -308.12,-78.86 -426.57,-182.38 -53.4,-46.83 -81.55,-69.25 -127.92,-138.64 -87.14,-130.42 -159.62,-329.76 -159.62,-544.43l0 -2892.76 1046.7 0c260.57,0 418.68,-137.59 418.68,-399.61l0 -418.68c0,-343.25 -238.34,-399.67 -523.32,-399.67l-942.07 0 0 -1931.68c0,-160.87 -67.35,-281.55 -149.82,-364.03 -88.66,-88.66 -209.67,-140.22 -383.1,-140.22l-609.01 0c-393.23,0 -551.86,234.27 -551.86,608.95z"/>
   <path class="fil0" d="M11799.37 19316.56c-377.9,0 -703.98,-89.97 -1038.68,-226.97 -110.75,-45.31 -206.32,-101.09 -309.37,-156.86 -38.21,-20.65 -64.98,-42.55 -98.92,-62.87 -120.42,-72.15 -203.82,-162.25 -309.97,-241.9 -26.83,-20.26 -29,-17.3 -32.09,-53.54 32.42,-8.75 52.35,-33.74 78.33,-54.98 28.61,-23.41 49.46,-39.79 79.38,-63.4 54.65,-43.01 101.15,-78.4 154.16,-121.74 46.3,-37.95 276.69,-204.28 306.68,-245.25 -9.14,-34.2 -49.26,-78.4 -72.02,-108.72 -43.01,-57.22 -219.34,-270.37 -232.49,-319.44 -117,61.95 -434.99,322.99 -572.84,416.77 -67.02,45.58 -125.75,92.8 -191.12,141.86l-568.24 421.44c-63.66,47.75 -126.8,92.73 -191.58,141.34l-1222.04 919.05c-237.56,179.15 -184.94,180.21 -184.94,-42.22 0,-229.33 -5,-499.05 -45.12,-706.68 -14.6,-75.7 -29.53,-147.65 -51.17,-215.19 -32.03,-100.03 -70.57,-197.77 -122.13,-287.08 -50.71,-87.93 -155.74,-248.08 -231.5,-310.89l-144.1 -122.33c-30.19,-23.68 -52.02,-38.41 -83.46,-59.26 -225.32,-149.49 -464.06,-256.3 -717.27,-357.98 -26.9,-10.79 -71.75,-34.92 -94.38,-29.2 -29.07,7.56 -572.32,326.08 -594.74,356.73 35.84,8.42 96.94,34 134.36,46.43 398.49,132.26 813.42,305.56 1105.24,607.63 204.41,211.77 282.87,558.77 282.87,859 0,457.75 -14.21,854.13 -363.9,1177.65l-149.89 116.48c-318.19,211.25 -795.27,380.21 -1189.55,390.14 -53.08,1.25 -61.82,9.14 -113.85,9.87 -114.96,1.38 -256.5,-1.91 -352.06,47.48 -189.68,98.32 -171.59,368.43 -171.59,570.67 684.71,0 1189.35,-33.28 1807.97,-342.59 450.05,-225.06 815,-562.71 1212.57,-861.76l838.74 -655.18c26.31,-20.59 43.28,-35.12 69.25,-54.46 44,-32.69 84.38,-64.91 128.05,-100.43 44.92,-36.37 84.12,-63.99 127.99,-100.3l651.96 -508.85c36.9,-27.36 99.44,-87.08 140.02,-97.93 125.81,187.83 569.36,480.5 751.67,571.07 310.3,153.83 626.51,283.07 979.36,352.85 1131.41,223.61 1795.54,-214.27 2832.38,-366.59 196.12,-28.87 399.28,-45.05 604.08,-61.95l3320.45 -10.13c593.56,0 1189.42,-68.66 1744.9,-253.21 317,-105.36 623.42,-258.54 912.93,-419.27 178.89,-99.44 348.51,-199.21 516.54,-311.35 37.82,-25.32 64.91,-43.41 102.86,-68.53 280.17,-185.66 535.81,-401.25 796.78,-611.45 18.28,-14.67 26.5,-26.04 44.79,-40.78l598.62 -571.86c31.96,-31.7 44.46,-54.72 75.83,-85.83l313.78 -352.45c28.35,-33.41 47.22,-62.02 76.49,-94.77 53.6,-60.18 95.82,-123.32 147.39,-185.66 150.48,-182.11 286.09,-385.99 416.51,-582.51l189.74 -305.17c21.84,-36.44 42.49,-68.14 63.8,-107.4 21.24,-38.93 40.25,-67.41 59.98,-101.74 122.07,-212.69 232.82,-439.73 336.54,-662.68l54.06 -117.26c-99.18,-52.48 -184.68,-116.54 -282.48,-174.29 -94.18,-55.64 -182.64,-126.8 -278.99,-177.77 -16.38,70.24 -210.52,435.52 -268.27,531.01l-194.94 337.92c-18.88,31.7 -33.08,51.69 -51.17,82.01 -16.31,27.56 -31.04,52.94 -50.77,82.54l-213.16 319.63c-139.63,210.85 -298.26,413.03 -457.35,608.42l-60.84 72.41c-25.32,27.16 -37.36,45.64 -61.89,71.36 -26.24,27.62 -35.32,44.85 -61.76,71.42 -111.21,111.87 -206.91,235.38 -318.84,347.19 -46.76,46.76 -86.49,86.55 -133.18,133.31l-346.34 319.7c-27.69,22.1 -39.07,37.82 -70.64,62.61 -153.7,120.09 -277.08,230.85 -443.08,356.14 -27.43,20.65 -49.46,34.46 -77.61,55.71l-395.07 271.03c-279.32,174.75 -561,335.88 -865.05,467.09 -646.44,278.99 -1242.89,320.88 -2086.57,320.88l-2921.1 9.67c-363.3,-1.64 -844.73,68.66 -1193.76,138.44 -299.9,59.98 -574.29,133.12 -851.17,214.54 -297.21,87.41 -596.39,151.14 -924.05,151.14z"/>
   <path class="fil0" d="M24635.77 27071.83l0 7659.91c0,311.48 195.2,542.39 504.38,542.39l704.12 0c341.4,0 523.32,-227.56 523.32,-570.94l0 -7602.82c0,-226.11 -86.16,-448.61 -305.63,-531.74 -168.17,-63.73 -659.85,-39.2 -874.32,-39.2 -116.67,0 -232.56,18.74 -321.8,77.74 -24.4,16.05 -60.18,41.83 -80.63,62.15 -100.1,100.1 -149.43,251.96 -149.43,402.5z"/>
   <path class="fil0" d="M16747.38 17223.15c-36.44,-156.73 -183.16,-466.82 -264.52,-601.39 -56.03,-92.67 -105.43,-174.42 -165.54,-262.74 -57.88,-85.37 -120.42,-171.72 -190.79,-246.83 -71.03,-75.96 -129.04,-150.87 -212.56,-215.72 -83.99,-65.18 -158.17,-130.22 -247.49,-190.07 -553.24,-370.8 -1132.93,-194.48 -1704.52,35.05l-773.11 330.62c-38.15,16.57 -71.62,31.44 -111.15,50.58 -74.71,36.11 -142.39,60.97 -215.85,98.26l-423.48 204.54c-79.84,37.36 -136.6,70.7 -214.01,109.44 -37.16,18.48 -67.02,33.54 -101.48,50.71l-407.43 220.65c-35.25,21.37 -65.83,38.28 -103.19,58.6 -73.07,39.86 -131.27,82.41 -203.16,120.49 8.35,30.78 52.29,79.19 73.46,107.27 29.46,39.26 52.15,69.58 81.62,108.78 52.75,70.11 118.25,144.56 158.96,221.57 325.68,-172.25 661.96,-326.08 992.71,-491.68l149.29 -69.58c48.6,-21.64 95.96,-39.2 145.94,-63.47 245.58,-118.84 491.62,-218.35 745.62,-320.03 380.93,-152.39 966.33,-395.86 1352.99,-272.15 103.26,33.15 192.77,86.49 280.9,147.26 187.44,129.23 378.23,398.1 475.18,590.6 48.14,95.76 100.1,188.03 140.81,287.47 18.81,45.91 43.08,107.4 65.24,153.5 -59.32,0 -306.22,55.77 -387.44,69.39 -196.65,32.82 -408.82,49.59 -615.72,78.86 -141.47,20.06 -281.09,25.52 -424.21,32.62 -61.95,3.03 -156.79,15.72 -218.75,19.07l-218.81 9.67c-87.6,-0.46 -136.54,9.8 -218.94,9.4 -72.41,-0.39 -157.38,-3.95 -228.48,-0.13 -43.08,2.3 -52.02,9.8 -104.31,9.93 -179.94,0.2 -322.53,14.4 -406.65,183.3 -40.78,82.01 -57.22,175.93 -78.86,263.73 -8.88,35.65 -19.14,59.45 -19.14,104.51 225.85,0 520.95,15.78 734.04,-8.09 98.72,-11.18 212.37,1.84 312.99,-1.12 46.89,-1.45 47.48,-8.75 94.57,-10.13l305.1 -8.81c49.19,-0.59 52.35,-7.69 94.77,-10 394.28,-20.72 758.51,-49.92 1150.88,-105.1 859.26,-120.95 1702.94,-304.84 2504.46,-635.72 195.27,-80.63 377.38,-179.81 563.24,-274.06 220.85,-112.07 90.37,-87.87 341.73,-34 150.87,32.29 412.24,48.8 564.69,26.83 593.3,-85.56 1052.95,-266.76 1551.15,-599.35 53.27,-35.58 96.94,-66.1 146.47,-100.89 23.94,-16.84 44.85,-33.21 70.83,-52.88 327.79,-247.16 236.9,-432.69 205.13,-813.03 -114.24,76.49 -354.23,274.12 -504.31,380.6 -17.23,12.3 -31.44,20.39 -51.37,34.2 -24.27,16.84 -31.37,24.14 -55.05,40.25 -73.92,50.18 -142.52,93.06 -221.18,140.28 -316.81,190.6 -678.8,356.2 -1080.71,356.2 -116.02,0 -245.25,-3.62 -352.06,-28.54 15.92,-68.2 221.44,-358.9 271.95,-441.7 164.68,-270.11 457.88,-704.31 672.61,-945.16 177.25,-198.75 220.92,-259.06 428.02,-466.3l185.66 -175.86c157.32,-146.4 326.87,-274.91 499.84,-404.21 35.98,-26.9 67.87,-50.05 105.69,-75.11 181.92,-120.75 364.42,-246.04 560.81,-343.18 32.88,-16.31 93.65,-45.97 111.02,-69.78 -58.07,-15.52 -197.9,-116.61 -260.77,-157.78 -87.01,-56.96 -169.22,-109.57 -253.01,-165.74l-187.24 88.72c-246.04,122.92 -468.6,290.83 -682.81,459.13 -122.07,95.82 -275.11,220.46 -383.63,330.03l-214.08 204.54c-49.92,49.92 -92.8,92.86 -142.72,142.78l-275.9 295.04c-15.72,17.82 -14.34,20.06 -29.14,37.55 -14.14,16.71 -23.15,22.76 -36.57,39.46l-376.66 479.78c-346.47,463.14 -597.64,991 -1096.75,1320.17 -370.8,244.66 -988.1,440.38 -1444.54,553.77 -57.02,14.07 -172.44,50.25 -230.32,55.11z"/>
   <path class="fil0" d="M5966.24 10400.54l179.42 -10.98c182.44,-19.93 395.2,-8.09 581.85,-8.09 3.81,-46.04 307.66,-672.55 352.06,-761.27l536.14 -1033.88 523.91 -827.37c165.93,-240.32 357.71,-459.26 545.15,-682.28l462.15 -546.54c131.41,-147.45 284.65,-344.89 395.4,-508.59 62.48,-92.4 119.17,-170.27 178.5,-268.8 340.48,-566.66 452.29,-948.31 620.66,-1615.47 120.95,-478.93 247.49,-841.97 692.54,-1105.89 439.92,-260.9 979.42,-196.19 1431.65,3.81 50.38,22.23 101.48,43.01 154.62,64.26 54.65,21.7 113.32,43.74 168.56,59.78 117.46,34 192.18,27.36 299.11,43.47 115.29,17.36 241.5,-2.17 357.39,-7.63 -60.24,119.57 -369.36,467.28 -390.01,544.56 26.31,6.91 45.25,27.1 70.37,43.8l335.09 235.85c28.02,18.55 39.53,29.14 66.49,47.75 26.83,18.55 53.6,30.19 70.44,53.14 -50.31,4.27 -178.03,60.31 -222.17,82.41 -74.45,37.42 -132.26,71.16 -198.49,115.49 -33.41,22.36 -55.51,40.32 -86.68,65.64 -84.25,68.4 -178.3,145.68 -245.84,229.93 -94.44,118.12 -183.16,234.6 -262.02,366 -56.96,94.97 -183.82,338.38 -183.82,463.27 0,124.37 165.6,109.24 299.05,-62.55 20.13,-26.04 34.07,-36.5 53.14,-61.16 368.89,-477.41 899.71,-734.04 1466.57,-921.87 83,-27.43 252.09,-99.18 331.8,-105.82 -10.52,-39.59 -178.17,-147.91 -209.34,-171.33 -93.92,-70.24 -612.96,-448.34 -647.03,-494.78 69.85,-131.87 231.5,-342.46 321.61,-477.61 92.21,-138.38 253.73,-347.98 325.42,-483.4 -260.11,0 -520.16,-0.59 -780.28,0 -249.99,0.59 -496.81,-36.17 -677.15,-103.19 -475.83,-176.79 -667.35,-363.11 -1302.02,-363.11 -465.31,0 -906.02,189.02 -1239.34,483 -317,279.52 -502.86,633.09 -638.74,1093.14 -65.37,221.51 -115.16,450.91 -185.66,670.77l-102.27 325.88c-20.26,60.77 -35.19,104.11 -58.01,160.94 -99.77,248.93 -215.59,493.46 -375.14,709.51 -62.35,84.25 -115.75,164.03 -182.31,245.84 -96.88,118.84 -189.94,241.04 -294.38,352.72l-599.61 694.45c-186.45,209.41 -412.56,500.23 -564.82,729.44l-418.35 666.3c-15.52,26.18 -21.05,42.03 -36.57,68.07l-433.87 860.38c-12.23,24.79 -18.61,45.25 -31.5,73.13 -24.14,51.76 -45.71,97.14 -69.91,149.03l-260.05 605.79c-27.56,69.98 -118.32,248.8 -123.71,314.04z"/>
   <path class="fil0" d="M14473.18 6432.47l0 0zm0 0c-10.72,45.91 -43.08,109.9 -62.55,156.33l-129.23 308.52c-17.69,44 -54.65,117.99 -65.18,163.24 31.57,2.56 119.57,44 152.25,57.09l297.73 120.95c51.04,20.45 107.2,47.75 159.09,59.78 -8.22,30.78 -16.84,27.43 -41.7,44 -86.42,57.61 -158.7,133.18 -231.96,205.79 -89.97,89.25 -168.24,187.51 -244.46,288.46 -52.81,70.17 -103.65,137.65 -149.89,211.64 -443.74,709.57 -637.56,1341.67 -568.37,2237.31 15.72,203.16 53.27,433.74 96.35,617.43 13.02,55.51 48.01,242.55 76.09,275.96 27.1,32.23 93.06,45.38 137.85,17.76 37.22,-22.89 49.72,-73.27 50.97,-129.7 18.68,-828.68 111.15,-1656.51 497.54,-2347.73 103.45,-185.27 207.89,-369.22 340.81,-534.63 80.24,-99.9 154.56,-206.45 243.47,-298.85 71.23,-73.99 140.28,-153.63 218.68,-219.07l554.62 -434.93c-94.11,-21.97 -695.83,-303.26 -864.52,-372.45l-125.09 -55.71c18.88,-39.33 35.38,-83.39 53.08,-127.79l314.77 -769.95c14.47,-32.09 48.14,-106.61 50.84,-139.49 -89.91,0 -211.64,41.57 -302.01,59.59 -332.59,66.1 -617.63,138.38 -963.7,140.42 -560.68,3.16 -958.97,-354.49 -1882.68,20.06 -75.11,30.52 -174.22,85.04 -240.98,130.09 -111.02,74.65 -210.98,153.77 -305.03,246.96 -34.99,34.59 -51.04,61.03 -85.7,95.04 -179.02,176.19 -326.93,473.99 -405.53,707.8 -65.7,195.46 -90.83,405.66 -118.19,614.54 -27.56,210.33 -29.27,454.2 -65.11,667.55 -44.66,265.9 -115.49,464.06 -244.26,669.26 -164.22,261.96 -366.99,497.73 -544.17,750.02 -150.68,214.6 -315.49,424.01 -460.64,643.15 -51.37,77.54 -98.72,147.65 -148.5,222.49 -52.09,78.46 -259.19,395.2 -275.83,466.43 33.94,7.89 121.15,53.93 155.28,73 136.73,76.62 316.87,155.74 444.27,241.04 40.38,-60.38 82.8,-119.57 123.58,-180.86 20.78,-31.11 38.47,-57.48 60.9,-91.42l384.94 -547.59c309.51,-418.55 693.66,-975.61 945.35,-1395.41 74.78,-124.63 147.72,-270.9 192.7,-425.78 63.4,-218.61 90.3,-458.01 90.56,-689.71l31.44 -434.79c20.39,-161.07 73.13,-355.15 137,-481.62 18.09,-35.98 32.56,-69.39 51.04,-101.15 15.06,-25.91 40.25,-66.36 59.39,-92.8 23.81,-33.15 40.84,-56.43 65.24,-87.08 26.37,-33.21 46.83,-54.85 73.53,-88.33 181.19,-226.97 549.89,-385.27 830,-416.51 195.33,-21.7 409.47,-5.52 578.83,28.68 379.75,76.36 578.37,80.3 934.7,-37.69 40.71,-13.42 79.71,-35.71 122.39,-39.33z"/>
   <path class="fil0" d="M25596.85 4577.02l437.75 475.77c76.49,-51.3 300.76,-367.71 372.51,-464.78 172.51,-233.61 341.01,-517.93 502.86,-762.78 15.52,-23.41 476.36,-742 485.24,-780.21l95.17 0c0,258.4 -8.48,405.72 89.51,652.69 40.51,101.94 133.12,244.92 212.5,320.55l151.66 114.57c506.88,300.1 1175.87,138.77 1704.39,-5 756.93,-205.92 1386.79,-463.73 2103.86,-703.39l419.73 -141.6 0 -694.65c-65.9,15.46 -141.99,45.84 -208.09,67.87l-819.54 293.79c-68.2,27.16 -141.93,50.12 -210.59,74.91l-1041.97 356.73c-73.73,24.07 -141.8,47.22 -216.77,68.66 -254.59,72.74 -680.64,194.35 -928.58,194.35 -153.63,0 -277.28,3.95 -416.12,-78.86 -220,-131.27 -211.91,-396.32 -211.91,-606.32 0,-494.84 309.83,-1305.9 501.68,-1753.52 19.93,-46.5 228.41,-489.18 230.98,-520.62l-694.65 0 -288.33 510.82c-97.93,176 -202.63,332.46 -304.51,504.25 -321.15,541.8 -762.45,1181.13 -1110.37,1706.29 -209.41,316.21 -529.96,752.46 -765.41,1052.16 -34,43.28 -61.49,74.25 -91.02,118.32z"/>
   <path class="fil0" d="M27366.8 27205.01l0 390.07c0,151.79 116.67,256.96 266.36,256.96l5119.41 0c206.32,0 371.07,-139.56 371.07,-361.59l0 -637.49c0,-255.84 -127.92,-456.83 -390.14,-456.83 -128.05,0 -232.29,20.85 -351.79,28.94 -318.58,21.44 -718.12,81.82 -1056.17,104.64l-701.81 68.99c-342.13,43.54 -705.96,68.07 -1047.89,103.45 -110.36,11.44 -239.33,29.53 -353.57,36.57 -107.86,6.64 -243.28,22.43 -345.22,35.38 -122.86,15.52 -234,19.86 -357.32,32.88 -225.39,23.81 -476.49,43.6 -698.99,71.75 -153.77,19.53 -453.93,5.72 -453.93,326.28z"/>
   <path class="fil0" d="M5176.5 12874.62c26.9,115.42 47.48,277.94 140.02,364.23 113.98,106.02 277.41,34.4 388.82,2.83 346.07,-98.19 367.78,-148.31 784.29,-148.31 163.43,0 284.78,64.65 380.73,133.12 88.26,62.94 180.14,184.87 243.47,279.91 136.86,205.26 210.06,389.55 314.7,598.76 16.84,33.48 25.32,62.15 41.24,92.08l-194.28 43.67c-71.56,14.21 -130.22,23.68 -203.75,34.2 -414.41,58.6 -962.52,74.38 -1371.93,74.38 0,75.37 39.92,323.25 93.52,401.25 73.2,106.74 235.12,131.67 363.24,131.67 404.41,0 527.33,5.59 923.85,-27.75 56.17,-4.8 100.1,-7.43 155.67,-15.65l432.69 -71.62c39.72,-7.89 103.26,-26.9 143.44,-27.75 6.84,25.58 32.82,53.73 47.68,76.16 17.63,26.7 30.78,44.26 51.56,72.02 156.2,208.42 291.35,356.86 483.46,534.7l287.08 226.9c535.16,355.28 1054,546.14 1747.07,546.14 644.27,0 1192.97,-179.15 1730.43,-400.99l658.01 -322.26c-41.04,-175.6 -102.01,-348.11 -142.78,-523.32 -38.74,9.01 -297.73,153.5 -358.31,184.02 -252.29,127.06 -648.61,286.42 -920.03,364.62 -814.21,234.27 -1592.58,249.2 -2300.97,-271.16 -84.38,-62.02 -153.17,-127.33 -233.61,-194.67 -28.54,-23.81 -86.62,-82.08 -108.85,-109.96 -128.12,-160.47 -148.83,-157.52 -293.72,-362.91 -198.03,-280.83 -388.03,-661.1 -545.42,-976.99 -139.82,-280.44 -246.63,-497.34 -450.78,-738.71 -53.67,-63.53 -40.84,-55.11 -108.91,-109.96 -24.93,-20.06 -32.09,-31.57 -60.97,-53.21 -87.08,-65.37 -171.72,-113.78 -286.03,-151.66 -268.93,-88.98 -522.53,-70.57 -794.48,-16.38 -132.19,26.37 -242.03,63.99 -366.2,100.1 -145.87,42.29 -623.09,251.56 -669.98,262.55z"/>
   <path class="fil0" d="M17784.62 14853.85c-285.43,0 -372.45,-309.44 -413.42,-566.79 -10.26,-64.98 -23.55,-148.18 -24.4,-213.48 -0.72,-55.11 -8.29,-65.9 -9.8,-113.91l-18.68 -599.81c-117.07,0 -467.94,47.62 -588.63,67.87 -189.54,31.96 -377.97,62.35 -560.87,105.23l-532.86 133.31c-340.94,92.4 -1019.48,347.91 -1324.51,502.47 -38.74,19.6 -76.09,32.88 -117.46,53.73l-662.88 336.41c-38.34,18.94 -69.91,36.17 -105.1,56.63 -36.11,21.05 -76.69,37.95 -113.78,57.48 13.94,59.59 132.26,487.54 133.25,532.92l437.29 -238.34c198.16,-115.16 614.67,-306.35 826.91,-391.12l395.14 -147.19c263.53,-87.87 363.83,-111.81 632.82,-185.6 65.51,-17.89 144.95,-34.46 217.43,-48.93 70.7,-14.01 158.11,-31.44 232.16,-43.87l474.45 -67.74c0,874.19 548.84,1917.74 1574.3,1298.2l225.52 -155.08c36.63,-29.33 68.53,-54.52 105.49,-84.78l395.27 -366c22.23,-22.3 24.01,-29.27 43.08,-52.09l275.5 -295.5c19.07,-21.57 21.64,-29.99 42.88,-52.22 21.44,-22.62 24.2,-29.33 43.28,-51.89l308.98 -366.59c30.52,-37.55 55.05,-67.15 85.7,-104.7l382.9 -483c13.61,-17.82 25.19,-34.99 40.91,-54.26 30.58,-37.42 54.52,-69.45 83.85,-106.35l457.02 -589.81c20.45,-26.57 33.61,-32.49 36.57,-68.07 -31.9,-8.48 -281.42,-196.45 -318.19,-224.2 -30.71,-23.08 -79.25,-72.02 -109.96,-80.24 -11.44,43.01 -450.91,582.44 -491.88,630.92 -142.91,168.96 -373.89,480.17 -509.7,622.76l-447.62 513.39c-24.47,29.4 -53.34,53.6 -80.63,81.16 -30.25,30.52 -43.54,53.86 -75.9,85.83 -218.55,216.05 -651.44,673.27 -944.43,673.27z"/>
   <path class="fil0" d="M27204.95 6489.63c9.47,40.38 61.95,97.34 87.14,131.73l283.99 401.19c35.45,-3.03 198.42,-71.75 243.34,-89.77 268.4,-107.66 465.05,-168.63 747.33,-251.76 594.68,-174.88 1071.17,-155.61 1683.41,-153.17 66.49,0.33 92.4,-10.33 161.46,-9.73 346.73,2.76 1152.06,-111.61 1476.96,-188.36l283.46 -58.99 0 -542.39 -414.6 80.17c-161.99,30.38 -1659.8,332.66 -1659.8,72.08 0,-80.7 41.76,-101.94 120.95,-136.01l2104.32 -845.45c57.15,-23.15 117.92,-43.08 179.55,-67.87l270.18 -100.89c34.46,-12.56 52.94,-26.31 94.05,-29.66l0 -713.72 -179.61 67.74c-61.95,22.43 -121.08,44.26 -187.44,69.52 -127.06,48.41 -243.8,93.65 -369.68,144.16l-1447.69 588.63c-271.16,107.79 -615.2,263.8 -891.82,383.3l-961.6 437.1c-586.06,281.42 -1028.09,496.95 -1623.89,812.17z"/>
   <path class="fil0" d="M9401.39 13892.78c0,593.56 539.89,837.3 1084.72,837.3 541.01,0 1002.05,-94.44 1478.54,-253.34 402.96,-134.36 794.94,-293.39 1166.8,-479.32 120.03,-59.98 242.95,-118.91 361.73,-180.73l180.27 -95.63c29.4,-17.1 54.32,-30.58 86.16,-47.09 32.88,-17.03 54.52,-38.21 95.04,-47.68 -9.8,-42.09 -117.46,-178.69 -149.36,-221.64 -169.22,-227.69 -381.32,-105.23 -580.14,-13.15 -54.19,25.12 -98.52,49.19 -152.19,76.16l-306.41 140.94c-50.71,20.65 -102.6,47.81 -157.58,70.77 -111.28,46.5 -210,90.1 -323.51,133.25 -218.81,83.2 -444.2,164.16 -681.16,222.82 -249.46,61.89 -1246.38,279.06 -1408.36,-104.51 -51.17,-121.08 -13.81,-249.33 44.59,-355.35 85.56,-155.21 324.9,-350.81 467.35,-446.11 65.04,-43.54 124.04,-81.55 190.4,-123.58 62.55,-39.4 128.38,-77.74 192.24,-112.33 238.02,-128.84 374.95,-192.31 612.04,-310.95l637.23 -276.29c70.37,-27.95 154.23,-71.75 225.72,-88.33l-333.12 -437.75c-164.16,38.28 -1071.83,458.21 -1244.73,563.24l-651.57 404.74c-68.2,50.97 -197.96,144.16 -256.63,200.13 -165.54,157.65 -295.37,260.25 -431.31,482.08 -68.53,111.87 -146.73,288.07 -146.73,462.35z"/>
   <path class="fil0" d="M17632.36 11856.46c-564.03,0 -769.95,-36.17 -1293.4,-96.09 -824.27,-94.18 -1468.21,-173.5 -2292.16,50.31 -159.23,43.28 -329.3,114.83 -474.45,182.05 -78.86,36.5 -377.97,202.5 -412.37,253.8l314.04 409.21c34.07,-8.02 69.25,-26.57 101.94,-40.84 156.73,-67.68 377.18,-131.21 543.12,-170.54 206.91,-49.13 686.16,-132.52 886.75,-131.41 56.69,0.26 93.13,-0.92 136.21,-6.91l282.94 6.91c177.64,-0.79 883.47,85.17 1051.96,108.91 1118.52,157.19 1862.23,110.82 2906.43,-346.34 87.47,-38.28 297.67,-133.71 378.56,-182.9 25.19,-15.32 100.63,-58.93 125.62,-64.78l-302.21 -297.4c-34.13,-34.07 -71.69,-73.2 -97.47,-111.74 -210.79,111.54 -844.66,297.8 -1082.35,344.96 -244.26,48.54 -513.72,92.8 -773.17,92.8z"/>
   <path class="fil0" d="M24864.19 9915.24c0,149.75 214.4,457.02 308.59,614.34l735.36 1072.62c108.58,144.62 356.2,451.76 476.16,580.01l513.85 551.99c13.09,13.15 20.65,19.86 33.15,33.41 8.75,9.47 10.13,11.51 17.63,20.45 1.25,1.45 3.03,3.62 4.34,5.13l872.75 811.52c28.02,27.29 51.63,45.64 81.03,71.23 27.82,24.33 53.6,44.99 83.79,68.53l1103.92 856.17c66.29,45.77 401.58,300.69 460.58,300.69 121.34,0 149.1,-126.67 63.99,-197.24l-389.81 -361.86c-30.32,-30.71 -51.76,-41.96 -81.09,-71.1l-1722.21 -1741.48c-170.08,-170.14 -344.76,-374.29 -509.11,-537.66 -107.6,-107.01 -242.75,-271.75 -361.66,-390.01l-143.05 -161.46c-25.32,-30.25 -50.84,-47.55 -74.71,-77.61l-215.13 -241.57c-29.92,-29.27 -39,-48.14 -66.43,-76.36 -14.6,-15.06 -24.27,-22.16 -37.82,-38.28 -16.11,-19.34 -15.32,-22.89 -33.61,-42.49l-832.1 -985.47c-102.53,-126.67 -101.48,-149.16 -202.76,-149.16 -47.02,0 -85.63,38.61 -85.63,85.63z"/>
   <path class="fil0" d="M5262.13 4852.92c25.58,48.27 57.55,91.29 89.51,138.9 33.21,49.72 62.15,95.23 93.19,144.76l670.51 1194.42c56.63,113.25 417.1,865.45 440.91,967.39l221.44 -311.35c40.32,-54.06 73.79,-97.4 115.69,-150.81 21.77,-27.56 37.69,-46.63 59.52,-73.66 20.45,-25.32 45.25,-51.04 60.05,-73.13l-155.21 -291.88c-160.61,-289.12 -329.63,-546.54 -524.44,-817.43l-640.39 -805.86c-25.06,-25.85 -31.04,-29.99 -54.13,-59.98 -12.56,-16.31 -100.49,-111.81 -110.16,-118.32 -29,19.4 -240.05,217.5 -266.49,256.96z"/>
   <path class="fil0" d="M15196.3 9506.09l2940.37 0c-3.42,-40.64 -34.07,-94.57 -49.06,-131.87 -30.85,-76.55 -147.19,-344.63 -160.28,-401.06l-2455 0c-46.89,88.66 -90.37,170.87 -136.4,263.27l-139.63 269.65z"/>
   <path class="fil0" d="M6109.02 3834.69l323.51 190.33 1206.72 -1885.84c26.18,-40.91 68.33,-100.69 68.33,-150.48 0,-65.24 -67.54,-98.78 -116.61,-88.66 -43.87,9.01 -102.73,62.09 -137.52,91.55 -193.56,163.7 -519.83,494.12 -679.72,690.5 -248.93,305.63 -430.52,639.79 -594.94,994.02 -25.91,55.71 -42.88,107.93 -69.78,158.57z"/>
   <path class="fil0" d="M2274.2 6641.88c0,54.52 40.97,104.64 95.17,104.64 48.41,0 97.01,-26.44 139.23,-41.57 484.38,-174.22 1066.37,-365.01 1555.75,-528.19l569.82 -191.52 -104.77 -352.06c-124.63,10.39 -549.3,112.2 -665.97,142.78 -109.7,28.81 -208.42,61.3 -312.99,96.28 -347.52,116.08 -643.94,281.49 -945.03,482.28 -44.79,29.73 -80.11,56.03 -123.71,85.56 -49.72,33.61 -207.5,140.42 -207.5,201.78z"/>
   <path class="fil0" d="M2274.2 1988.7c0,50.18 53.54,100.69 84.25,125.22l1396.13 1172.98c42.42,33.41 323.91,282.28 356.14,290.89l237.95 -266.36c-17.3,-64.65 -395.86,-437.89 -429.66,-464.85 -41.5,-33.08 -68.53,-68.2 -114.17,-104.7l-122.26 -106.15c-165.8,-129.23 -210.66,-165.54 -384.48,-281.62 -220.72,-147.32 -493.07,-289.12 -732.86,-389.94l-165.14 -63.93c-74.78,-16.31 -125.88,37.75 -125.88,88.46z"/>
   <path class="fil0" d="M17518.12 2578.71c208.68,0 376.39,-98.92 524.7,-217.56 86.95,-69.52 303.13,-235.32 303.13,-372.45 0,-182.38 -343.84,-323.51 -513.78,-323.51 -150.87,0 -259,-3.16 -383.3,121.08 -60.38,60.44 -116.21,165.21 -140.35,259.32 -51.63,202.3 -18.15,533.12 209.6,533.12z"/>
   <path class="fil0" d="M11704.2 4215.36c212.43,0 656.5,-217.17 656.5,-494.78 0,-270.44 -714.84,-593.23 -895.76,17.69 -38.41,129.56 -43.54,347.91 87.08,429.47 29.73,18.55 105.43,47.62 152.19,47.62z"/>
   <path class="fil0" d="M12798.46 7412.62l0 95.17c0,141.07 83.07,304.44 218.88,304.44 163.83,0 327.33,-95.04 425.78,-183.23 135.61,-121.54 314.9,-306.09 164.49,-502.21 -51.1,-66.75 -173.43,-123.05 -257.68,-141.93 -59.91,-13.35 -128.05,-15.98 -180.93,-11.18 -128.18,11.71 -205.46,55.25 -267.48,132.85 -49.19,61.36 -103.06,197.17 -103.06,306.09z"/>
  </g>
 </g>
</svg>
