<?xml version="1.0" encoding="UTF-8"?>
<!DOCTYPE svg PUBLIC "-//W3C//DTD SVG 1.1//EN" "http://www.w3.org/Graphics/SVG/1.1/DTD/svg11.dtd">
<!-- Creator: CorelDRAW 2020 (64-Bit) -->
<svg xmlns="http://www.w3.org/2000/svg" xml:space="preserve" width="89.0144mm" height="40.0698mm" version="1.1" style="shape-rendering:geometricPrecision; text-rendering:geometricPrecision; image-rendering:optimizeQuality; fill-rule:evenodd; clip-rule:evenodd"
viewBox="0 0 2167.79 975.83"
 xmlns:xlink="http://www.w3.org/1999/xlink"
 xmlns:xodm="http://www.corel.com/coreldraw/odm/2003">
 <defs>
  <style type="text/css">
   <![CDATA[
    .fil0 {fill:#434954;fill-rule:nonzero}
    .fil1 {fill:darkorange;fill-rule:nonzero}
   ]]>
  </style>
 </defs>
 <g id="Слой_x0020_1">
  <metadata id="CorelCorpID_0Corel-Layer"/>
  <g id="_3092516634896">
   <path class="fil0" d="M1060.24 585.94l54.87 0c27.75,0 47.93,14.51 47.93,39.73 0,14.51 -6.94,26.49 -18.92,32.8l0 0.63c17.03,5.05 25.23,20.81 25.23,36.58 0,30.91 -24.6,44.78 -52.98,44.78l-56.13 0 0 -154.53zm55.5 63.07c11.98,0 18.92,-8.83 18.92,-19.55 0,-10.73 -6.94,-18.92 -19.55,-18.92l-26.49 0 0 39.1 27.12 0 0 -0.63zm2.52 66.86c14.51,0 22.71,-9.46 22.71,-22.71 0,-12.61 -8.2,-22.07 -22.71,-22.07l-30.27 0 0 44.78 30.27 0zm128.04 -89.56c15.14,0 32.17,5.05 42.89,16.4l-12.61 18.92c-6.94,-6.94 -17.66,-11.98 -29.01,-11.98 -20.18,0 -33.43,15.13 -33.43,34.06 0,18.92 13.25,34.69 34.69,34.69 11.98,0 24.6,-6.31 32.8,-13.88l10.72 19.56c-10.72,11.35 -27.76,18.29 -45.41,18.29 -36.58,0 -60.55,-25.86 -60.55,-58.03 0,-31.54 23.34,-58.03 59.92,-58.03zm112.27 0c31.54,0 49.2,23.34 49.2,52.35 0,3.78 -0.63,6.94 -0.63,10.72l-76.31 0c1.89,19.55 16.4,29.64 33.43,29.64 11.35,0 22.71,-5.05 31.54,-11.98l10.72 19.55c-11.35,10.09 -29.01,15.77 -44.78,15.77 -36.58,0 -59.92,-26.49 -59.92,-58.02 0,-34.07 23.34,-58.03 56.76,-58.03zm-31.54 -40.37l21.45 0 0 25.23 -21.45 0 0 -25.23zm52.98 85.15c0,-14.51 -10.09,-23.34 -22.07,-23.34 -13.88,0 -23.97,9.46 -26.49,23.34l48.56 0zm-13.25 -85.15l20.81 0 0 25.23 -20.81 0 0 -25.23zm118.57 43.52l100.92 0 0 111.01 -27.75 0 0 -87.67 -45.41 0 0 87.67 -27.75 0 0 -111.01zm130.56 0l25.23 0 0 8.2c0,4.41 -0.63,7.57 -0.63,7.57l0.63 0c6.94,-11.98 20.81,-18.92 35.95,-18.92 30.28,0 49.2,23.97 49.2,58.02 0,35.32 -21.45,58.02 -50.46,58.02 -12.61,0 -23.97,-5.67 -32.17,-15.77l-0.63 0c0,0 0.63,3.78 0.63,9.46l0 46.68 -27.75 0 0 -153.26zm54.24 90.19c15.14,0 27.76,-12.61 27.76,-34.06 0,-20.81 -11.35,-34.69 -27.12,-34.69 -14.51,0 -27.75,10.72 -27.75,35.32 -0.63,16.4 9.46,33.43 27.12,33.43zm133.08 -93.35c34.06,0 61.18,23.97 61.18,58.02 0,34.06 -27.12,58.02 -61.18,58.02 -34.06,0 -61.18,-23.97 -61.18,-58.02 0,-33.43 27.12,-58.02 61.18,-58.02zm0 92.71c18.29,0 32.79,-13.87 32.79,-34.69 0,-20.18 -15.13,-34.69 -32.79,-34.69 -17.66,0 -32.8,13.87 -32.8,34.69 0,20.81 14.51,34.69 32.8,34.69zm83.26 -89.56l26.49 0 0 87.04 34.69 0 0 -87.67 26.49 0 0 87.67 34.69 0 0 -87.67 26.49 0 0 87.67 15.77 0 0 49.83 -24.6 -0 0 -25.86 -138.76 0 0 -111.01 -1.26 0zm232.11 -3.15c31.54,0 49.2,23.34 49.2,52.35 0,3.78 -0.63,6.94 -0.63,10.72l-76.31 0c1.89,19.55 16.4,29.64 33.43,29.64 11.35,0 22.71,-5.05 31.54,-11.98l10.72 19.55c-11.35,10.09 -29.01,15.77 -44.78,15.77 -36.58,0 -59.92,-26.49 -59.92,-58.02 0,-34.07 23.34,-58.03 56.76,-58.03zm21.45 44.78c0,-14.51 -10.09,-23.34 -22.07,-23.34 -13.87,0 -23.97,9.46 -26.49,23.34l48.56 0z"/>
   <path class="fil1" d="M1535.18 142.54l0 318.52c0,5.05 -3.79,8.83 -8.83,8.83l-64.96 0c-5.05,0 -8.83,-3.79 -8.83,-8.83l-0 -318.52c0,-5.05 3.79,-8.83 8.83,-8.83l64.97 -0c5.04,0.63 8.83,4.42 8.83,8.83zm507.1 -8.2l-72.53 0c-3.79,0 -6.94,2.52 -8.2,6.31l-57.4 188.58 -63.07 -188.58c-1.26,-3.78 -4.41,-5.67 -8.2,-5.67l-51.09 0c-3.79,0 -6.94,2.52 -8.2,5.67l-63.07 188.58 -57.4 -188.58c-1.26,-3.78 -4.41,-6.31 -8.2,-6.31l-72.53 0c-2.52,0 -5.67,1.26 -6.94,3.79 -1.89,2.52 -1.89,5.05 -1.26,7.57l107.22 319.15c1.26,3.78 4.41,5.67 8.2,5.67l58.02 0c3.79,0 6.94,-2.52 8.2,-5.67l62.44 -186.06 62.44 186.06c1.26,3.79 4.41,5.67 8.2,5.67l58.02 0c3.78,0 6.94,-2.52 8.2,-5.67l107.22 -319.14c0.63,-2.52 0.63,-5.67 -1.26,-7.57 -3.15,-2.53 -5.68,-3.79 -8.83,-3.79zm109.75 0l-64.96 0c-5.05,0 -8.83,3.79 -8.83,8.83l0 318.52c0,5.05 3.78,8.83 8.83,8.83l64.96 0c5.05,0 8.83,-3.78 8.83,-8.83l0 -319.15c0,-4.41 -4.42,-8.2 -8.83,-8.2zm-737.31 324.82c3.79,4.42 0.63,10.72 -5.05,10.72l-79.47 0c-3.15,0 -6.31,-1.26 -8.2,-3.79l-13.25 -16.4c-27.75,17.66 -60.55,28.38 -95.24,28.38 -97.13,0 -175.97,-78.84 -175.97,-175.97 0,-97.13 78.84,-175.97 175.97,-175.97 97.13,0 175.97,78.84 175.97,175.97 0,34.69 -10.09,67.49 -27.75,95.24l52.99 61.81zm-157.68 -70.64l-34.69 -42.26c-3.78,-4.41 -0.63,-11.35 5.05,-11.35l73.16 0c3.79,-10.09 5.68,-21.45 5.68,-32.8 0,-52.35 -39.1,-97.76 -92.72,-97.76 -53.61,0 -92.72,45.41 -92.72,97.76 0,52.35 39.1,97.13 92.72,97.13 15.77,0.63 30.27,-3.79 43.52,-10.73zm-481.87 267.43c2.52,18.92 -3.15,27.12 -9.46,27.12 -6.31,0 -15.14,-7.57 -24.6,-22.71 -9.46,-15.14 -13.25,-32.17 -8.2,-41 3.15,-5.67 9.46,-8.2 18.29,-5.05 15.77,5.67 22.08,30.28 23.97,41.63zm-89.56 41.63c19.55,16.4 25.23,35.95 15.14,49.2 -5.67,7.57 -15.14,11.35 -25.86,11.35 -10.72,0 -22.07,-3.78 -29.64,-10.72 -17.66,-15.14 -22.71,-40.37 -11.35,-54.24 4.42,-5.67 11.98,-8.83 20.18,-8.83 11.35,0.63 22.08,5.04 31.54,13.24zm-32.17 157.68c83.26,0 173.45,28.38 273.1,117.31 10.09,8.83 23.34,-1.89 14.51,-13.25 -98.39,-124.26 -189.22,-147.59 -279.41,-167.77 -111,-24.6 -167.77,-87.04 -207.5,-155.15 -8.2,-13.88 -11.35,-11.36 -11.98,6.31 -0.63,21.45 0.63,49.83 5.67,77.58l0 0c-4.42,0 -8.83,0 -13.25,0 -158.31,0 -286.98,-128.67 -286.98,-286.98 0,-158.31 128.67,-286.98 286.98,-286.98 158.31,0 286.98,128.67 286.98,286.98 0,11.35 -0.63,22.71 -1.89,33.43 -20.81,-3.79 -62.44,-4.42 -91.45,-1.89 -10.72,0.63 -9.46,6.31 -1.26,7.57 94.61,17.03 160.2,75.69 174.71,182.91 0.63,2.52 3.79,3.15 5.05,1.26 39.1,-64.96 61.18,-141.28 61.18,-222.65 0,-239.67 -194.26,-433.94 -433.94,-433.94 -239.67,0 -433.94,194.26 -433.94,433.94 0,239.67 194.26,433.94 433.94,433.94 63.7,-0.63 126.77,-12.61 219.49,-12.61z"/>
  </g>
 </g>
</svg>
